<svg width="62" height="62" viewBox="0 0 62 62" fill="none" xmlns="http://www.w3.org/2000/svg">
<path fill-rule="evenodd" clip-rule="evenodd" d="M29.6891 44.368C30.3532 44.8304 31.2349 44.8304 31.899 44.368C38.4583 39.801 42.9293 33.9971 44.3595 26.7348C44.5517 25.7589 43.9321 24.8358 43.0171 24.4461C40.144 23.2223 37.7575 21.2021 36.3365 18.6618C35.9326 17.9397 35.2015 17.4311 34.3742 17.4311H27.2144C26.3872 17.4311 25.6563 17.9395 25.2524 18.6613C23.8307 21.2018 21.4439 23.2217 18.5705 24.4459C17.6557 24.8357 17.0363 25.7587 17.2285 26.7343C18.6586 33.9968 23.1296 39.8009 29.6891 44.368ZM34.0232 27.6069C34.5468 27.0833 35.3936 27.0833 35.9172 27.6069C36.4408 28.1305 36.4408 28.9774 35.9172 29.501L30.4823 34.9371C29.9587 35.4607 29.1084 35.4607 28.5882 34.9371L25.6709 32.0209C25.1473 31.4973 25.1473 30.6504 25.6709 30.1269C26.1945 29.6033 27.0413 29.6033 27.5649 30.1269L29.5352 32.096L34.0232 27.6069Z" fill="white"/>
</svg>
