<svg width="62" height="63" viewBox="0 0 62 63" fill="none" xmlns="http://www.w3.org/2000/svg">
<path d="M40.4692 39.8151C40.1659 38.168 38.4954 36.5767 36.4191 35.0791C36.0925 34.8411 35.9385 34.4025 36.1205 34.0385C36.3491 33.5765 36.9044 33.4692 37.3197 33.7352C38.5935 34.5331 39.7881 35.359 40.4739 36.2223V18.9247C40.4739 17.8935 39.6386 17.0582 38.6074 17.0582H34.2306C33.5727 17.0582 32.9661 17.4035 32.6301 17.9681L21.7299 36.2315C21.1373 37.3607 20.946 38.6766 21.2726 39.9131C21.6506 41.3503 22.7518 42.9227 25.6449 43.4546C30.829 44.4065 30.5632 45.7597 33.6335 45.9837C35.4859 46.119 40.3435 43.9259 40.474 39.9877V39.8337C40.474 39.8337 40.4739 39.8198 40.4692 39.8151ZM35.9757 43.2028C35.7237 43.8141 35.1031 44.3181 33.6332 43.8655C30.6935 42.9602 28.5845 41.789 27.7537 41.6863H27.7303C26.9884 41.579 26.8391 40.5665 27.5064 40.2212C28.8222 39.5352 31.9298 38.4947 35.4575 41.3037C36.0268 41.7563 36.2555 42.5356 35.9755 43.2075L35.9757 43.2028Z" fill="white"/>
</svg>
