<svg width="62" height="62" viewBox="0 0 62 62" fill="none" xmlns="http://www.w3.org/2000/svg">
<path d="M34.9045 25.7272C36.0608 25.7122 38.2291 25.9458 39.9379 27.5692C41.8143 29.3511 41.8651 32.7493 41.8007 34.127C41.7198 35.8729 41.1567 38.3126 39.8224 39.921C37.8802 42.2632 34.6274 42.5837 32.5877 42.5837C32.1178 42.5837 31.7109 42.5661 31.4006 42.5526L31.3911 42.5522C28.39 42.4249 25.9639 41.6911 24.8887 41.3107L24.9188 40.5053V27.6143L24.9171 26.7051C26.2996 25.8111 28.7046 23.9406 30.5616 20.8257C31.6084 19.0675 32.7286 18.2918 33.8817 18.5179C35.1965 18.7755 36.0457 19.99 36.0966 21.6868C36.137 23.066 35.5245 24.6848 34.9045 25.7272Z" fill="white"/>
<rect x="20.5781" y="24.7177" width="3.81018" height="18.1612" rx="1.90509" stroke="white"/>
</svg>
