<svg width="62" height="62" viewBox="0 0 62 62" fill="none" xmlns="http://www.w3.org/2000/svg">
<path fill-rule="evenodd" clip-rule="evenodd" d="M36.7381 27.4092C37.5951 26.1718 38.3473 24.7623 38.8645 23.0098C39.2495 21.7028 39.3697 20.1047 41.1917 20.0717C41.7564 20.0618 42.2803 20.2945 42.5262 20.7445C42.8593 21.351 42.5549 21.9643 42.3343 22.5499C41.0924 25.8488 39.7105 27.5957 38.399 28.8719C38.1056 28.1594 37.4924 27.6135 36.738 27.4105L36.7381 27.4092ZM33.8498 30.9253C31.4201 33.6903 29.2109 36.4883 29.5375 42.3283C29.5838 43.161 30.2776 43.8095 31.1114 43.7985C31.2261 43.7974 31.3364 43.7952 31.4433 43.7941C32.2981 43.7841 32.9885 43.0805 32.9819 42.2257C32.9411 36.43 33.7859 33.8203 35.0686 32.1C34.5381 31.8618 34.1057 31.4449 33.8488 30.9254L33.8498 30.9253ZM33.7803 28.8706C34.0737 28.1581 34.6869 27.6122 35.4413 27.4092C34.5843 26.1718 33.8321 24.7622 33.3149 23.0097C32.9299 21.7028 32.8097 20.1047 30.9877 20.0717C30.423 20.0617 29.8992 20.2944 29.6532 20.7444C29.3201 21.351 29.6245 21.9642 29.8451 22.5499C31.087 25.8488 32.4689 27.5956 33.7804 28.8718L33.7803 28.8706ZM37.1111 32.1009C38.3949 33.8214 39.2386 36.4309 39.1978 42.2266C39.1912 43.0813 39.8816 43.785 40.7363 43.7949C40.8433 43.796 40.9536 43.7971 41.0683 43.7993C41.9021 43.8092 42.5959 43.1618 42.6422 42.3292C42.9697 36.4891 40.7606 33.6911 38.3299 30.9261C38.0729 31.4456 37.6406 31.8636 37.1101 32.1007L37.1111 32.1009ZM37.7607 29.8212C37.7607 28.9013 37.0108 28.1514 36.0909 28.1514C35.1711 28.1514 34.4211 28.9013 34.4211 29.8212C34.4211 30.741 35.1711 31.491 36.0909 31.491C37.0107 31.491 37.7607 30.741 37.7607 29.8212ZM21.1897 31.1766C19.3599 33.2589 17.6957 35.3678 17.9427 39.7661C17.978 40.3937 18.5008 40.8811 19.1283 40.8745C19.2144 40.8734 19.2982 40.8723 19.3787 40.8712C20.0228 40.8635 20.5423 40.3341 20.5378 39.6889C20.507 35.3247 21.1433 33.3582 22.1095 32.0622C21.7102 31.8825 21.3838 31.5681 21.1908 31.1766L21.1897 31.1766ZM26.723 22.9963C25.3499 23.0217 25.2595 24.226 24.9694 25.2098C24.5801 26.53 24.0132 27.591 23.368 28.5228C23.936 28.675 24.3981 29.0875 24.6198 29.6235C25.608 28.6618 26.648 27.346 27.5833 24.8624C27.7498 24.4212 27.9781 23.9591 27.7278 23.5025C27.5425 23.1639 27.1476 22.9885 26.7219 22.9962L26.723 22.9963ZM21.1369 29.6249C21.3585 29.0889 21.8207 28.6764 22.3887 28.5242C21.7435 27.5922 21.1777 26.5312 20.7872 25.2112C20.4972 24.2274 20.4056 23.0219 19.0336 22.9976C18.6079 22.9899 18.2142 23.1653 18.0278 23.5039C17.7774 23.9605 18.0068 24.4226 18.1723 24.8638C19.1075 27.3475 20.1476 28.6644 21.1357 29.6249L21.1369 29.6249ZM23.6493 32.0623C24.6154 33.3582 25.2507 35.3248 25.2209 39.689C25.2165 40.3331 25.736 40.8625 26.3801 40.8713C26.4606 40.8724 26.5433 40.8735 26.6304 40.8746C27.2591 40.8823 27.7819 40.3948 27.8161 39.7662C28.062 35.3678 26.3988 33.259 24.5691 31.1767C24.375 31.5682 24.0496 31.8826 23.6504 32.0623L23.6493 32.0623ZM24.0408 30.3429C24.0408 29.7032 23.5191 29.1815 22.8794 29.1815C22.2398 29.1815 21.7181 29.7032 21.7181 30.3429C21.7181 30.9826 22.2398 31.5042 22.8794 31.5042C23.5191 31.5042 24.0408 30.9826 24.0408 30.3429Z" fill="white"/>
</svg>
