<svg width="1739" height="62" viewBox="0 0 1739 62" fill="none" xmlns="http://www.w3.org/2000/svg">
  <g opacity="0.7">
    <path d="M19.105 15.8898L11.6753 34.4954L3.53797 55.6031H0L0 10.693H2.97189L2.97189 49.1232L10.1893 30.7743L18.1851 10.693H22.0769L22.0769 55.6031H19.105L19.105 15.8898Z" fill="#292929" fill-opacity="0.2" />
    <path d="M56.0148 15.6973L45.684 55.5389H42.429L31.9567 15.8256L31.9567 55.6031H29.0555L29.0555 10.693H33.7257L44.1273 50.4064L54.4581 10.693H59.1282L59.1282 55.6031H56.0148L56.0148 15.6973Z" fill="#292929" fill-opacity="0.2" />
    <path d="M69.4508 31.48L82.9658 31.48V34.1746H69.4508V52.9085H85.7254L85.7254 55.6031L66.1959 55.6031L66.1959 10.693L85.7254 10.693V13.3877L69.4508 13.3877V31.48Z" fill="#292929" fill-opacity="0.2" />
    <path d="M115.132 10.3081C118.764 10.3081 121.477 11.3346 123.269 13.3877C125.109 15.4407 126.029 18.1994 126.029 21.6639V44.6322C126.029 48.0967 125.109 50.8555 123.269 52.9085C121.477 54.9615 118.764 55.988 115.132 55.988C111.453 55.988 108.717 54.9615 106.924 52.9085C105.131 50.8555 104.235 48.0967 104.235 44.6322V34.4954H95.6732L95.6732 55.6031H92.4183L92.4183 10.693L95.6732 10.693V31.8008L104.235 31.8008V21.6639C104.235 18.1994 105.131 15.4407 106.924 13.3877C108.717 11.3346 111.453 10.3081 115.132 10.3081ZM115.132 13.0027C110.037 13.0027 107.49 15.8256 107.49 21.4715V44.8247C107.49 50.4705 110.037 53.2934 115.132 53.2934C117.727 53.2934 119.637 52.5449 120.864 51.0479C122.137 49.5082 122.774 47.4337 122.774 44.8247V21.4715C122.774 18.8624 122.137 16.8094 120.864 15.3124C119.637 13.7726 117.727 13.0027 115.132 13.0027Z" fill="#292929" fill-opacity="0.2" />
    <path d="M145.4 55.6031H142.145V13.3877L132.026 13.3877V10.693L155.518 10.693V13.3877L145.4 13.3877V55.6031Z" fill="#292929" fill-opacity="0.2" />
    <path d="M164.13 13.4518C165.875 11.356 168.564 10.3081 172.196 10.3081C175.828 10.3081 178.517 11.356 180.263 13.4518C182.008 15.5048 182.881 18.2422 182.881 21.6639V25.3851H179.767V21.4715C179.767 18.9052 179.154 16.8521 177.928 15.3124C176.748 13.7726 174.861 13.0027 172.267 13.0027C169.672 13.0027 167.762 13.7726 166.535 15.3124C165.356 16.8521 164.766 18.9052 164.766 21.4715V44.8247C164.766 50.4277 167.266 53.2293 172.267 53.2293C177.267 53.2293 179.767 50.4277 179.767 44.8247V39.4996H182.881V44.6322C182.881 48.0539 182.008 50.8127 180.263 52.9085C178.517 54.9615 175.828 55.988 172.196 55.988C168.564 55.988 165.875 54.9615 164.13 52.9085C162.384 50.8127 161.511 48.0539 161.511 44.6322V21.6639C161.511 18.2422 162.384 15.5048 164.13 13.4518Z" fill="#292929" fill-opacity="0.2" />
    <path d="M208.002 35.5219H202.837C199.77 35.5219 197.459 36.0993 195.902 37.2541C194.345 38.3662 193.567 40.3337 193.567 43.1566V50.2139C193.567 52.6946 193.213 54.491 192.506 55.6031H189.109C189.911 54.491 190.312 52.6946 190.312 50.2139V43.2208C190.312 38.0454 192.694 34.9872 197.459 34.0463C192.694 33.0625 190.312 29.9616 190.312 24.7435V20.8299C190.312 14.072 193.85 10.693 200.926 10.693L211.257 10.693V55.6031H208.002V35.5219ZM208.002 13.3877L200.997 13.3877C196.044 13.3877 193.567 15.9539 193.567 21.0865V25.3209C193.567 28.1866 194.322 30.1541 195.831 31.2234C197.341 32.2926 199.652 32.8273 202.766 32.8273H208.002V13.3877Z" fill="#292929" fill-opacity="0.2" />
    <path d="M249.397 13.3877L233.972 13.3877V55.6031H230.717V10.693L252.723 10.693V55.6031H249.397V13.3877Z" fill="#292929" fill-opacity="0.2" />
    <path d="M259.772 10.693H270.032C277.108 10.693 280.646 14.3286 280.646 21.5998V26.4757C280.646 33.5758 276.825 37.1258 269.183 37.1258H263.027V55.6031H259.772V10.693ZM263.027 34.4312H269.183C272.061 34.4312 274.136 33.8324 275.41 32.6348C276.731 31.3944 277.391 29.4056 277.391 26.6682V21.4073C277.391 16.0609 274.938 13.3877 270.032 13.3877H263.027V34.4312Z" fill="#292929" fill-opacity="0.2" />
    <path d="M286.75 44.6322V21.6639C286.75 18.2422 287.646 15.5048 289.439 13.4518C291.278 11.356 293.991 10.3081 297.576 10.3081C301.256 10.3081 303.992 11.3346 305.784 13.3877C307.624 15.4407 308.544 18.1994 308.544 21.6639V44.6322C308.544 48.0967 307.624 50.8555 305.784 52.9085C303.992 54.9615 301.256 55.988 297.576 55.988C293.991 55.988 291.278 54.9615 289.439 52.9085C287.646 50.8127 286.75 48.0539 286.75 44.6322ZM290.005 21.4715V44.8247C290.005 47.4337 290.618 49.5082 291.845 51.0479C293.071 52.5449 294.982 53.2934 297.576 53.2934C300.218 53.2934 302.152 52.5449 303.378 51.0479C304.652 49.5082 305.289 47.4337 305.289 44.8247V21.4715C305.289 18.8624 304.652 16.8094 303.378 15.3124C302.152 13.7726 300.218 13.0027 297.576 13.0027C294.982 13.0027 293.071 13.7726 291.845 15.3124C290.618 16.8094 290.005 18.8624 290.005 21.4715Z" fill="#292929" fill-opacity="0.2" />
    <path d="M327.851 55.6031H324.596V13.3877L314.478 13.3877V10.693L337.97 10.693V13.3877H327.851V55.6031Z" fill="#292929" fill-opacity="0.2" />
    <path d="M363.28 15.8898L355.85 34.4954L347.713 55.6031H344.175V10.693H347.147V49.1232L354.364 30.7743L362.36 10.693H366.252V55.6031H363.28V15.8898Z" fill="#292929" fill-opacity="0.2" />
    <path d="M373.23 10.693L383.632 10.693C387.264 10.693 389.859 11.4843 391.416 13.0669C392.972 14.6494 393.751 17.0446 393.751 20.2525V22.8188C393.751 25.3851 393.255 27.3953 392.265 28.8495C391.321 30.261 389.647 31.202 387.241 31.6725C392.194 32.5707 394.671 35.7785 394.671 41.296V45.2096C394.671 52.1386 391.062 55.6031 383.844 55.6031L373.23 55.6031V10.693ZM376.485 30.5176H382.005C385.024 30.5176 387.194 30.0258 388.514 29.042C389.835 28.0155 390.496 26.1336 390.496 23.3962V20.5091C390.496 18.0711 389.977 16.2747 388.939 15.1199C387.901 13.9651 386.109 13.3877 383.561 13.3877L376.485 13.3877V30.5176ZM376.485 52.9085H383.844C388.892 52.9085 391.416 50.3208 391.416 45.1455V41.1036C391.416 38.2379 390.708 36.2062 389.293 35.0086C387.878 33.811 385.66 33.2122 382.641 33.2122H376.485V52.9085Z" fill="#292929" fill-opacity="0.2" />
    <path d="M401.175 44.6322V21.6639C401.175 18.2422 402.072 15.5048 403.864 13.4518C405.704 11.356 408.416 10.3081 412.002 10.3081C415.681 10.3081 418.417 11.3346 420.21 13.3877C422.049 15.4407 422.969 18.1994 422.969 21.6639V44.6322C422.969 48.0967 422.049 50.8555 420.21 52.9085C418.417 54.9615 415.681 55.988 412.002 55.988C408.416 55.988 405.704 54.9615 403.864 52.9085C402.072 50.8127 401.175 48.0539 401.175 44.6322ZM404.43 21.4715V44.8247C404.43 47.4337 405.044 49.5082 406.27 51.0479C407.497 52.5449 409.407 53.2934 412.002 53.2934C414.643 53.2934 416.577 52.5449 417.804 51.0479C419.077 49.5082 419.714 47.4337 419.714 44.8247V21.4715C419.714 18.8624 419.077 16.8094 417.804 15.3124C416.577 13.7726 414.643 13.0027 412.002 13.0027C409.407 13.0027 407.497 13.7726 406.27 15.3124C405.044 16.8094 404.43 18.8624 404.43 21.4715Z" fill="#292929" fill-opacity="0.2" />
    <path d="M448.433 13.3877L433.007 13.3877V55.6031H429.752V10.693L451.758 10.693V55.6031H448.433V13.3877Z" fill="#292929" fill-opacity="0.2" />
    <path d="M458.595 44.6322V21.6639C458.595 18.2422 459.492 15.5048 461.284 13.4518C463.124 11.356 465.837 10.3081 469.422 10.3081C473.101 10.3081 475.837 11.3346 477.63 13.3877C479.469 15.4407 480.389 18.1994 480.389 21.6639V44.6322C480.389 48.0967 479.469 50.8555 477.63 52.9085C475.837 54.9615 473.101 55.988 469.422 55.988C465.837 55.988 463.124 54.9615 461.284 52.9085C459.492 50.8127 458.595 48.0539 458.595 44.6322ZM461.85 21.4715V44.8247C461.85 47.4337 462.464 49.5082 463.69 51.0479C464.917 52.5449 466.827 53.2934 469.422 53.2934C472.063 53.2934 473.997 52.5449 475.224 51.0479C476.498 49.5082 477.134 47.4337 477.134 44.8247V21.4715C477.134 18.8624 476.498 16.8094 475.224 15.3124C473.997 13.7726 472.063 13.0027 469.422 13.0027C466.827 13.0027 464.917 13.7726 463.69 15.3124C462.464 16.8094 461.85 18.8624 461.85 21.4715Z" fill="#292929" fill-opacity="0.2" />
    <path d="M507.48 55.6031L493.824 34.4954L490.427 39.3713V55.6031H487.172V10.693H490.427V34.4312L506.56 10.693H509.957L495.805 31.6083L510.877 55.6031L507.48 55.6031Z" fill="#292929" fill-opacity="0.2" />
    <path d="M537.362 45.6587H521.936L519.459 55.6031H516.488L527.314 10.6289H532.055L543.093 55.6031H539.838L537.362 45.6587ZM529.578 14.0292L522.431 43.0924H536.866L529.578 14.0292Z" fill="#292929" fill-opacity="0.2" />
    <path d="M551.906 13.3877C553.651 11.3346 556.34 10.3081 559.972 10.3081C563.605 10.3081 566.294 11.3346 568.039 13.3877C569.784 15.4407 570.657 18.1994 570.657 21.6639V22.8188C570.657 25.0429 570.068 26.989 568.888 28.6571C567.709 30.2824 566.058 31.4158 563.935 32.0574C566.152 32.6134 567.827 33.7041 568.959 35.3294C570.091 36.9547 570.657 38.9008 570.657 41.1677V44.6322C570.657 48.0967 569.784 50.8555 568.039 52.9085C566.294 54.9615 563.605 55.988 559.972 55.988C556.34 55.988 553.651 54.9615 551.906 52.9085C550.161 50.8555 549.288 48.0967 549.288 44.6322V40.9111H552.401V44.8247C552.401 47.391 552.991 49.444 554.17 50.9838C555.397 52.5236 557.307 53.2934 559.902 53.2934C564.902 53.2934 567.402 50.385 567.402 44.5681V41.1036C567.402 38.7939 566.718 36.9547 565.35 35.5861C563.982 34.2174 562.119 33.533 559.76 33.533H557.001V30.8384H559.972C562.142 30.8384 563.911 30.1327 565.279 28.7212C566.695 27.267 567.402 25.492 567.402 23.3962V21.7281C567.402 15.9112 564.902 13.0027 559.902 13.0027C557.307 13.0027 555.397 13.7726 554.17 15.3124C552.944 16.8094 552.331 18.8624 552.331 21.4715V23.9094H549.359V21.5998C549.359 18.1353 550.208 15.3979 551.906 13.3877Z" fill="#292929" fill-opacity="0.2" />
    <path d="M597.753 45.6587L582.328 45.6587L579.851 55.6031H576.879L587.705 10.6289L592.446 10.6289L603.484 55.6031H600.23L597.753 45.6587ZM589.97 14.0292L582.823 43.0924L597.258 43.0924L589.97 14.0292Z" fill="#292929" fill-opacity="0.2" />
    <path d="M628.501 34.4954H613.076V55.6031H609.821V10.693L613.076 10.693V31.8008H628.501V10.693H631.827V55.6031H628.501V34.4954Z" fill="#292929" fill-opacity="0.2" />
    <path d="M657.981 15.8898L650.552 34.4954L642.414 55.6031L638.876 55.6031V10.693H641.848V49.1232L649.066 30.7743L657.062 10.693L660.953 10.693V55.6031H657.981V15.8898Z" fill="#292929" fill-opacity="0.2" />
    <path d="M686.329 35.5219H681.164C678.098 35.5219 675.786 36.0993 674.229 37.2541C672.673 38.3662 671.894 40.3337 671.894 43.1566V50.2139C671.894 52.6946 671.541 54.491 670.833 55.6031H667.437C668.238 54.491 668.64 52.6946 668.64 50.2139V43.2208C668.64 38.0454 671.022 34.9872 675.786 34.0463C671.022 33.0625 668.64 29.9616 668.64 24.7435V20.8299C668.64 14.072 672.177 10.693 679.253 10.693H689.584V55.6031H686.329V35.5219ZM686.329 13.3877H679.324C674.371 13.3877 671.894 15.9539 671.894 21.0865V25.3209C671.894 28.1866 672.649 30.1541 674.159 31.2234C675.668 32.2926 677.98 32.8273 681.093 32.8273H686.329V13.3877Z" fill="#292929" fill-opacity="0.2" />
    <path d="M727.725 34.4954H712.299V55.6031H709.044V10.693H712.299V31.8008L727.725 31.8008V10.693H731.05V55.6031L727.725 55.6031V34.4954Z" fill="#292929" fill-opacity="0.2" />
    <path d="M741.355 31.48H754.87V34.1746H741.355V52.9085H757.629V55.6031H738.1V10.693L757.629 10.693V13.3877L741.355 13.3877V31.48Z" fill="#292929" fill-opacity="0.2" />
    <path d="M764.11 44.6322V21.6639C764.11 18.2422 765.006 15.5048 766.799 13.4518C768.638 11.356 771.351 10.3081 774.936 10.3081C778.615 10.3081 781.351 11.3346 783.144 13.3877C784.984 15.4407 785.904 18.1994 785.904 21.6639V44.6322C785.904 48.0967 784.984 50.8555 783.144 52.9085C781.351 54.9615 778.615 55.988 774.936 55.988C771.351 55.988 768.638 54.9615 766.799 52.9085C765.006 50.8127 764.11 48.0539 764.11 44.6322ZM767.365 21.4715V44.8247C767.365 47.4337 767.978 49.5082 769.204 51.0479C770.431 52.5449 772.341 53.2934 774.936 53.2934C777.578 53.2934 779.512 52.5449 780.738 51.0479C782.012 49.5082 782.649 47.4337 782.649 44.8247V21.4715C782.649 18.8624 782.012 16.8094 780.738 15.3124C779.512 13.7726 777.578 13.0027 774.936 13.0027C772.341 13.0027 770.431 13.7726 769.204 15.3124C767.978 16.8094 767.365 18.8624 767.365 21.4715Z" fill="#292929" fill-opacity="0.2" />
    <path d="M795.941 29.8119H803.017C806.933 29.8119 809.834 30.6032 811.721 32.1857C813.608 33.7683 814.551 36.3132 814.551 39.8204V44.8888C814.551 52.0317 810.895 55.6031 803.583 55.6031H792.687V10.693L812.711 10.693V13.3877L795.941 13.3877V29.8119ZM795.941 52.9085H803.583C808.725 52.9085 811.296 50.2994 811.296 45.0813V39.628C811.296 36.9761 810.636 35.1369 809.315 34.1104C807.994 33.0839 805.895 32.5707 803.017 32.5707H795.941V52.9085Z" fill="#292929" fill-opacity="0.2" />
    <path d="M844.109 55.6031L834.061 34.6878L824.013 55.6031H820.829L832.009 32.314L821.607 10.693L825.004 10.693L834.344 30.0044L843.755 10.693L846.868 10.693L836.467 32.314L847.576 55.6031H844.109Z" fill="#292929" fill-opacity="0.2" />
    <path d="M853.833 44.6322V21.6639C853.833 18.2422 854.729 15.5048 856.522 13.4518C858.362 11.356 861.074 10.3081 864.659 10.3081C868.339 10.3081 871.075 11.3346 872.867 13.3877C874.707 15.4407 875.627 18.1994 875.627 21.6639V44.6322C875.627 48.0967 874.707 50.8555 872.867 52.9085C871.075 54.9615 868.339 55.988 864.659 55.988C861.074 55.988 858.362 54.9615 856.522 52.9085C854.729 50.8127 853.833 48.0539 853.833 44.6322ZM857.088 21.4715V44.8247C857.088 47.4337 857.701 49.5082 858.928 51.0479C860.154 52.5449 862.065 53.2934 864.659 53.2934C867.301 53.2934 869.235 52.5449 870.462 51.0479C871.735 49.5082 872.372 47.4337 872.372 44.8247V21.4715C872.372 18.8624 871.735 16.8094 870.462 15.3124C869.235 13.7726 867.301 13.0027 864.659 13.0027C862.065 13.0027 860.154 13.7726 858.928 15.3124C857.701 16.8094 857.088 18.8624 857.088 21.4715Z" fill="#292929" fill-opacity="0.2" />
    <path d="M911.846 61.8263H908.591V55.6031L884.957 55.6031V61.8263H881.773V52.9085H885.17C886.632 51.497 887.457 49.1018 887.646 45.7229L889.627 10.693L907.742 10.693V52.9085H911.846V61.8263ZM892.67 13.3877L890.83 45.7229C890.594 49.2301 889.816 51.6254 888.495 52.9085H904.416V13.3877L892.67 13.3877Z" fill="#292929" fill-opacity="0.2" />
    <path d="M937.55 15.8898L930.12 34.4954L921.983 55.6031H918.445V10.693H921.417V49.1232L928.634 30.7743L936.63 10.693H940.522V55.6031H937.55V15.8898Z" fill="#292929" fill-opacity="0.2" />
    <path d="M974.459 15.6973L964.129 55.5389H960.874L950.401 15.8256V55.6031L947.5 55.6031V10.693H952.17L962.572 50.4064L972.903 10.693H977.573V55.6031H974.459V15.6973Z" fill="#292929" fill-opacity="0.2" />
    <path d="M984.428 44.6322V21.6639C984.428 18.2422 985.325 15.5048 987.117 13.4518C988.957 11.356 991.669 10.3081 995.254 10.3081C998.934 10.3081 1001.67 11.3346 1003.46 13.3877C1005.3 15.4407 1006.22 18.1994 1006.22 21.6639V44.6322C1006.22 48.0967 1005.3 50.8555 1003.46 52.9085C1001.67 54.9615 998.934 55.988 995.254 55.988C991.669 55.988 988.957 54.9615 987.117 52.9085C985.325 50.8127 984.428 48.0539 984.428 44.6322ZM987.683 21.4715V44.8247C987.683 47.4337 988.296 49.5082 989.523 51.0479C990.749 52.5449 992.66 53.2934 995.254 53.2934C997.896 53.2934 999.83 52.5449 1001.06 51.0479C1002.33 49.5082 1002.97 47.4337 1002.97 44.8247V21.4715C1002.97 18.8624 1002.33 16.8094 1001.06 15.3124C999.83 13.7726 997.896 13.0027 995.254 13.0027C992.66 13.0027 990.749 13.7726 989.523 15.3124C988.296 16.8094 987.683 18.8624 987.683 21.4715Z" fill="#292929" fill-opacity="0.2" />
    <path d="M1025.19 44.6322V21.6639C1025.19 18.2422 1026.09 15.5048 1027.88 13.4518C1029.72 11.356 1032.44 10.3081 1036.02 10.3081C1039.7 10.3081 1042.44 11.3346 1044.23 13.3877C1046.07 15.4407 1046.99 18.1994 1046.99 21.6639V44.6322C1046.99 48.0967 1046.07 50.8555 1044.23 52.9085C1042.44 54.9615 1039.7 55.988 1036.02 55.988C1032.44 55.988 1029.72 54.9615 1027.88 52.9085C1026.09 50.8127 1025.19 48.0539 1025.19 44.6322ZM1028.45 21.4715V44.8247C1028.45 47.4337 1029.06 49.5082 1030.29 51.0479C1031.52 52.5449 1033.43 53.2934 1036.02 53.2934C1038.66 53.2934 1040.6 52.5449 1041.82 51.0479C1043.1 49.5082 1043.73 47.4337 1043.73 44.8247V21.4715C1043.73 18.8624 1043.1 16.8094 1041.82 15.3124C1040.6 13.7726 1038.66 13.0027 1036.02 13.0027C1033.43 13.0027 1031.52 13.7726 1030.29 15.3124C1029.06 16.8094 1028.45 18.8624 1028.45 21.4715Z" fill="#292929" fill-opacity="0.2" />
    <path d="M1056.25 13.3877C1057.99 11.3346 1060.68 10.3081 1064.31 10.3081C1067.95 10.3081 1070.64 11.3346 1072.38 13.3877C1074.13 15.4407 1075 18.1994 1075 21.6639V22.8188C1075 25.0429 1074.41 26.989 1073.23 28.6571C1072.05 30.2824 1070.4 31.4158 1068.28 32.0574C1070.49 32.6134 1072.17 33.7041 1073.3 35.3294C1074.43 36.9547 1075 38.9008 1075 41.1677V44.6322C1075 48.0967 1074.13 50.8555 1072.38 52.9085C1070.64 54.9615 1067.95 55.988 1064.31 55.988C1060.68 55.988 1057.99 54.9615 1056.25 52.9085C1054.5 50.8555 1053.63 48.0967 1053.63 44.6322V40.9111H1056.74V44.8247C1056.74 47.391 1057.33 49.444 1058.51 50.9838C1059.74 52.5236 1061.65 53.2934 1064.24 53.2934C1069.24 53.2934 1071.74 50.385 1071.74 44.5681V41.1036C1071.74 38.7939 1071.06 36.9547 1069.69 35.5861C1068.32 34.2174 1066.46 33.533 1064.1 33.533H1061.34V30.8384H1064.31C1066.48 30.8384 1068.25 30.1327 1069.62 28.7212C1071.04 27.267 1071.74 25.492 1071.74 23.3962V21.7281C1071.74 15.9112 1069.24 13.0027 1064.24 13.0027C1061.65 13.0027 1059.74 13.7726 1058.51 15.3124C1057.29 16.8094 1056.67 18.8624 1056.67 21.4715V23.9094H1053.7V21.5998C1053.7 18.1353 1054.55 15.3979 1056.25 13.3877Z" fill="#292929" fill-opacity="0.2" />
    <path d="M1100.61 34.4954L1085.18 34.4954V55.6031L1081.93 55.6031V10.693H1085.18V31.8008L1100.61 31.8008V10.693H1103.94V55.6031H1100.61V34.4954Z" fill="#292929" fill-opacity="0.2" />
    <path d="M1131.15 45.6587L1115.73 45.6587L1113.25 55.6031H1110.28L1121.1 10.6289H1125.84L1136.88 55.6031H1133.63L1131.15 45.6587ZM1123.37 14.0292L1116.22 43.0924L1130.66 43.0924L1123.37 14.0292Z" fill="#292929" fill-opacity="0.2" />
    <path d="M1163.53 55.6031L1149.87 34.4954L1146.47 39.3713V55.6031H1143.22V10.693H1146.47V34.4312L1162.61 10.693L1166 10.693L1151.85 31.6083L1166.92 55.6031H1163.53Z" fill="#292929" fill-opacity="0.2" />
    <path d="M1173.03 44.6322V21.6639C1173.03 18.2422 1173.93 15.5048 1175.72 13.4518C1177.56 11.356 1180.27 10.3081 1183.86 10.3081C1187.54 10.3081 1190.27 11.3346 1192.06 13.3877C1193.9 15.4407 1194.82 18.1994 1194.82 21.6639V44.6322C1194.82 48.0967 1193.9 50.8555 1192.06 52.9085C1190.27 54.9615 1187.54 55.988 1183.86 55.988C1180.27 55.988 1177.56 54.9615 1175.72 52.9085C1173.93 50.8127 1173.03 48.0539 1173.03 44.6322ZM1176.28 21.4715V44.8247C1176.28 47.4337 1176.9 49.5082 1178.12 51.0479C1179.35 52.5449 1181.26 53.2934 1183.86 53.2934C1186.5 53.2934 1188.43 52.5449 1189.66 51.0479C1190.93 49.5082 1191.57 47.4337 1191.57 44.8247V21.4715C1191.57 18.8624 1190.93 16.8094 1189.66 15.3124C1188.43 13.7726 1186.5 13.0027 1183.86 13.0027C1181.26 13.0027 1179.35 13.7726 1178.12 15.3124C1176.9 16.8094 1176.28 18.8624 1176.28 21.4715Z" fill="#292929" fill-opacity="0.2" />
    <path d="M1228.57 15.6973L1218.23 55.5389L1214.98 55.5389L1204.51 15.8256V55.6031H1201.61V10.693H1206.28L1216.68 50.4064L1227.01 10.693L1231.68 10.693V55.6031H1228.57V15.6973Z" fill="#292929" fill-opacity="0.2" />
    <path d="M1257.85 15.8898L1250.42 34.4954L1242.28 55.6031H1238.75V10.693H1241.72V49.1232L1248.94 30.7743L1256.93 10.693H1260.82V55.6031L1257.85 55.6031V15.8898Z" fill="#292929" fill-opacity="0.2" />
    <path d="M1280.33 55.6031H1277.07V13.3877L1266.95 13.3877V10.693L1290.45 10.693V13.3877L1280.33 13.3877V55.6031Z" fill="#292929" fill-opacity="0.2" />
    <path d="M1299.91 29.1703H1305.99C1309.91 29.1703 1312.81 30.0471 1314.69 31.8008C1316.58 33.5544 1317.52 36.2276 1317.52 39.8204V44.6964C1317.52 51.9675 1313.96 55.6031 1306.84 55.6031L1296.65 55.6031V10.693L1299.91 10.693V29.1703ZM1299.91 52.9085L1306.84 52.9085C1311.79 52.9085 1314.27 50.2353 1314.27 44.8888V39.628C1314.27 36.8906 1313.61 34.9231 1312.29 33.7255C1310.97 32.4851 1308.87 31.8649 1305.99 31.8649H1299.91V52.9085Z" fill="#292929" fill-opacity="0.2" />
    <path d="M1326.66 13.4518C1328.41 11.356 1331.09 10.3081 1334.73 10.3081C1338.36 10.3081 1341.05 11.356 1342.79 13.4518C1344.54 15.5048 1345.41 18.2422 1345.41 21.6639V25.3851H1342.3V21.4715C1342.3 18.9052 1341.69 16.8521 1340.46 15.3124C1339.28 13.7726 1337.39 13.0027 1334.8 13.0027C1332.2 13.0027 1330.29 13.7726 1329.07 15.3124C1327.89 16.8521 1327.3 18.9052 1327.3 21.4715V44.8247C1327.3 50.4277 1329.8 53.2293 1334.8 53.2293C1339.8 53.2293 1342.3 50.4277 1342.3 44.8247V39.4996H1345.41V44.6322C1345.41 48.0539 1344.54 50.8127 1342.79 52.9085C1341.05 54.9615 1338.36 55.988 1334.73 55.988C1331.09 55.988 1328.41 54.9615 1326.66 52.9085C1324.92 50.8127 1324.04 48.0539 1324.04 44.6322V21.6639C1324.04 18.2422 1324.92 15.5048 1326.66 13.4518Z" fill="#292929" fill-opacity="0.2" />
    <path d="M1370.53 35.5219H1365.37C1362.3 35.5219 1359.99 36.0993 1358.43 37.2541C1356.88 38.3662 1356.1 40.3337 1356.1 43.1566V50.2139C1356.1 52.6946 1355.74 54.491 1355.04 55.6031H1351.64C1352.44 54.491 1352.84 52.6946 1352.84 50.2139V43.2208C1352.84 38.0454 1355.23 34.9872 1359.99 34.0463C1355.23 33.0625 1352.84 29.9616 1352.84 24.7435V20.8299C1352.84 14.072 1356.38 10.693 1363.46 10.693L1373.79 10.693V55.6031H1370.53V35.5219ZM1370.53 13.3877H1363.53C1358.57 13.3877 1356.1 15.9539 1356.1 21.0865V25.3209C1356.1 28.1866 1356.85 30.1541 1358.36 31.2234C1359.87 32.2926 1362.18 32.8273 1365.3 32.8273H1370.53V13.3877Z" fill="#292929" fill-opacity="0.2" />
  </g>
  <g opacity="0.7">
    <path d="M1400.45 11.688C1402.13 9.50713 1404.71 8.41669 1408.2 8.41669C1411.69 8.41669 1414.27 9.50713 1415.95 11.688C1417.62 13.8244 1418.46 16.673 1418.46 20.2336V24.1058L1415.47 24.1058V20.0333C1415.47 17.3628 1414.88 15.2264 1413.7 13.6241C1412.57 12.0218 1410.76 11.2207 1408.27 11.2207C1405.77 11.2207 1403.94 12.0218 1402.76 13.6241C1401.63 15.2264 1401.06 17.3628 1401.06 20.0333V44.3348C1401.06 50.1654 1403.46 53.0807 1408.27 53.0807C1413.07 53.0807 1415.47 50.1654 1415.47 44.3348V38.7935H1418.46V44.1345C1418.46 47.6952 1417.62 50.5659 1415.95 52.7468C1414.27 54.8832 1411.69 55.9514 1408.2 55.9514C1404.71 55.9514 1402.13 54.8832 1400.45 52.7468C1398.77 50.5659 1397.93 47.6952 1397.93 44.1345V20.2336C1397.93 16.673 1398.77 13.8244 1400.45 11.688Z" fill="#292929" fill-opacity="0.2" />
    <path d="M1455.18 14.225L1448.05 33.5861L1440.23 55.5509H1436.83V8.81726H1439.69V48.8079L1446.62 29.7139L1454.3 8.81726H1458.04V55.5509H1455.18V14.225Z" fill="#292929" fill-opacity="0.2" />
    <path d="M1482.69 33.5861H1467.87V55.5509H1464.74V8.81726H1467.87V30.782H1482.69V8.81726H1485.88V55.5509H1482.69V33.5861Z" fill="#292929" fill-opacity="0.2" />
    <path d="M1494.96 11.688C1496.64 9.50713 1499.22 8.41669 1502.71 8.41669C1506.2 8.41669 1508.78 9.50713 1510.46 11.688C1512.14 13.8244 1512.98 16.673 1512.98 20.2336V24.1058H1509.99V20.0333C1509.99 17.3628 1509.4 15.2264 1508.22 13.6241C1507.09 12.0218 1505.27 11.2207 1502.78 11.2207C1500.29 11.2207 1498.45 12.0218 1497.27 13.6241C1496.14 15.2264 1495.58 17.3628 1495.58 20.0333V44.3348C1495.58 50.1654 1497.98 53.0807 1502.78 53.0807C1507.58 53.0807 1509.99 50.1654 1509.99 44.3348V38.7935H1512.98V44.1345C1512.98 47.6952 1512.14 50.5659 1510.46 52.7468C1508.78 54.8832 1506.2 55.9514 1502.71 55.9514C1499.22 55.9514 1496.64 54.8832 1494.96 52.7468C1493.29 50.5659 1492.45 47.6952 1492.45 44.1345V20.2336C1492.45 16.673 1493.29 13.8244 1494.96 11.688Z" fill="#292929" fill-opacity="0.2" />
    <path d="M1531.47 55.5509H1528.34V11.6213H1518.62V8.81726L1541.19 8.81726V11.6213H1531.47V55.5509Z" fill="#292929" fill-opacity="0.2" />
    <path d="M1547.15 8.81726L1557 8.81726C1563.8 8.81726 1567.2 12.6005 1567.2 20.1668V25.2408C1567.2 32.6291 1563.53 36.3233 1556.19 36.3233H1550.27V55.5509H1547.15V8.81726ZM1550.27 33.5193H1556.19C1558.95 33.5193 1560.94 32.8962 1562.17 31.65C1563.44 30.3592 1564.07 28.2896 1564.07 25.4411V19.9666C1564.07 14.403 1561.71 11.6213 1557 11.6213H1550.27V33.5193Z" fill="#292929" fill-opacity="0.2" />
    <path d="M1597.6 8.81726L1585.29 46.8718C1584.43 49.9873 1583.28 52.2572 1581.83 53.6815C1580.38 55.0613 1578.04 55.6844 1574.83 55.5509V52.8136C1576.91 52.8581 1578.45 52.4575 1579.45 51.6119C1580.45 50.7217 1581.26 49.2975 1581.9 47.3391L1583.87 41.6643L1572.45 8.81726H1575.64L1581.22 25.3075L1585.36 37.7921L1589.17 25.2408L1594.33 8.81726H1597.6Z" fill="#292929" fill-opacity="0.2" />
    <path d="M1623.07 55.5509L1609.95 33.5861L1606.69 38.66V55.5509H1603.56V8.81726H1606.69V33.5193L1622.19 8.81726H1625.45L1611.86 30.5818L1626.33 55.5509H1623.07Z" fill="#292929" fill-opacity="0.2" />
    <path d="M1658.3 61.8265H1655.24V55.5509L1633.29 55.5509V8.81726L1636.35 8.81726V52.7468L1651.16 52.7468V8.81726L1654.36 8.81726V52.7468H1658.3V61.8265Z" fill="#292929" fill-opacity="0.2" />
    <path d="M1683.05 14.225L1675.91 33.5861L1668.09 55.5509H1664.69V8.81726H1667.55V48.8079L1674.48 29.7139L1682.16 8.81726H1685.9V55.5509H1683.05V14.225Z" fill="#292929" fill-opacity="0.2" />
    <path d="M1695.73 30.4482L1708.71 30.4482V33.2523H1695.73V52.7468H1711.36V55.5509H1692.6V8.81726L1711.36 8.81726V11.6213L1695.73 11.6213V30.4482Z" fill="#292929" fill-opacity="0.2" />
    <path d="M1733.49 0.00463867L1735.6 0.00463867C1735.56 1.74046 1734.9 3.12021 1733.63 4.1439C1732.36 5.16759 1730.73 5.67943 1728.74 5.67943C1726.74 5.67943 1725.11 5.18984 1723.84 4.21066C1722.62 3.18697 1721.98 1.78496 1721.94 0.00463867L1724.11 0.00463867C1724.16 1.25087 1724.61 2.18554 1725.47 2.80865C1726.33 3.38726 1727.42 3.67656 1728.74 3.67656C1731.77 3.67656 1733.36 2.45259 1733.49 0.00463867ZM1736.14 14.225L1729.35 32.7849L1721.19 55.5509H1717.79V8.81726H1720.65V48.8079L1726.83 31.7835L1735.26 8.81726H1739V55.5509H1736.14V14.225Z" fill="#292929" fill-opacity="0.2" />
  </g>
</svg>