<svg width="343" height="50" viewBox="0 0 343 50" fill="none" xmlns="http://www.w3.org/2000/svg">
<g clip-path="url(#clip0_127_3234)">
<g opacity="0.7">
<path d="M60.0405 5.39553L57.5167 11.7156L54.7526 18.8856H53.5508V3.63027H54.5603V16.6844L57.012 10.4516L59.728 3.63027L61.05 3.63027V18.8856H60.0405V5.39553Z" fill="#292929" fill-opacity="0.2"/>
<path d="M72.5782 5.33015L69.069 18.8638H67.9633L64.406 5.37373V18.8856H63.4205V3.63027H65.0069L68.5402 17.1203L72.0494 3.63027H73.6358V18.8856H72.5782V5.33015Z" fill="#292929" fill-opacity="0.2"/>
<path d="M77.1422 10.6913H81.7331V11.6066L77.1422 11.6066V17.9703L82.6705 17.9703V18.8856L76.0366 18.8856V3.63027L82.6705 3.63027V4.54559L77.1422 4.54559V10.6913Z" fill="#292929" fill-opacity="0.2"/>
<path d="M92.6595 3.49951C93.8933 3.49951 94.8147 3.8482 95.4236 4.54559C96.0485 5.24297 96.361 6.18009 96.361 7.35692V15.1589C96.361 16.3358 96.0485 17.2729 95.4236 17.9703C94.8147 18.6676 93.8933 19.0163 92.6595 19.0163C91.4096 19.0163 90.4802 18.6676 89.8713 17.9703C89.2624 17.2729 88.9579 16.3358 88.9579 15.1589V11.7156H86.0496V18.8856H84.9439V3.63027L86.0496 3.63027V10.8003H88.9579V7.35692C88.9579 6.18009 89.2624 5.24297 89.8713 4.54559C90.4802 3.8482 91.4096 3.49951 92.6595 3.49951ZM92.6595 4.41483C90.9289 4.41483 90.0636 5.37373 90.0636 7.29154V15.2243C90.0636 17.1421 90.9289 18.101 92.6595 18.101C93.5408 18.101 94.1898 17.8468 94.6064 17.3382C95.039 16.8152 95.2553 16.1106 95.2553 15.2243V7.29154C95.2553 6.40528 95.039 5.7079 94.6064 5.19939C94.1898 4.67635 93.5408 4.41483 92.6595 4.41483Z" fill="#292929" fill-opacity="0.2"/>
<path d="M102.941 18.8856H101.835V4.54559L98.3982 4.54559V3.63027L106.378 3.63027V4.54559L102.941 4.54559V18.8856Z" fill="#292929" fill-opacity="0.2"/>
<path d="M109.303 4.56738C109.896 3.85547 110.809 3.49951 112.043 3.49951C113.277 3.49951 114.191 3.85547 114.783 4.56738C115.376 5.26477 115.673 6.19461 115.673 7.35692V8.62093H114.615V7.29154C114.615 6.41981 114.407 5.72243 113.99 5.19939C113.59 4.67635 112.949 4.41483 112.067 4.41483C111.186 4.41483 110.537 4.67635 110.12 5.19939C109.72 5.72243 109.52 6.41981 109.52 7.29154V15.2243C109.52 17.1276 110.369 18.0792 112.067 18.0792C113.766 18.0792 114.615 17.1276 114.615 15.2243V13.4155H115.673V15.1589C115.673 16.3212 115.376 17.2583 114.783 17.9703C114.191 18.6676 113.277 19.0163 112.043 19.0163C110.809 19.0163 109.896 18.6676 109.303 17.9703C108.71 17.2583 108.414 16.3212 108.414 15.1589V7.35692C108.414 6.19461 108.71 5.26477 109.303 4.56738Z" fill="#292929" fill-opacity="0.2"/>
<path d="M124.206 12.0643H122.451C121.41 12.0643 120.625 12.2604 120.096 12.6527C119.567 13.0304 119.303 13.6988 119.303 14.6577V17.0549C119.303 17.8976 119.183 18.5078 118.942 18.8856H117.788C118.061 18.5078 118.197 17.8976 118.197 17.0549V14.6795C118.197 12.9215 119.006 11.8827 120.625 11.563C119.006 11.2289 118.197 10.1755 118.197 8.403V7.07361C118.197 4.77805 119.399 3.63027 121.802 3.63027L125.312 3.63027V18.8856H124.206V12.0643ZM124.206 4.54559L121.826 4.54559C120.144 4.54559 119.303 5.41732 119.303 7.16078V8.59914C119.303 9.57257 119.559 10.2409 120.072 10.6041C120.585 10.9673 121.37 11.149 122.427 11.149H124.206V4.54559Z" fill="#292929" fill-opacity="0.2"/>
<path d="M138.267 4.54559L133.028 4.54559V18.8856H131.922V3.63027L139.397 3.63027V18.8856H138.267V4.54559Z" fill="#292929" fill-opacity="0.2"/>
<path d="M141.792 3.63027L145.277 3.63027C147.68 3.63027 148.882 4.86522 148.882 7.33513V8.99142C148.882 11.4032 147.584 12.6091 144.988 12.6091H142.897V18.8856H141.792V3.63027ZM142.897 11.6938H144.988C145.966 11.6938 146.671 11.4904 147.104 11.0836C147.552 10.6622 147.777 9.98665 147.777 9.0568V7.26975C147.777 5.45364 146.943 4.54559 145.277 4.54559H142.897V11.6938Z" fill="#292929" fill-opacity="0.2"/>
<path d="M150.956 15.1589V7.35692C150.956 6.19461 151.26 5.26477 151.869 4.56738C152.494 3.85547 153.415 3.49951 154.633 3.49951C155.883 3.49951 156.812 3.8482 157.421 4.54559C158.046 5.24297 158.359 6.18009 158.359 7.35692V15.1589C158.359 16.3358 158.046 17.2729 157.421 17.9703C156.812 18.6676 155.883 19.0163 154.633 19.0163C153.415 19.0163 152.494 18.6676 151.869 17.9703C151.26 17.2583 150.956 16.3212 150.956 15.1589ZM152.061 7.29154V15.2243C152.061 16.1106 152.27 16.8152 152.686 17.3382C153.103 17.8468 153.752 18.101 154.633 18.101C155.53 18.101 156.187 17.8468 156.604 17.3382C157.037 16.8152 157.253 16.1106 157.253 15.2243V7.29154C157.253 6.40528 157.037 5.7079 156.604 5.19939C156.187 4.67635 155.53 4.41483 154.633 4.41483C153.752 4.41483 153.103 4.67635 152.686 5.19939C152.27 5.7079 152.061 6.40528 152.061 7.29154Z" fill="#292929" fill-opacity="0.2"/>
<path d="M164.917 18.8856H163.811V4.54559L160.374 4.54559V3.63027L168.354 3.63027V4.54559L164.917 4.54559V18.8856Z" fill="#292929" fill-opacity="0.2"/>
<path d="M176.952 5.39553L174.428 11.7156L171.664 18.8856H170.462V3.63027L171.472 3.63027V16.6844L173.923 10.4516L176.639 3.63027H177.961V18.8856H176.952V5.39553Z" fill="#292929" fill-opacity="0.2"/>
<path d="M180.332 3.63027L183.865 3.63027C185.099 3.63027 185.98 3.89905 186.509 4.43662C187.038 4.97419 187.302 5.78781 187.302 6.87747V7.7492C187.302 8.62093 187.134 9.30379 186.797 9.79777C186.477 10.2772 185.908 10.5969 185.091 10.7567C186.773 11.0618 187.615 12.1514 187.615 14.0257V15.3551C187.615 17.7087 186.389 18.8856 183.937 18.8856H180.332V3.63027ZM181.437 10.3644H183.312C184.338 10.3644 185.075 10.1973 185.524 9.86315C185.972 9.51446 186.197 8.87519 186.197 7.94534V6.96464C186.197 6.1365 186.02 5.52629 185.668 5.13401C185.315 4.74173 184.706 4.54559 183.841 4.54559L181.437 4.54559V10.3644ZM181.437 17.9703H183.937C185.652 17.9703 186.509 17.0913 186.509 15.3333V13.9603C186.509 12.9869 186.269 12.2967 185.788 11.8899C185.307 11.4831 184.554 11.2797 183.529 11.2797H181.437V17.9703Z" fill="#292929" fill-opacity="0.2"/>
<path d="M189.824 15.1589V7.35692C189.824 6.19461 190.129 5.26477 190.738 4.56738C191.363 3.85547 192.284 3.49951 193.502 3.49951C194.752 3.49951 195.681 3.8482 196.29 4.54559C196.915 5.24297 197.227 6.18009 197.227 7.35692V15.1589C197.227 16.3358 196.915 17.2729 196.29 17.9703C195.681 18.6676 194.752 19.0163 193.502 19.0163C192.284 19.0163 191.363 18.6676 190.738 17.9703C190.129 17.2583 189.824 16.3212 189.824 15.1589ZM190.93 7.29154V15.2243C190.93 16.1106 191.138 16.8152 191.555 17.3382C191.971 17.8468 192.62 18.101 193.502 18.101C194.399 18.101 195.056 17.8468 195.473 17.3382C195.905 16.8152 196.122 16.1106 196.122 15.2243V7.29154C196.122 6.40528 195.905 5.7079 195.473 5.19939C195.056 4.67635 194.399 4.41483 193.502 4.41483C192.62 4.41483 191.971 4.67635 191.555 5.19939C191.138 5.7079 190.93 6.40528 190.93 7.29154Z" fill="#292929" fill-opacity="0.2"/>
<path d="M205.877 4.54559L200.637 4.54559V18.8856H199.531V3.63027L207.007 3.63027V18.8856H205.877V4.54559Z" fill="#292929" fill-opacity="0.2"/>
<path d="M209.329 15.1589V7.35692C209.329 6.19461 209.633 5.26477 210.242 4.56738C210.867 3.85547 211.789 3.49951 213.007 3.49951C214.256 3.49951 215.186 3.8482 215.795 4.54559C216.42 5.24297 216.732 6.18009 216.732 7.35692V15.1589C216.732 16.3358 216.42 17.2729 215.795 17.9703C215.186 18.6676 214.256 19.0163 213.007 19.0163C211.789 19.0163 210.867 18.6676 210.242 17.9703C209.633 17.2583 209.329 16.3212 209.329 15.1589ZM210.435 7.29154V15.2243C210.435 16.1106 210.643 16.8152 211.06 17.3382C211.476 17.8468 212.125 18.101 213.007 18.101C213.904 18.101 214.561 17.8468 214.977 17.3382C215.41 16.8152 215.626 16.1106 215.626 15.2243V7.29154C215.626 6.40528 215.41 5.7079 214.977 5.19939C214.561 4.67635 213.904 4.41483 213.007 4.41483C212.125 4.41483 211.476 4.67635 211.06 5.19939C210.643 5.7079 210.435 6.40528 210.435 7.29154Z" fill="#292929" fill-opacity="0.2"/>
<path d="M225.934 18.8856L221.296 11.7156L220.142 13.3719V18.8856H219.036V3.63027H220.142V11.6938L225.622 3.63027L226.776 3.63027L221.969 10.7349L227.088 18.8856H225.934Z" fill="#292929" fill-opacity="0.2"/>
<path d="M236.085 15.5076L230.845 15.5076L230.004 18.8856H228.994L232.672 3.60848H234.282L238.032 18.8856H236.926L236.085 15.5076ZM233.441 4.76352L231.013 14.6359L235.917 14.6359L233.441 4.76352Z" fill="#292929" fill-opacity="0.2"/>
<path d="M241.025 4.54559C241.618 3.8482 242.532 3.49951 243.765 3.49951C244.999 3.49951 245.913 3.8482 246.505 4.54559C247.098 5.24297 247.395 6.18009 247.395 7.35692V7.7492C247.395 8.5047 247.194 9.16577 246.794 9.73239C246.393 10.2845 245.832 10.6695 245.111 10.8874C245.864 11.0763 246.433 11.4468 246.818 11.9989C247.202 12.551 247.395 13.2121 247.395 13.9821V15.1589C247.395 16.3358 247.098 17.2729 246.505 17.9703C245.913 18.6676 244.999 19.0163 243.765 19.0163C242.532 19.0163 241.618 18.6676 241.025 17.9703C240.432 17.2729 240.136 16.3358 240.136 15.1589V13.8949H241.194V15.2243C241.194 16.096 241.394 16.7934 241.794 17.3165C242.211 17.8395 242.86 18.101 243.741 18.101C245.44 18.101 246.289 17.113 246.289 15.1371V13.9603C246.289 13.1757 246.057 12.551 245.592 12.0861C245.127 11.6211 244.494 11.3887 243.693 11.3887H242.756V10.4734H243.765C244.502 10.4734 245.103 10.2336 245.568 9.75418C246.049 9.2602 246.289 8.65726 246.289 7.94534V7.37872C246.289 5.40279 245.44 4.41483 243.741 4.41483C242.86 4.41483 242.211 4.67635 241.794 5.19939C241.378 5.7079 241.169 6.40528 241.169 7.29154V8.11969H240.16V7.33513C240.16 6.15829 240.448 5.22845 241.025 4.54559Z" fill="#292929" fill-opacity="0.2"/>
<path d="M256.599 15.5076H251.359L250.518 18.8856H249.508L253.186 3.60848L254.796 3.60848L258.546 18.8856L257.44 18.8856L256.599 15.5076ZM253.955 4.76352L251.527 14.6359H256.431L253.955 4.76352Z" fill="#292929" fill-opacity="0.2"/>
<path d="M267.044 11.7156H261.804V18.8856H260.698V3.63027H261.804V10.8003L267.044 10.8003V3.63027L268.173 3.63027V18.8856H267.044V11.7156Z" fill="#292929" fill-opacity="0.2"/>
<path d="M277.058 5.39553L274.534 11.7156L271.77 18.8856H270.568V3.63027H271.577V16.6844L274.029 10.4516L276.745 3.63027H278.067V18.8856H277.058V5.39553Z" fill="#292929" fill-opacity="0.2"/>
<path d="M286.687 12.0643H284.932C283.891 12.0643 283.106 12.2604 282.577 12.6527C282.048 13.0304 281.784 13.6988 281.784 14.6577V17.0549C281.784 17.8976 281.663 18.5078 281.423 18.8856H280.269C280.542 18.5078 280.678 17.8976 280.678 17.0549V14.6795C280.678 12.9215 281.487 11.8827 283.106 11.563C281.487 11.2289 280.678 10.1755 280.678 8.403V7.07361C280.678 4.77805 281.88 3.63027 284.283 3.63027L287.793 3.63027V18.8856H286.687V12.0643ZM286.687 4.54559H284.307C282.625 4.54559 281.784 5.41732 281.784 7.16078V8.59914C281.784 9.57257 282.04 10.2409 282.553 10.6041C283.066 10.9673 283.851 11.149 284.908 11.149H286.687V4.54559Z" fill="#292929" fill-opacity="0.2"/>
<path d="M300.748 11.7156H295.508V18.8856H294.403V3.63027L295.508 3.63027V10.8003H300.748V3.63027H301.878V18.8856H300.748V11.7156Z" fill="#292929" fill-opacity="0.2"/>
<path d="M305.378 10.6913H309.969V11.6066H305.378V17.9703H310.907V18.8856H304.273V3.63027L310.907 3.63027V4.54559H305.378V10.6913Z" fill="#292929" fill-opacity="0.2"/>
<path d="M313.108 15.1589V7.35692C313.108 6.19461 313.412 5.26477 314.021 4.56738C314.646 3.85547 315.568 3.49951 316.785 3.49951C318.035 3.49951 318.965 3.8482 319.574 4.54559C320.198 5.24297 320.511 6.18009 320.511 7.35692V15.1589C320.511 16.3358 320.198 17.2729 319.574 17.9703C318.965 18.6676 318.035 19.0163 316.785 19.0163C315.568 19.0163 314.646 18.6676 314.021 17.9703C313.412 17.2583 313.108 16.3212 313.108 15.1589ZM314.214 7.29154V15.2243C314.214 16.1106 314.422 16.8152 314.838 17.3382C315.255 17.8468 315.904 18.101 316.785 18.101C317.683 18.101 318.34 17.8468 318.756 17.3382C319.189 16.8152 319.405 16.1106 319.405 15.2243V7.29154C319.405 6.40528 319.189 5.7079 318.756 5.19939C318.34 4.67635 317.683 4.41483 316.785 4.41483C315.904 4.41483 315.255 4.67635 314.838 5.19939C314.422 5.7079 314.214 6.40528 314.214 7.29154Z" fill="#292929" fill-opacity="0.2"/>
<path d="M323.921 10.1247H326.324C327.654 10.1247 328.64 10.3935 329.281 10.931C329.922 11.4686 330.242 12.3331 330.242 13.5244V15.2461C330.242 17.6724 329 18.8856 326.517 18.8856H322.815V3.63027L329.617 3.63027V4.54559L323.921 4.54559V10.1247ZM323.921 17.9703H326.517C328.263 17.9703 329.136 17.084 329.136 15.3115V13.459C329.136 12.5583 328.912 11.9335 328.463 11.5848C328.015 11.2361 327.302 11.0618 326.324 11.0618H323.921V17.9703Z" fill="#292929" fill-opacity="0.2"/>
<path d="M340.282 18.8856L336.869 11.781L333.456 18.8856H332.375L336.172 10.9746L332.639 3.63027L333.793 3.63027L336.965 10.19L340.162 3.63027H341.22L337.686 10.9746L341.46 18.8856H340.282Z" fill="#292929" fill-opacity="0.2"/>
<path d="M343.586 15.1589V7.35692C343.586 6.19461 343.89 5.26477 344.499 4.56738C345.124 3.85547 346.045 3.49951 347.263 3.49951C348.513 3.49951 349.442 3.8482 350.051 4.54559C350.676 5.24297 350.989 6.18009 350.989 7.35692V15.1589C350.989 16.3358 350.676 17.2729 350.051 17.9703C349.442 18.6676 348.513 19.0163 347.263 19.0163C346.045 19.0163 345.124 18.6676 344.499 17.9703C343.89 17.2583 343.586 16.3212 343.586 15.1589ZM344.691 7.29154V15.2243C344.691 16.1106 344.9 16.8152 345.316 17.3382C345.733 17.8468 346.382 18.101 347.263 18.101C348.16 18.101 348.817 17.8468 349.234 17.3382C349.667 16.8152 349.883 16.1106 349.883 15.2243V7.29154C349.883 6.40528 349.667 5.7079 349.234 5.19939C348.817 4.67635 348.16 4.41483 347.263 4.41483C346.382 4.41483 345.733 4.67635 345.316 5.19939C344.9 5.7079 344.691 6.40528 344.691 7.29154Z" fill="#292929" fill-opacity="0.2"/>
<path d="M363.292 20.9995H362.186V18.8856H354.158V20.9995H353.076V17.9703H354.23C354.727 17.4908 355.007 16.6772 355.071 15.5294L355.744 3.63027L361.898 3.63027V17.9703H363.292V20.9995ZM356.778 4.54559L356.153 15.5294C356.073 16.7208 355.808 17.5344 355.36 17.9703H360.768V4.54559L356.778 4.54559Z" fill="#292929" fill-opacity="0.2"/>
<path d="M372.023 5.39553L369.499 11.7156L366.735 18.8856H365.533V3.63027H366.543V16.6844L368.994 10.4516L371.71 3.63027L373.032 3.63027V18.8856H372.023V5.39553Z" fill="#292929" fill-opacity="0.2"/>
<path d="M384.561 5.33015L381.051 18.8638H379.946L376.388 5.37373V18.8856H375.403V3.63027H376.989L380.523 17.1203L384.032 3.63027H385.618V18.8856H384.561V5.33015Z" fill="#292929" fill-opacity="0.2"/>
<path d="M387.947 15.1589V7.35692C387.947 6.19461 388.251 5.26477 388.86 4.56738C389.485 3.85547 390.407 3.49951 391.624 3.49951C392.874 3.49951 393.804 3.8482 394.413 4.54559C395.037 5.24297 395.35 6.18009 395.35 7.35692V15.1589C395.35 16.3358 395.037 17.2729 394.413 17.9703C393.804 18.6676 392.874 19.0163 391.624 19.0163C390.407 19.0163 389.485 18.6676 388.86 17.9703C388.251 17.2583 387.947 16.3212 387.947 15.1589ZM389.053 7.29154V15.2243C389.053 16.1106 389.261 16.8152 389.677 17.3382C390.094 17.8468 390.743 18.101 391.624 18.101C392.522 18.101 393.179 17.8468 393.595 17.3382C394.028 16.8152 394.244 16.1106 394.244 15.2243V7.29154C394.244 6.40528 394.028 5.7079 393.595 5.19939C393.179 4.67635 392.522 4.41483 391.624 4.41483C390.743 4.41483 390.094 4.67635 389.677 5.19939C389.261 5.7079 389.053 6.40528 389.053 7.29154Z" fill="#292929" fill-opacity="0.2"/>
<path d="M401.795 15.1589V7.35692C401.795 6.19461 402.099 5.26477 402.708 4.56738C403.333 3.85547 404.254 3.49951 405.472 3.49951C406.722 3.49951 407.651 3.8482 408.26 4.54559C408.885 5.24297 409.198 6.18009 409.198 7.35692V15.1589C409.198 16.3358 408.885 17.2729 408.26 17.9703C407.651 18.6676 406.722 19.0163 405.472 19.0163C404.254 19.0163 403.333 18.6676 402.708 17.9703C402.099 17.2583 401.795 16.3212 401.795 15.1589ZM402.9 7.29154V15.2243C402.9 16.1106 403.109 16.8152 403.525 17.3382C403.942 17.8468 404.591 18.101 405.472 18.101C406.37 18.101 407.027 17.8468 407.443 17.3382C407.876 16.8152 408.092 16.1106 408.092 15.2243V7.29154C408.092 6.40528 407.876 5.7079 407.443 5.19939C407.027 4.67635 406.37 4.41483 405.472 4.41483C404.591 4.41483 403.942 4.67635 403.525 5.19939C403.109 5.7079 402.9 6.40528 402.9 7.29154Z" fill="#292929" fill-opacity="0.2"/>
<path d="M412.343 4.54559C412.936 3.8482 413.849 3.49951 415.083 3.49951C416.317 3.49951 417.23 3.8482 417.823 4.54559C418.416 5.24297 418.713 6.18009 418.713 7.35692V7.7492C418.713 8.5047 418.512 9.16577 418.112 9.73239C417.711 10.2845 417.15 10.6695 416.429 10.8874C417.182 11.0763 417.751 11.4468 418.136 11.9989C418.52 12.551 418.713 13.2121 418.713 13.9821V15.1589C418.713 16.3358 418.416 17.2729 417.823 17.9703C417.23 18.6676 416.317 19.0163 415.083 19.0163C413.849 19.0163 412.936 18.6676 412.343 17.9703C411.75 17.2729 411.454 16.3358 411.454 15.1589V13.8949H412.511V15.2243C412.511 16.096 412.712 16.7934 413.112 17.3165C413.529 17.8395 414.178 18.101 415.059 18.101C416.758 18.101 417.607 17.113 417.607 15.1371V13.9603C417.607 13.1757 417.375 12.551 416.91 12.0861C416.445 11.6211 415.812 11.3887 415.011 11.3887H414.074V10.4734H415.083C415.82 10.4734 416.421 10.2336 416.886 9.75418C417.367 9.2602 417.607 8.65726 417.607 7.94534V7.37872C417.607 5.40279 416.758 4.41483 415.059 4.41483C414.178 4.41483 413.529 4.67635 413.112 5.19939C412.696 5.7079 412.487 6.40528 412.487 7.29154V8.11969H411.478V7.33513C411.478 6.15829 411.766 5.22845 412.343 4.54559Z" fill="#292929" fill-opacity="0.2"/>
<path d="M427.412 11.7156L422.172 11.7156V18.8856H421.066V3.63027L422.172 3.63027V10.8003H427.412V3.63027L428.542 3.63027V18.8856H427.412V11.7156Z" fill="#292929" fill-opacity="0.2"/>
<path d="M437.786 15.5076L432.547 15.5076L431.705 18.8856H430.696L434.373 3.60848H435.984L439.733 18.8856H438.628L437.786 15.5076ZM435.143 4.76352L432.715 14.6359L437.618 14.6359L435.143 4.76352Z" fill="#292929" fill-opacity="0.2"/>
<path d="M448.784 18.8856L444.145 11.7156L442.991 13.3719V18.8856H441.886V3.63027H442.991V11.6938L448.472 3.63027H449.625L444.818 10.7349L449.938 18.8856H448.784Z" fill="#292929" fill-opacity="0.2"/>
<path d="M452.012 15.1589V7.35692C452.012 6.19461 452.316 5.26477 452.925 4.56738C453.55 3.85547 454.472 3.49951 455.689 3.49951C456.939 3.49951 457.869 3.8482 458.478 4.54559C459.103 5.24297 459.415 6.18009 459.415 7.35692V15.1589C459.415 16.3358 459.103 17.2729 458.478 17.9703C457.869 18.6676 456.939 19.0163 455.689 19.0163C454.472 19.0163 453.55 18.6676 452.925 17.9703C452.316 17.2583 452.012 16.3212 452.012 15.1589ZM453.118 7.29154V15.2243C453.118 16.1106 453.326 16.8152 453.743 17.3382C454.159 17.8468 454.808 18.101 455.689 18.101C456.587 18.101 457.244 17.8468 457.66 17.3382C458.093 16.8152 458.309 16.1106 458.309 15.2243V7.29154C458.309 6.40528 458.093 5.7079 457.66 5.19939C457.244 4.67635 456.587 4.41483 455.689 4.41483C454.808 4.41483 454.159 4.67635 453.743 5.19939C453.326 5.7079 453.118 6.40528 453.118 7.29154Z" fill="#292929" fill-opacity="0.2"/>
<path d="M470.877 5.33015L467.368 18.8638H466.262L462.705 5.37373V18.8856H461.719V3.63027H463.305L466.839 17.1203L470.348 3.63027L471.934 3.63027V18.8856H470.877V5.33015Z" fill="#292929" fill-opacity="0.2"/>
<path d="M480.825 5.39553L478.301 11.7156L475.537 18.8856H474.335V3.63027L475.345 3.63027V16.6844L477.796 10.4516L480.512 3.63027H481.834V18.8856H480.825V5.39553Z" fill="#292929" fill-opacity="0.2"/>
<path d="M488.459 18.8856H487.354V4.54559H483.916V3.63027L491.896 3.63027V4.54559H488.459V18.8856Z" fill="#292929" fill-opacity="0.2"/>
<path d="M495.11 9.90674H497.177C498.507 9.90674 499.492 10.2046 500.133 10.8003C500.774 11.3959 501.095 12.304 501.095 13.5244V15.1807C501.095 17.6506 499.885 18.8856 497.465 18.8856H494.004V3.63027H495.11V9.90674ZM495.11 17.9703H497.465C499.148 17.9703 499.989 17.0622 499.989 15.2461V13.459C499.989 12.5292 499.765 11.8609 499.316 11.4541C498.867 11.0327 498.154 10.8221 497.177 10.8221H495.11V17.9703Z" fill="#292929" fill-opacity="0.2"/>
<path d="M504.198 4.56738C504.791 3.85547 505.704 3.49951 506.938 3.49951C508.172 3.49951 509.086 3.85547 509.678 4.56738C510.271 5.26477 510.568 6.19461 510.568 7.35692V8.62093H509.51V7.29154C509.51 6.41981 509.302 5.72243 508.885 5.19939C508.485 4.67635 507.844 4.41483 506.962 4.41483C506.081 4.41483 505.432 4.67635 505.015 5.19939C504.615 5.72243 504.415 6.41981 504.415 7.29154V15.2243C504.415 17.1276 505.264 18.0792 506.962 18.0792C508.661 18.0792 509.51 17.1276 509.51 15.2243V13.4155H510.568V15.1589C510.568 16.3212 510.271 17.2583 509.678 17.9703C509.086 18.6676 508.172 19.0163 506.938 19.0163C505.704 19.0163 504.791 18.6676 504.198 17.9703C503.605 17.2583 503.309 16.3212 503.309 15.1589V7.35692C503.309 6.19461 503.605 5.26477 504.198 4.56738Z" fill="#292929" fill-opacity="0.2"/>
<path d="M519.101 12.0643H517.346C516.305 12.0643 515.52 12.2604 514.991 12.6527C514.462 13.0304 514.198 13.6988 514.198 14.6577V17.0549C514.198 17.8976 514.078 18.5078 513.837 18.8856H512.684C512.956 18.5078 513.092 17.8976 513.092 17.0549V14.6795C513.092 12.9215 513.901 11.8827 515.52 11.563C513.901 11.2289 513.092 10.1755 513.092 8.403V7.07361C513.092 4.77805 514.294 3.63027 516.698 3.63027L520.207 3.63027V18.8856H519.101V12.0643ZM519.101 4.54559H516.722C515.039 4.54559 514.198 5.41732 514.198 7.16078V8.59914C514.198 9.57257 514.454 10.2409 514.967 10.6041C515.48 10.9673 516.265 11.149 517.322 11.149H519.101V4.54559Z" fill="#292929" fill-opacity="0.2"/>
</g>
</g>
<g clip-path="url(#clip1_127_3234)">
<g opacity="0.7">
<path d="M-222.361 30.601L-224.788 37.57L-227.446 45.4763H-228.602V28.6544H-227.631V43.0491L-225.273 36.1762L-222.661 28.6544H-221.39V45.4763H-222.361V30.601Z" fill="#292929" fill-opacity="0.2"/>
<path d="M-210.303 30.5289L-213.678 45.4523H-214.741L-218.162 30.5769V45.4763H-219.11V28.6544L-217.585 28.6544L-214.187 43.5298L-210.812 28.6544H-209.286V45.4763H-210.303V30.5289Z" fill="#292929" fill-opacity="0.2"/>
<path d="M-205.914 36.4406H-201.499V37.4499L-205.914 37.4499V44.467L-200.598 44.467V45.4763H-206.977V28.6544H-200.598V29.6638H-205.914V36.4406Z" fill="#292929" fill-opacity="0.2"/>
<path d="M-190.991 28.5103C-189.805 28.5103 -188.919 28.8948 -188.333 29.6638C-187.732 30.4328 -187.432 31.4661 -187.432 32.7638V41.367C-187.432 42.6646 -187.732 43.698 -188.333 44.467C-188.919 45.236 -189.805 45.6205 -190.991 45.6205C-192.193 45.6205 -193.087 45.236 -193.673 44.467C-194.258 43.698 -194.551 42.6646 -194.551 41.367V37.57H-197.348V45.4763H-198.411V28.6544H-197.348V36.5607H-194.551V32.7638C-194.551 31.4661 -194.258 30.4328 -193.673 29.6638C-193.087 28.8948 -192.193 28.5103 -190.991 28.5103ZM-190.991 29.5196C-192.656 29.5196 -193.488 30.5769 -193.488 32.6917V41.4391C-193.488 43.5538 -192.656 44.6112 -190.991 44.6112C-190.144 44.6112 -189.52 44.3308 -189.119 43.7701C-188.703 43.1933 -188.495 42.4163 -188.495 41.4391V32.6917C-188.495 31.7144 -188.703 30.9454 -189.119 30.3847C-189.52 29.8079 -190.144 29.5196 -190.991 29.5196Z" fill="#292929" fill-opacity="0.2"/>
<path d="M-181.104 45.4763H-182.167V29.6638H-185.472V28.6544L-177.798 28.6544V29.6638L-181.104 29.6638V45.4763Z" fill="#292929" fill-opacity="0.2"/>
<path d="M-174.985 29.6878C-174.415 28.9028 -173.537 28.5103 -172.35 28.5103C-171.164 28.5103 -170.285 28.9028 -169.715 29.6878C-169.145 30.4568 -168.86 31.4821 -168.86 32.7638V34.1576H-169.877V32.6917C-169.877 31.7304 -170.077 30.9614 -170.478 30.3847C-170.863 29.8079 -171.479 29.5196 -172.327 29.5196C-173.175 29.5196 -173.799 29.8079 -174.199 30.3847C-174.585 30.9614 -174.777 31.7304 -174.777 32.6917V41.4391C-174.777 43.5378 -173.96 44.5871 -172.327 44.5871C-170.694 44.5871 -169.877 43.5378 -169.877 41.4391V39.4445H-168.86V41.367C-168.86 42.6486 -169.145 43.682 -169.715 44.467C-170.285 45.236 -171.164 45.6205 -172.35 45.6205C-173.537 45.6205 -174.415 45.236 -174.985 44.467C-175.555 43.682 -175.84 42.6486 -175.84 41.367V32.7638C-175.84 31.4821 -175.555 30.4568 -174.985 29.6878Z" fill="#292929" fill-opacity="0.2"/>
<path d="M-160.653 37.9545H-162.341C-163.342 37.9545 -164.097 38.1708 -164.606 38.6034C-165.115 39.0199 -165.369 39.7569 -165.369 40.8142V43.4577C-165.369 44.3869 -165.484 45.0598 -165.716 45.4763H-166.825C-166.563 45.0598 -166.432 44.3869 -166.432 43.4577V40.8383C-166.432 38.8998 -165.654 37.7543 -164.097 37.4018C-165.654 37.0333 -166.432 35.8718 -166.432 33.9173V32.4514C-166.432 29.9201 -165.276 28.6544 -162.965 28.6544L-159.59 28.6544V45.4763H-160.653V37.9545ZM-160.653 29.6638L-162.942 29.6638C-164.56 29.6638 -165.369 30.625 -165.369 32.5475V34.1336C-165.369 35.207 -165.122 35.9439 -164.629 36.3444C-164.136 36.745 -163.381 36.9452 -162.364 36.9452H-160.653V29.6638Z" fill="#292929" fill-opacity="0.2"/>
<path d="M-147.131 29.6638H-152.17V45.4763H-153.233V28.6544H-146.044V45.4763H-147.131V29.6638Z" fill="#292929" fill-opacity="0.2"/>
<path d="M-143.741 28.6544L-140.39 28.6544C-138.078 28.6544 -136.922 30.0162 -136.922 32.7397V34.5661C-136.922 37.2256 -138.171 38.5553 -140.667 38.5553H-142.678V45.4763H-143.741V28.6544ZM-142.678 37.546H-140.667C-139.727 37.546 -139.049 37.3217 -138.633 36.8731C-138.201 36.4085 -137.986 35.6635 -137.986 34.6382V32.6677C-137.986 30.6651 -138.787 29.6638 -140.39 29.6638L-142.678 29.6638V37.546Z" fill="#292929" fill-opacity="0.2"/>
<path d="M-134.929 41.367V32.7638C-134.929 31.4821 -134.636 30.4568 -134.05 29.6878C-133.449 28.9028 -132.563 28.5103 -131.392 28.5103C-130.19 28.5103 -129.296 28.8948 -128.711 29.6638C-128.11 30.4328 -127.809 31.4661 -127.809 32.7638V41.367C-127.809 42.6646 -128.11 43.698 -128.711 44.467C-129.296 45.236 -130.19 45.6205 -131.392 45.6205C-132.563 45.6205 -133.449 45.236 -134.05 44.467C-134.636 43.682 -134.929 42.6486 -134.929 41.367ZM-133.865 32.6917V41.4391C-133.865 42.4163 -133.665 43.1933 -133.264 43.7701C-132.864 44.3308 -132.239 44.6112 -131.392 44.6112C-130.529 44.6112 -129.897 44.3308 -129.497 43.7701C-129.08 43.1933 -128.872 42.4163 -128.872 41.4391V32.6917C-128.872 31.7144 -129.08 30.9454 -129.497 30.3847C-129.897 29.8079 -130.529 29.5196 -131.392 29.5196C-132.239 29.5196 -132.864 29.8079 -133.264 30.3847C-133.665 30.9454 -133.865 31.7144 -133.865 32.6917Z" fill="#292929" fill-opacity="0.2"/>
<path d="M-121.502 45.4763H-122.565V29.6638L-125.871 29.6638V28.6544L-118.196 28.6544V29.6638H-121.502V45.4763Z" fill="#292929" fill-opacity="0.2"/>
<path d="M-109.928 30.601L-112.355 37.57L-115.014 45.4763H-116.169V28.6544H-115.199V43.0491L-112.841 36.1762L-110.229 28.6544H-108.957V45.4763H-109.928V30.601Z" fill="#292929" fill-opacity="0.2"/>
<path d="M-106.678 28.6544L-103.28 28.6544C-102.093 28.6544 -101.246 28.9508 -100.737 29.5436C-100.229 30.1364 -99.9744 31.0335 -99.9744 32.2351V33.1963C-99.9744 34.1576 -100.136 34.9106 -100.46 35.4553C-100.768 35.984 -101.315 36.3364 -102.101 36.5127C-100.483 36.8491 -99.6739 38.0507 -99.6739 40.1173V41.5832C-99.6739 44.1786 -100.853 45.4763 -103.21 45.4763L-106.678 45.4763V28.6544ZM-105.614 36.0801H-103.811C-102.825 36.0801 -102.116 35.8959 -101.685 35.5274C-101.253 35.1429 -101.038 34.438 -101.038 33.4126V32.3312C-101.038 31.418 -101.207 30.7452 -101.546 30.3126C-101.885 29.88 -102.471 29.6638 -103.303 29.6638H-105.614V36.0801ZM-105.614 44.467H-103.21C-101.562 44.467 -100.737 43.4977 -100.737 41.5592V40.0452C-100.737 38.9718 -100.968 38.2109 -101.431 37.7623C-101.893 37.3137 -102.617 37.0894 -103.603 37.0894H-105.614V44.467Z" fill="#292929" fill-opacity="0.2"/>
<path d="M-97.5489 41.367V32.7638C-97.5489 31.4821 -97.2561 30.4568 -96.6705 29.6878C-96.0695 28.9028 -95.1834 28.5103 -94.0123 28.5103C-92.8103 28.5103 -91.9165 28.8948 -91.3309 29.6638C-90.7299 30.4328 -90.4294 31.4661 -90.4294 32.7638V41.367C-90.4294 42.6646 -90.7299 43.698 -91.3309 44.467C-91.9165 45.236 -92.8103 45.6205 -94.0123 45.6205C-95.1834 45.6205 -96.0695 45.236 -96.6705 44.467C-97.2561 43.682 -97.5489 42.6486 -97.5489 41.367ZM-96.4856 32.6917V41.4391C-96.4856 42.4163 -96.2853 43.1933 -95.8846 43.7701C-95.4839 44.3308 -94.8598 44.6112 -94.0123 44.6112C-93.1493 44.6112 -92.5175 44.3308 -92.1169 43.7701C-91.7008 43.1933 -91.4927 42.4163 -91.4927 41.4391V32.6917C-91.4927 31.7144 -91.7008 30.9454 -92.1169 30.3847C-92.5175 29.8079 -93.1493 29.5196 -94.0123 29.5196C-94.8598 29.5196 -95.4839 29.8079 -95.8846 30.3847C-96.2853 30.9454 -96.4856 31.7144 -96.4856 32.6917Z" fill="#292929" fill-opacity="0.2"/>
<path d="M-82.1113 29.6638L-87.1503 29.6638V45.4763H-88.2136V28.6544L-81.0248 28.6544V45.4763H-82.1113V29.6638Z" fill="#292929" fill-opacity="0.2"/>
<path d="M-78.7913 41.367V32.7638C-78.7913 31.4821 -78.4986 30.4568 -77.913 29.6878C-77.312 28.9028 -76.4259 28.5103 -75.2547 28.5103C-74.0527 28.5103 -73.159 28.8948 -72.5734 29.6638C-71.9724 30.4328 -71.6719 31.4661 -71.6719 32.7638V41.367C-71.6719 42.6646 -71.9724 43.698 -72.5734 44.467C-73.159 45.236 -74.0527 45.6205 -75.2547 45.6205C-76.4259 45.6205 -77.312 45.236 -77.913 44.467C-78.4986 43.682 -78.7913 42.6486 -78.7913 41.367ZM-77.728 32.6917V41.4391C-77.728 42.4163 -77.5277 43.1933 -77.1271 43.7701C-76.7264 44.3308 -76.1023 44.6112 -75.2547 44.6112C-74.3918 44.6112 -73.7599 44.3308 -73.3593 43.7701C-72.9432 43.1933 -72.7352 42.4163 -72.7352 41.4391V32.6917C-72.7352 31.7144 -72.9432 30.9454 -73.3593 30.3847C-73.7599 29.8079 -74.3918 29.5196 -75.2547 29.5196C-76.1023 29.5196 -76.7264 29.8079 -77.1271 30.3847C-77.5277 30.9454 -77.728 31.7144 -77.728 32.6917Z" fill="#292929" fill-opacity="0.2"/>
<path d="M-62.8221 45.4763L-67.2833 37.57L-68.3928 39.3964V45.4763H-69.4561V28.6544H-68.3928V37.546L-63.1226 28.6544H-62.013L-66.6361 36.4886L-61.7125 45.4763H-62.8221Z" fill="#292929" fill-opacity="0.2"/>
<path d="M-53.0606 41.7515H-58.0997L-58.9087 45.4763H-59.8796L-56.343 28.6304H-54.7943L-51.1883 45.4763H-52.2516L-53.0606 41.7515ZM-55.6033 29.9041L-57.9379 40.7902H-53.2224L-55.6033 29.9041Z" fill="#292929" fill-opacity="0.2"/>
<path d="M-48.3094 29.6638C-47.7392 28.8948 -46.8608 28.5103 -45.6743 28.5103C-44.4877 28.5103 -43.6093 28.8948 -43.0392 29.6638C-42.469 30.4328 -42.1839 31.4661 -42.1839 32.7638V33.1963C-42.1839 34.0294 -42.3765 34.7584 -42.7617 35.3832C-43.147 35.992 -43.6864 36.4165 -44.3798 36.6568C-43.6555 36.8651 -43.1085 37.2736 -42.7386 37.8824C-42.3688 38.4912 -42.1839 39.2202 -42.1839 40.0693V41.367C-42.1839 42.6646 -42.469 43.698 -43.0392 44.467C-43.6093 45.236 -44.4877 45.6205 -45.6743 45.6205C-46.8608 45.6205 -47.7392 45.236 -48.3094 44.467C-48.8795 43.698 -49.1646 42.6646 -49.1646 41.367V39.9731H-48.1476V41.4391C-48.1476 42.4003 -47.9549 43.1693 -47.5697 43.7461C-47.169 44.3228 -46.5449 44.6112 -45.6974 44.6112C-44.0639 44.6112 -43.2472 43.5218 -43.2472 41.3429V40.0452C-43.2472 39.1801 -43.4706 38.4912 -43.9175 37.9786C-44.3644 37.4659 -44.9731 37.2096 -45.7436 37.2096H-46.6451V36.2002H-45.6743C-44.9654 36.2002 -44.3875 35.9359 -43.9406 35.4072C-43.4783 34.8625 -43.2472 34.1976 -43.2472 33.4126V32.7878C-43.2472 30.609 -44.0639 29.5196 -45.6974 29.5196C-46.5449 29.5196 -47.169 29.8079 -47.5697 30.3847C-47.9703 30.9454 -48.1707 31.7144 -48.1707 32.6917V33.6049H-49.1415V32.7397C-49.1415 31.4421 -48.8641 30.4167 -48.3094 29.6638Z" fill="#292929" fill-opacity="0.2"/>
<path d="M-33.3324 41.7515H-38.3715L-39.1806 45.4763H-40.1514L-36.6147 28.6304H-35.0661L-31.4601 45.4763H-32.5234L-33.3324 41.7515ZM-35.8751 29.9041L-38.2097 40.7902H-33.4942L-35.8751 29.9041Z" fill="#292929" fill-opacity="0.2"/>
<path d="M-23.2878 37.57H-28.3269V45.4763H-29.3902V28.6544H-28.3269V36.5607H-23.2878V28.6544H-22.2014V45.4763H-23.2878V37.57Z" fill="#292929" fill-opacity="0.2"/>
<path d="M-13.6575 30.601L-16.0846 37.57L-18.7428 45.4763H-19.8985V28.6544H-18.9277V43.0491L-16.57 36.1762L-13.958 28.6544H-12.6866V45.4763H-13.6575V30.601Z" fill="#292929" fill-opacity="0.2"/>
<path d="M-4.39697 37.9545H-6.0844C-7.08604 37.9545 -7.84116 38.1708 -8.34969 38.6034C-8.85822 39.0199 -9.11246 39.7569 -9.11246 40.8142V43.4577C-9.11246 44.3869 -9.22804 45.0598 -9.4592 45.4763H-10.5687C-10.3068 45.0598 -10.1758 44.3869 -10.1758 43.4577V40.8383C-10.1758 38.8998 -9.39757 37.7543 -7.84114 37.4018C-9.39757 37.0333 -10.1758 35.8718 -10.1758 33.9173V32.4514C-10.1758 29.9201 -9.02 28.6544 -6.70848 28.6544H-3.33369V45.4763H-4.39697V37.9545ZM-4.39697 29.6638H-6.68538C-8.30344 29.6638 -9.11246 30.625 -9.11246 32.5475V34.1336C-9.11246 35.207 -8.86592 35.9439 -8.37279 36.3444C-7.87967 36.745 -7.12459 36.9452 -6.10751 36.9452H-4.39697V29.6638Z" fill="#292929" fill-opacity="0.2"/>
<path d="M9.12572 37.57H4.08662V45.4763H3.02333V28.6544H4.08662V36.5607H9.12572V28.6544H10.2121V45.4763H9.12572V37.57Z" fill="#292929" fill-opacity="0.2"/>
<path d="M13.5783 36.4406H17.9933V37.4499H13.5783V44.467H18.8947V45.4763H12.515V28.6544H18.8947V29.6638H13.5783V36.4406Z" fill="#292929" fill-opacity="0.2"/>
<path d="M21.0117 41.367V32.7638C21.0117 31.4821 21.3045 30.4568 21.8901 29.6878C22.4911 28.9028 23.3772 28.5103 24.5484 28.5103C25.7504 28.5103 26.6441 28.8948 27.2297 29.6638C27.8307 30.4328 28.1312 31.4661 28.1312 32.7638V41.367C28.1312 42.6646 27.8307 43.698 27.2297 44.467C26.6441 45.236 25.7504 45.6205 24.5484 45.6205C23.3772 45.6205 22.4911 45.236 21.8901 44.467C21.3045 43.682 21.0117 42.6486 21.0117 41.367ZM22.075 32.6917V41.4391C22.075 42.4163 22.2754 43.1933 22.676 43.7701C23.0767 44.3308 23.7008 44.6112 24.5484 44.6112C25.4113 44.6112 26.0432 44.3308 26.4438 43.7701C26.8599 43.1933 27.0679 42.4163 27.0679 41.4391V32.6917C27.0679 31.7144 26.8599 30.9454 26.4438 30.3847C26.0432 29.8079 25.4113 29.5196 24.5484 29.5196C23.7008 29.5196 23.0767 29.8079 22.676 30.3847C22.2754 30.9454 22.075 31.7144 22.075 32.6917Z" fill="#292929" fill-opacity="0.2"/>
<path d="M31.4103 35.8157H33.7218C35.0009 35.8157 35.9485 36.1121 36.565 36.7049C37.1814 37.2977 37.4896 38.2509 37.4896 39.5646V41.4631C37.4896 44.1386 36.2953 45.4763 33.9067 45.4763L30.347 45.4763V28.6544L36.8885 28.6544V29.6638H31.4103V35.8157ZM31.4103 44.467H33.9067C35.5864 44.467 36.4263 43.4897 36.4263 41.5352V39.4925C36.4263 38.4992 36.2105 37.8103 35.7791 37.4258C35.3476 37.0413 34.6618 36.8491 33.7218 36.8491H31.4103V44.467Z" fill="#292929" fill-opacity="0.2"/>
<path d="M47.1452 45.4763L43.8628 37.6421L40.5805 45.4763H39.5403L43.1925 36.753L39.7946 28.6544H40.9041L43.9553 35.8878L47.0296 28.6544H48.0467L44.6487 36.753L48.2778 45.4763H47.1452Z" fill="#292929" fill-opacity="0.2"/>
<path d="M50.3219 41.367V32.7638C50.3219 31.4821 50.6147 30.4568 51.2003 29.6878C51.8013 28.9028 52.6873 28.5103 53.8585 28.5103C55.0605 28.5103 55.9543 28.8948 56.5399 29.6638C57.1408 30.4328 57.4413 31.4661 57.4413 32.7638V41.367C57.4413 42.6646 57.1408 43.698 56.5399 44.467C55.9543 45.236 55.0605 45.6205 53.8585 45.6205C52.6873 45.6205 51.8013 45.236 51.2003 44.467C50.6147 43.682 50.3219 42.6486 50.3219 41.367ZM51.3852 32.6917V41.4391C51.3852 42.4163 51.5855 43.1933 51.9862 43.7701C52.3868 44.3308 53.0109 44.6112 53.8585 44.6112C54.7215 44.6112 55.3533 44.3308 55.7539 43.7701C56.17 43.1933 56.3781 42.4163 56.3781 41.4391V32.6917C56.3781 31.7144 56.17 30.9454 55.7539 30.3847C55.3533 29.8079 54.7215 29.5196 53.8585 29.5196C53.0109 29.5196 52.3868 29.8079 51.9862 30.3847C51.5855 30.9454 51.3852 31.7144 51.3852 32.6917Z" fill="#292929" fill-opacity="0.2"/>
<path d="M69.273 47.8073H68.2097V45.4763H60.4893V47.8073H59.4491V44.467H60.5586C61.0363 43.9383 61.306 43.0411 61.3676 41.7755L62.0149 28.6544H67.9323V44.467H69.273V47.8073ZM63.0089 29.6638L62.4078 41.7755C62.3308 43.0892 62.0765 43.9864 61.6451 44.467H66.8459V29.6638H63.0089Z" fill="#292929" fill-opacity="0.2"/>
<path d="M77.6698 30.601L75.2427 37.57L72.5844 45.4763H71.4287V28.6544H72.3995V43.0491L74.7573 36.1762L77.3693 28.6544H78.6406V45.4763H77.6698V30.601Z" fill="#292929" fill-opacity="0.2"/>
<path d="M89.7272 30.5289L86.3524 45.4523H85.2891L81.868 30.5769V45.4763H80.9203V28.6544H82.4459L85.8439 43.5298L89.2187 28.6544L90.7442 28.6544V45.4763H89.7272V30.5289Z" fill="#292929" fill-opacity="0.2"/>
<path d="M92.9837 41.367V32.7638C92.9837 31.4821 93.2765 30.4568 93.8621 29.6878C94.4631 28.9028 95.3492 28.5103 96.5203 28.5103C97.7223 28.5103 98.6161 28.8948 99.2017 29.6638C99.8027 30.4328 100.103 31.4661 100.103 32.7638V41.367C100.103 42.6646 99.8027 43.698 99.2017 44.467C98.6161 45.236 97.7223 45.6205 96.5203 45.6205C95.3492 45.6205 94.4631 45.236 93.8621 44.467C93.2765 43.682 92.9837 42.6486 92.9837 41.367ZM94.047 32.6917V41.4391C94.047 42.4163 94.2473 43.1933 94.648 43.7701C95.0486 44.3308 95.6728 44.6112 96.5203 44.6112C97.3833 44.6112 98.0151 44.3308 98.4158 43.7701C98.8318 43.1933 99.0399 42.4163 99.0399 41.4391V32.6917C99.0399 31.7144 98.8318 30.9454 98.4158 30.3847C98.0151 29.8079 97.3833 29.5196 96.5203 29.5196C95.6728 29.5196 95.0486 29.8079 94.648 30.3847C94.2473 30.9454 94.047 31.7144 94.047 32.6917Z" fill="#292929" fill-opacity="0.2"/>
<path d="M106.301 41.367V32.7638C106.301 31.4821 106.594 30.4568 107.179 29.6878C107.78 28.9028 108.667 28.5103 109.838 28.5103C111.04 28.5103 111.933 28.8948 112.519 29.6638C113.12 30.4328 113.421 31.4661 113.421 32.7638V41.367C113.421 42.6646 113.12 43.698 112.519 44.467C111.933 45.236 111.04 45.6205 109.838 45.6205C108.667 45.6205 107.78 45.236 107.179 44.467C106.594 43.682 106.301 42.6486 106.301 41.367ZM107.364 32.6917V41.4391C107.364 42.4163 107.565 43.1933 107.965 43.7701C108.366 44.3308 108.99 44.6112 109.838 44.6112C110.701 44.6112 111.332 44.3308 111.733 43.7701C112.149 43.1933 112.357 42.4163 112.357 41.4391V32.6917C112.357 31.7144 112.149 30.9454 111.733 30.3847C111.332 29.8079 110.701 29.5196 109.838 29.5196C108.99 29.5196 108.366 29.8079 107.965 30.3847C107.565 30.9454 107.364 31.7144 107.364 32.6917Z" fill="#292929" fill-opacity="0.2"/>
<path d="M116.445 29.6638C117.016 28.8948 117.894 28.5103 119.08 28.5103C120.267 28.5103 121.145 28.8948 121.716 29.6638C122.286 30.4328 122.571 31.4661 122.571 32.7638V33.1963C122.571 34.0294 122.378 34.7584 121.993 35.3832C121.608 35.992 121.068 36.4165 120.375 36.6568C121.099 36.8651 121.646 37.2736 122.016 37.8824C122.386 38.4912 122.571 39.2202 122.571 40.0693V41.367C122.571 42.6646 122.286 43.698 121.716 44.467C121.145 45.236 120.267 45.6205 119.08 45.6205C117.894 45.6205 117.016 45.236 116.445 44.467C115.875 43.698 115.59 42.6646 115.59 41.367V39.9731H116.607V41.4391C116.607 42.4003 116.8 43.1693 117.185 43.7461C117.586 44.3228 118.21 44.6112 119.057 44.6112C120.691 44.6112 121.508 43.5218 121.508 41.3429V40.0452C121.508 39.1801 121.284 38.4912 120.837 37.9786C120.39 37.4659 119.782 37.2096 119.011 37.2096H118.11V36.2002H119.08C119.789 36.2002 120.367 35.9359 120.814 35.4072C121.276 34.8625 121.508 34.1976 121.508 33.4126V32.7878C121.508 30.609 120.691 29.5196 119.057 29.5196C118.21 29.5196 117.586 29.8079 117.185 30.3847C116.784 30.9454 116.584 31.7144 116.584 32.6917V33.6049H115.613V32.7397C115.613 31.4421 115.891 30.4167 116.445 29.6638Z" fill="#292929" fill-opacity="0.2"/>
<path d="M130.937 37.57H125.898V45.4763H124.835V28.6544H125.898V36.5607H130.937V28.6544H132.023V45.4763H130.937V37.57Z" fill="#292929" fill-opacity="0.2"/>
<path d="M140.914 41.7515H135.875L135.066 45.4763H134.095L137.632 28.6304H139.18L142.786 45.4763H141.723L140.914 41.7515ZM138.371 29.9041L136.037 40.7902H140.752L138.371 29.9041Z" fill="#292929" fill-opacity="0.2"/>
<path d="M151.49 45.4763L147.029 37.57L145.919 39.3964V45.4763H144.856V28.6544H145.919V37.546L151.19 28.6544H152.299L147.676 36.4886L152.6 45.4763H151.49Z" fill="#292929" fill-opacity="0.2"/>
<path d="M154.595 41.367V32.7638C154.595 31.4821 154.887 30.4568 155.473 29.6878C156.074 28.9028 156.96 28.5103 158.131 28.5103C159.333 28.5103 160.227 28.8948 160.812 29.6638C161.413 30.4328 161.714 31.4661 161.714 32.7638V41.367C161.714 42.6646 161.413 43.698 160.812 44.467C160.227 45.236 159.333 45.6205 158.131 45.6205C156.96 45.6205 156.074 45.236 155.473 44.467C154.887 43.682 154.595 42.6486 154.595 41.367ZM155.658 32.6917V41.4391C155.658 42.4163 155.858 43.1933 156.259 43.7701C156.659 44.3308 157.284 44.6112 158.131 44.6112C158.994 44.6112 159.626 44.3308 160.027 43.7701C160.443 43.1933 160.651 42.4163 160.651 41.4391V32.6917C160.651 31.7144 160.443 30.9454 160.027 30.3847C159.626 29.8079 158.994 29.5196 158.131 29.5196C157.284 29.5196 156.659 29.8079 156.259 30.3847C155.858 30.9454 155.658 31.7144 155.658 32.6917Z" fill="#292929" fill-opacity="0.2"/>
<path d="M172.737 30.5289L169.362 45.4523H168.298L164.877 30.5769V45.4763H163.93V28.6544H165.455L168.853 43.5298L172.228 28.6544H173.754V45.4763H172.737V30.5289Z" fill="#292929" fill-opacity="0.2"/>
<path d="M182.304 30.601L179.876 37.57L177.218 45.4763H176.062V28.6544H177.033V43.0491L179.391 36.1762L182.003 28.6544H183.274V45.4763H182.304V30.601Z" fill="#292929" fill-opacity="0.2"/>
<path d="M189.645 45.4763H188.582V29.6638H185.277V28.6544L192.951 28.6544V29.6638H189.645V45.4763Z" fill="#292929" fill-opacity="0.2"/>
<path d="M196.041 35.5754H198.029C199.308 35.5754 200.256 35.9039 200.872 36.5607C201.489 37.2176 201.797 38.2189 201.797 39.5646V41.391C201.797 44.1145 200.634 45.4763 198.307 45.4763H194.978V28.6544H196.041V35.5754ZM196.041 44.467H198.307C199.925 44.467 200.734 43.4657 200.734 41.4631V39.4925C200.734 38.4672 200.518 37.7302 200.087 37.2817C199.655 36.817 198.969 36.5847 198.029 36.5847H196.041V44.467Z" fill="#292929" fill-opacity="0.2"/>
<path d="M204.782 29.6878C205.352 28.9028 206.23 28.5103 207.417 28.5103C208.603 28.5103 209.482 28.9028 210.052 29.6878C210.622 30.4568 210.907 31.4821 210.907 32.7638V34.1576H209.89V32.6917C209.89 31.7304 209.69 30.9614 209.289 30.3847C208.904 29.8079 208.287 29.5196 207.44 29.5196C206.592 29.5196 205.968 29.8079 205.567 30.3847C205.182 30.9614 204.99 31.7304 204.99 32.6917V41.4391C204.99 43.5378 205.806 44.5871 207.44 44.5871C209.073 44.5871 209.89 43.5378 209.89 41.4391V39.4445H210.907V41.367C210.907 42.6486 210.622 43.682 210.052 44.467C209.482 45.236 208.603 45.6205 207.417 45.6205C206.23 45.6205 205.352 45.236 204.782 44.467C204.211 43.682 203.926 42.6486 203.926 41.367V32.7638C203.926 31.4821 204.211 30.4568 204.782 29.6878Z" fill="#292929" fill-opacity="0.2"/>
<path d="M219.113 37.9545H217.426C216.424 37.9545 215.669 38.1708 215.161 38.6034C214.652 39.0199 214.398 39.7569 214.398 40.8142V43.4577C214.398 44.3869 214.282 45.0598 214.051 45.4763H212.942C213.204 45.0598 213.335 44.3869 213.335 43.4577V40.8383C213.335 38.8998 214.113 37.7543 215.669 37.4018C214.113 37.0333 213.335 35.8718 213.335 33.9173V32.4514C213.335 29.9201 214.49 28.6544 216.802 28.6544H220.177V45.4763H219.113V37.9545ZM219.113 29.6638H216.825C215.207 29.6638 214.398 30.625 214.398 32.5475V34.1336C214.398 35.207 214.645 35.9439 215.138 36.3444C215.631 36.745 216.386 36.9452 217.403 36.9452H219.113V29.6638Z" fill="#292929" fill-opacity="0.2"/>
</g>
<g opacity="0.7">
<path d="M228.886 29.0276C229.434 28.2107 230.278 27.8022 231.417 27.8022C232.557 27.8022 233.401 28.2107 233.949 29.0276C234.496 29.8278 234.77 30.8948 234.77 32.2285V33.6789H233.793V32.1535C233.793 31.1532 233.601 30.353 233.216 29.7528C232.846 29.1526 232.254 28.8525 231.44 28.8525C230.625 28.8525 230.026 29.1526 229.641 29.7528C229.271 30.353 229.086 31.1532 229.086 32.1535V41.256C229.086 43.44 229.87 44.5319 231.44 44.5319C233.009 44.5319 233.793 43.44 233.793 41.256V39.1804H234.77V41.181C234.77 42.5147 234.496 43.59 233.949 44.4069C233.401 45.2071 232.557 45.6072 231.417 45.6072C230.278 45.6072 229.434 45.2071 228.886 44.4069C228.338 43.59 228.065 42.5147 228.065 41.181V32.2285C228.065 30.8948 228.338 29.8278 228.886 29.0276Z" fill="#292929" fill-opacity="0.2"/>
<path d="M246.767 29.9779L244.435 37.2299L241.882 45.4572H240.772V27.9523H241.704V42.9315L243.969 35.7795L246.478 27.9523H247.699V45.4572H246.767V29.9779Z" fill="#292929" fill-opacity="0.2"/>
<path d="M255.751 37.2299H250.911V45.4572H249.889V27.9523H250.911V36.1796H255.751V27.9523H256.795V45.4572H255.751V37.2299Z" fill="#292929" fill-opacity="0.2"/>
<path d="M259.762 29.0276C260.309 28.2107 261.153 27.8022 262.293 27.8022C263.433 27.8022 264.277 28.2107 264.824 29.0276C265.372 29.8278 265.646 30.8948 265.646 32.2285V33.6789H264.669V32.1535C264.669 31.1532 264.476 30.353 264.091 29.7528C263.721 29.1526 263.129 28.8525 262.315 28.8525C261.501 28.8525 260.902 29.1526 260.517 29.7528C260.147 30.353 259.962 31.1532 259.962 32.1535V41.256C259.962 43.44 260.746 44.5319 262.315 44.5319C263.884 44.5319 264.669 43.44 264.669 41.256V39.1804H265.646V41.181C265.646 42.5147 265.372 43.59 264.824 44.4069C264.277 45.2071 263.433 45.6072 262.293 45.6072C261.153 45.6072 260.309 45.2071 259.762 44.4069C259.214 43.59 258.94 42.5147 258.94 41.181V32.2285C258.94 30.8948 259.214 29.8278 259.762 29.0276Z" fill="#292929" fill-opacity="0.2"/>
<path d="M271.686 45.4572H270.664V29.0026L267.489 29.0026V27.9523L274.861 27.9523V29.0026H271.686V45.4572Z" fill="#292929" fill-opacity="0.2"/>
<path d="M276.808 27.9523H280.028C282.248 27.9523 283.358 29.3694 283.358 32.2035V34.104C283.358 36.8715 282.159 38.2552 279.761 38.2552H277.829V45.4572H276.808V27.9523ZM277.829 37.2049H279.761C280.664 37.2049 281.315 36.9715 281.715 36.5047C282.13 36.0212 282.337 35.246 282.337 34.179V32.1285C282.337 30.0445 281.567 29.0026 280.028 29.0026H277.829V37.2049Z" fill="#292929" fill-opacity="0.2"/>
<path d="M293.289 27.9523L289.27 42.2063C288.989 43.3733 288.612 44.2235 288.138 44.757C287.664 45.2738 286.902 45.5072 285.851 45.4572V44.4319C286.532 44.4486 287.035 44.2985 287.361 43.9818C287.686 43.6484 287.953 43.1149 288.16 42.3813L288.804 40.2557L285.074 27.9523H286.117L287.938 34.129L289.292 38.8053L290.536 34.104L292.223 27.9523H293.289Z" fill="#292929" fill-opacity="0.2"/>
<path d="M301.611 45.4572L297.325 37.2299L296.26 39.1304V45.4572H295.238V27.9523H296.26V37.2049L301.322 27.9523H302.388L297.947 36.1046L302.677 45.4572H301.611Z" fill="#292929" fill-opacity="0.2"/>
<path d="M313.119 47.8079H312.12V45.4572L304.948 45.4572V27.9523H305.947V44.4069H310.788V27.9523H311.831V44.4069H313.119V47.8079Z" fill="#292929" fill-opacity="0.2"/>
<path d="M321.203 29.9779L318.872 37.2299L316.318 45.4572H315.208V27.9523H316.14V42.9315L318.405 35.7795L320.914 27.9523H322.136V45.4572H321.203V29.9779Z" fill="#292929" fill-opacity="0.2"/>
<path d="M325.347 36.0546H329.588V37.1049H325.347V44.4069H330.454V45.4572H324.325V27.9523H330.454V29.0026H325.347V36.0546Z" fill="#292929" fill-opacity="0.2"/>
<path d="M337.683 24.6514H338.371C338.356 25.3015 338.142 25.8184 337.727 26.2018C337.313 26.5852 336.78 26.777 336.129 26.777C335.477 26.777 334.944 26.5936 334.53 26.2268C334.13 25.8434 333.923 25.3182 333.908 24.6514H334.619C334.634 25.1182 334.782 25.4683 335.063 25.7017C335.344 25.9184 335.699 26.0268 336.129 26.0268C337.12 26.0268 337.639 25.5683 337.683 24.6514ZM338.549 29.9779L336.328 36.9298L333.664 45.4572H332.554V27.9523H333.486V42.9315L335.507 36.5547L338.26 27.9523H339.481V45.4572H338.549V29.9779Z" fill="#292929" fill-opacity="0.2"/>
</g>
</g>
<defs>
<clipPath id="clip0_127_3234">
<rect width="235.899" height="21" fill="white" transform="translate(53.5508)"/>
</clipPath>
<clipPath id="clip1_127_3234">
<rect width="343" height="23.2788" fill="white" transform="translate(0 26)"/>
</clipPath>
</defs>
</svg>
