<svg width="62" height="62" fill="none" xmlns="http://www.w3.org/2000/svg"><path d="M34.904 25.727c1.157-.015 3.325.219 5.034 1.842 1.876 1.782 1.927 5.18 1.863 6.558-.081 1.746-.644 4.186-1.979 5.794-1.942 2.342-5.195 2.663-7.234 2.663-.47 0-.877-.018-1.187-.031h-.01a23.034 23.034 0 0 1-6.502-1.242l.03-.806v-12.89l-.002-.91a18.171 18.171 0 0 0 5.645-5.88c1.046-1.758 2.167-2.533 3.32-2.307 1.315.258 2.164 1.472 2.215 3.169.04 1.379-.572 2.998-1.193 4.04Z" fill="#fff"/><rect x="20.578" y="24.718" width="3.81" height="18.161" rx="1.905" stroke="#fff"/></svg>