<svg width="62" height="63" fill="none" xmlns="http://www.w3.org/2000/svg"><path d="M40.47 39.815c-.304-1.647-1.975-3.238-4.05-4.736-.328-.238-.482-.676-.3-1.04.23-.462.784-.57 1.2-.304 1.273.798 2.468 1.624 3.154 2.487V18.925a1.866 1.866 0 0 0-1.867-1.867h-4.376a1.86 1.86 0 0 0-1.6.91L21.73 36.231c-.593 1.13-.784 2.446-.457 3.682.378 1.437 1.479 3.01 4.372 3.542 5.184.952 4.918 2.305 7.988 2.529 1.853.135 6.71-2.058 6.841-5.996v-.154s0-.014-.005-.019Zm-4.494 3.388c-.252.611-.873 1.115-2.343.662-2.94-.905-5.049-2.076-5.88-2.179h-.023c-.742-.107-.89-1.12-.224-1.465 1.316-.686 4.424-1.726 7.952 1.083.569.452.797 1.232.517 1.904v-.005Z" fill="#fff"/></svg>