<svg width="62" height="62" fill="none" xmlns="http://www.w3.org/2000/svg"><path fill-rule="evenodd" clip-rule="evenodd" d="M36.738 27.41a15.078 15.078 0 0 0 2.127-4.4c.384-1.307.505-2.905 2.327-2.938.564-.01 1.088.223 1.334.672.333.607.029 1.22-.192 1.806-1.242 3.299-2.623 5.046-3.935 6.322a2.504 2.504 0 0 0-1.661-1.462Zm-2.888 3.515c-2.43 2.765-4.64 5.563-4.313 11.403.047.833.74 1.481 1.574 1.47.115 0 .225-.003.332-.004a1.56 1.56 0 0 0 1.539-1.568c-.04-5.796.804-8.406 2.087-10.126a2.51 2.51 0 0 1-1.22-1.175Zm-.07-2.054a2.504 2.504 0 0 1 1.661-1.462 15.079 15.079 0 0 1-2.126-4.4c-.385-1.306-.505-2.904-2.327-2.937-.565-.01-1.089.222-1.335.672-.333.607-.028 1.22.192 1.806 1.242 3.299 2.624 5.046 3.935 6.322v-.001Zm3.331 3.23c1.284 1.72 2.128 4.33 2.087 10.126a1.56 1.56 0 0 0 1.538 1.568l.332.004a1.557 1.557 0 0 0 1.574-1.47c.328-5.84-1.881-8.638-4.312-11.403-.257.52-.69.938-1.22 1.175h.001Zm.65-2.28c0-.92-.75-1.67-1.67-1.67-.92 0-1.67.75-1.67 1.67 0 .92.75 1.67 1.67 1.67.92 0 1.67-.75 1.67-1.67ZM21.19 31.177c-1.83 2.082-3.494 4.19-3.247 8.59a1.175 1.175 0 0 0 1.185 1.107c.086 0 .17-.002.25-.003a1.175 1.175 0 0 0 1.16-1.182c-.031-4.364.605-6.33 1.572-7.627-.4-.18-.726-.494-.92-.885Zm5.533-8.18c-1.373.025-1.463 1.229-1.754 2.213a11.349 11.349 0 0 1-1.601 3.313c.568.152 1.03.564 1.252 1.1.988-.961 2.028-2.277 2.963-4.76.167-.442.395-.904.145-1.36-.186-.34-.58-.515-1.006-.507h.001Zm-5.586 6.628a1.888 1.888 0 0 1 1.252-1.1 11.384 11.384 0 0 1-1.602-3.314c-.29-.984-.381-2.19-1.753-2.213-.426-.008-.82.167-1.006.506-.25.456-.021.919.144 1.36.936 2.483 1.976 3.8 2.964 4.76Zm2.512 2.437c.966 1.296 1.602 3.263 1.572 7.627a1.177 1.177 0 0 0 1.16 1.182l.25.004a1.172 1.172 0 0 0 1.185-1.109c.246-4.398-1.417-6.507-3.247-8.59-.194.392-.52.707-.919.886Zm.392-1.72a1.161 1.161 0 1 0-2.321 0 1.161 1.161 0 0 0 2.321.001Z" fill="#fff"/></svg>