<svg width="62" height="62" fill="none" xmlns="http://www.w3.org/2000/svg"><path fill-rule="evenodd" clip-rule="evenodd" d="M29.69 44.368a1.934 1.934 0 0 0 2.209 0c6.56-4.567 11.03-10.37 12.46-17.633.193-.976-.427-1.9-1.342-2.289-2.873-1.224-5.26-3.244-6.68-5.784-.404-.722-1.136-1.23-1.963-1.23h-7.16c-.827 0-1.558.508-1.962 1.23-1.421 2.54-3.808 4.56-6.681 5.784-.915.39-1.535 1.313-1.343 2.288 1.43 7.263 5.902 13.067 12.461 17.634Zm4.333-16.761a1.338 1.338 0 1 1 1.894 1.894l-5.435 5.436a1.338 1.338 0 0 1-1.894 0l-2.917-2.916a1.338 1.338 0 1 1 1.894-1.894l1.97 1.969 4.488-4.49Z" fill="#fff"/></svg>