<svg width="343" height="50" fill="none" xmlns="http://www.w3.org/2000/svg"><g opacity=".7" fill="#292929" fill-opacity=".2" clip-path="url(#a)"><path d="m60.04 5.396-2.523 6.32-2.764 7.17H53.55V3.63h1.01v13.054l2.451-6.232 2.716-6.822h1.322v15.256h-1.01V5.396Zm12.538-.066L69.07 18.864h-1.106l-3.557-13.49v13.512h-.986V3.63h1.587l3.533 13.49 3.51-13.49h1.586v15.256h-1.058V5.33Zm4.564 5.361h4.591v.916h-4.59v6.363h5.528v.916h-6.634V3.63h6.633v.916h-5.528v6.145ZM92.66 3.5c1.233 0 2.155.348 2.764 1.046.624.697.937 1.634.937 2.81v7.803c0 1.177-.313 2.114-.937 2.811-.61.698-1.53 1.046-2.765 1.046-1.25 0-2.179-.348-2.788-1.046-.609-.697-.913-1.634-.913-2.811v-3.443H86.05v7.17h-1.106V3.63h1.106v7.17h2.908V7.357c0-1.177.304-2.114.913-2.811.61-.698 1.539-1.046 2.788-1.046Zm0 .915c-1.731 0-2.596.959-2.596 2.877v7.932c0 1.918.865 2.877 2.596 2.877.88 0 1.53-.254 1.946-.763.433-.523.65-1.227.65-2.114V7.292c0-.887-.217-1.584-.65-2.093-.416-.523-1.065-.784-1.947-.784Zm10.281 14.471h-1.106V4.546h-3.437V3.63h7.98v.916h-3.437v14.34Zm6.362-14.319c.593-.712 1.506-1.067 2.74-1.067 1.234 0 2.148.355 2.74 1.067.593.698.89 1.628.89 2.79V8.62h-1.058V7.29c0-.871-.208-1.569-.625-2.092-.4-.523-1.041-.784-1.923-.784-.881 0-1.53.261-1.947.784-.4.523-.6 1.22-.6 2.093v7.932c0 1.904.849 2.855 2.547 2.855 1.699 0 2.548-.951 2.548-2.855v-1.809h1.058v1.744c0 1.162-.297 2.1-.89 2.811-.592.698-1.506 1.046-2.74 1.046-1.234 0-2.147-.348-2.74-1.046-.593-.712-.889-1.649-.889-2.811V7.357c0-1.162.296-2.092.889-2.79Zm14.903 7.497h-1.755c-1.041 0-1.826.196-2.355.589-.529.377-.793 1.046-.793 2.005v2.397c0 .843-.12 1.453-.361 1.83h-1.154c.273-.377.409-.987.409-1.83V14.68c0-1.758.809-2.797 2.428-3.117-1.619-.334-2.428-1.388-2.428-3.16v-1.33c0-2.295 1.202-3.443 3.605-3.443h3.51v15.256h-1.106v-6.822Zm0-7.518h-2.38c-1.682 0-2.523.871-2.523 2.615v1.438c0 .974.256 1.642.769 2.005s1.298.545 2.355.545h1.779V4.546Zm14.061 0h-5.239v14.34h-1.106V3.63h7.475v15.256h-1.13V4.546Zm3.525-.916h3.485c2.403 0 3.605 1.235 3.605 3.705v1.656c0 2.412-1.298 3.618-3.894 3.618h-2.091v6.277h-1.105V3.63Zm1.105 8.064h2.091c.978 0 1.683-.204 2.116-.61.448-.422.673-1.097.673-2.027V7.27c0-1.816-.834-2.724-2.5-2.724h-2.38v7.148Zm8.059 3.465V7.357c0-1.162.304-2.092.913-2.79.625-.712 1.546-1.067 2.764-1.067 1.25 0 2.179.348 2.788 1.046.625.697.938 1.634.938 2.81v7.803c0 1.177-.313 2.114-.938 2.811-.609.698-1.538 1.046-2.788 1.046-1.218 0-2.139-.348-2.764-1.046-.609-.712-.913-1.649-.913-2.811Zm1.105-7.867v7.932c0 .887.209 1.591.625 2.114.417.509 1.066.763 1.947.763.897 0 1.554-.254 1.971-.763.433-.523.649-1.227.649-2.114V7.292c0-.887-.216-1.584-.649-2.093-.417-.523-1.074-.784-1.971-.784-.881 0-1.53.261-1.947.784-.416.509-.625 1.206-.625 2.093Zm12.856 11.594h-1.106V4.546h-3.437V3.63h7.98v.916h-3.437v14.34Zm12.035-13.49-2.524 6.32-2.764 7.17h-1.202V3.63h1.01v13.054l2.451-6.232 2.716-6.822h1.322v15.256h-1.009V5.396Zm3.38-1.766h3.533c1.234 0 2.115.269 2.644.807.529.537.793 1.35.793 2.44v.872c0 .872-.168 1.555-.505 2.049-.32.48-.889.799-1.706.959 1.682.305 2.524 1.394 2.524 3.269v1.33c0 2.353-1.226 3.53-3.678 3.53h-3.605V3.63Zm1.105 6.734h1.875c1.026 0 1.763-.167 2.212-.5.448-.35.673-.989.673-1.919v-.98c0-.829-.177-1.439-.529-1.831-.353-.392-.962-.588-1.827-.588h-2.404v5.818Zm0 7.606h2.5c1.715 0 2.572-.879 2.572-2.637V13.96c0-.973-.24-1.663-.721-2.07-.481-.407-1.234-.61-2.259-.61h-2.092v6.69Zm8.387-2.811V7.357c0-1.162.305-2.092.914-2.79.625-.712 1.546-1.067 2.764-1.067 1.25 0 2.179.348 2.788 1.046.625.697.937 1.634.937 2.81v7.803c0 1.177-.312 2.114-.937 2.811-.609.698-1.538 1.046-2.788 1.046-1.218 0-2.139-.348-2.764-1.046-.609-.712-.914-1.649-.914-2.811Zm1.106-7.867v7.932c0 .887.208 1.591.625 2.114.416.509 1.065.763 1.947.763.897 0 1.554-.254 1.971-.763.432-.523.649-1.227.649-2.114V7.292c0-.887-.217-1.584-.649-2.093-.417-.523-1.074-.784-1.971-.784-.882 0-1.531.261-1.947.784-.417.509-.625 1.206-.625 2.093Zm14.947-2.746h-5.24v14.34h-1.106V3.63h7.476v15.256h-1.13V4.546Zm3.452 10.613V7.357c0-1.162.304-2.092.913-2.79.625-.712 1.547-1.067 2.765-1.067 1.249 0 2.179.348 2.788 1.046.625.697.937 1.634.937 2.81v7.803c0 1.177-.312 2.114-.937 2.811-.609.698-1.539 1.046-2.788 1.046-1.218 0-2.14-.348-2.765-1.046-.609-.712-.913-1.649-.913-2.811Zm1.106-7.867v7.932c0 .887.208 1.591.625 2.114.416.509 1.065.763 1.947.763.897 0 1.554-.254 1.97-.763.433-.523.649-1.227.649-2.114V7.292c0-.887-.216-1.584-.649-2.093-.416-.523-1.073-.784-1.97-.784-.882 0-1.531.261-1.947.784-.417.509-.625 1.206-.625 2.093Zm15.499 11.594-4.638-7.17-1.154 1.656v5.514h-1.106V3.63h1.106v8.064l5.48-8.064h1.154l-4.807 7.105 5.119 8.15h-1.154Zm10.151-3.378h-5.24l-.841 3.378h-1.01l3.678-15.278h1.61l3.75 15.278h-1.106l-.841-3.378Zm-2.644-10.744-2.428 9.872h4.904l-2.476-9.872Zm7.584-.218c.593-.698 1.507-1.046 2.74-1.046 1.234 0 2.148.348 2.74 1.046.593.697.89 1.634.89 2.81v.393c0 .756-.201 1.417-.601 1.983-.401.553-.962.938-1.683 1.155.753.19 1.322.56 1.707 1.112.384.552.577 1.213.577 1.983v1.177c0 1.177-.297 2.114-.89 2.811-.592.698-1.506 1.046-2.74 1.046-1.233 0-2.147-.348-2.74-1.046-.593-.697-.889-1.634-.889-2.811v-1.264h1.058v1.33c0 .871.2 1.568.6 2.092.417.523 1.066.784 1.947.784 1.699 0 2.548-.988 2.548-2.964V13.96c0-.784-.232-1.409-.697-1.874-.465-.465-1.098-.697-1.899-.697h-.937v-.916h1.009c.737 0 1.338-.24 1.803-.719.481-.494.721-1.097.721-1.809V7.38c0-1.976-.849-2.964-2.548-2.964-.881 0-1.53.261-1.947.784-.416.509-.625 1.206-.625 2.093v.828h-1.009v-.785c0-1.177.288-2.107.865-2.79Zm15.574 10.962h-5.24l-.841 3.378h-1.01l3.678-15.278h1.61l3.75 15.278h-1.106l-.841-3.378Zm-2.644-10.744-2.428 9.872h4.904l-2.476-9.872Zm13.089 6.952h-5.24v7.17h-1.106V3.63h1.106v7.17h5.24V3.63h1.129v15.256h-1.129v-7.17Zm10.014-6.32-2.524 6.32-2.764 7.17h-1.202V3.63h1.009v13.054l2.452-6.232 2.716-6.822h1.322v15.256h-1.009V5.396Zm9.629 6.668h-1.755c-1.041 0-1.826.196-2.355.589-.529.377-.793 1.046-.793 2.005v2.397c0 .843-.121 1.453-.361 1.83h-1.154c.273-.377.409-.987.409-1.83V14.68c0-1.758.809-2.797 2.428-3.117-1.619-.334-2.428-1.388-2.428-3.16v-1.33c0-2.295 1.202-3.443 3.605-3.443h3.51v15.256h-1.106v-6.822Zm0-7.518h-2.38c-1.682 0-2.523.871-2.523 2.615v1.438c0 .974.256 1.642.769 2.005s1.298.545 2.355.545h1.779V4.546Zm14.061 7.17h-5.24v7.17h-1.105V3.63h1.105v7.17h5.24V3.63h1.13v15.256h-1.13v-7.17Zm4.63-1.025h4.591v.916h-4.591v6.363h5.529v.916h-6.634V3.63h6.634v.916h-5.529v6.145Zm7.73 4.468V7.357c0-1.162.304-2.092.913-2.79.625-.712 1.547-1.067 2.764-1.067 1.25 0 2.18.348 2.789 1.046.624.697.937 1.634.937 2.81v7.803c0 1.177-.313 2.114-.937 2.811-.609.698-1.539 1.046-2.789 1.046-1.217 0-2.139-.348-2.764-1.046-.609-.712-.913-1.649-.913-2.811Zm1.106-7.867v7.932c0 .887.208 1.591.624 2.114.417.509 1.066.763 1.947.763.898 0 1.555-.254 1.971-.763.433-.523.649-1.227.649-2.114V7.292c0-.887-.216-1.584-.649-2.093-.416-.523-1.073-.784-1.971-.784-.881 0-1.53.261-1.947.784-.416.509-.624 1.206-.624 2.093Zm9.707 2.833h2.403c1.33 0 2.316.268 2.957.806s.961 1.402.961 2.593v1.722c0 2.426-1.242 3.64-3.725 3.64h-3.702V3.63h6.802v.916h-5.696v5.579Zm0 7.845h2.596c1.746 0 2.619-.886 2.619-2.658v-1.853c0-.9-.224-1.525-.673-1.874-.448-.349-1.161-.523-2.139-.523h-2.403v6.908Zm16.361.916-3.413-7.105-3.413 7.105h-1.081l3.797-7.911-3.533-7.345h1.154l3.172 6.56 3.197-6.56h1.058l-3.534 7.345 3.774 7.91h-1.178Zm3.304-3.727V7.357c0-1.162.304-2.092.913-2.79.625-.712 1.546-1.067 2.764-1.067 1.25 0 2.179.348 2.788 1.046.625.697.938 1.634.938 2.81v7.803c0 1.177-.313 2.114-.938 2.811-.609.698-1.538 1.046-2.788 1.046-1.218 0-2.139-.348-2.764-1.046-.609-.712-.913-1.649-.913-2.811Zm1.105-7.867v7.932c0 .887.209 1.591.625 2.114.417.509 1.066.763 1.947.763.897 0 1.554-.254 1.971-.763.433-.523.649-1.227.649-2.114V7.292c0-.887-.216-1.584-.649-2.093-.417-.523-1.074-.784-1.971-.784-.881 0-1.53.261-1.947.784-.416.509-.625 1.206-.625 2.093ZM363.292 21h-1.106v-2.114h-8.028V21h-1.082v-3.03h1.154c.497-.48.777-1.293.841-2.44l.673-11.9h6.154v14.34h1.394V21Zm-6.514-16.454-.625 10.983c-.08 1.192-.345 2.005-.793 2.441h5.408V4.546h-3.99Zm15.245.85-2.524 6.32-2.764 7.17h-1.202V3.63h1.01v13.054l2.451-6.232 2.716-6.822h1.322v15.256h-1.009V5.396Zm12.538-.066-3.51 13.534h-1.105l-3.558-13.49v13.512h-.985V3.63h1.586l3.534 13.49 3.509-13.49h1.586v15.256h-1.057V5.33Zm3.386 9.829V7.357c0-1.162.304-2.092.913-2.79.625-.712 1.547-1.067 2.764-1.067 1.25 0 2.18.348 2.789 1.046.624.697.937 1.634.937 2.81v7.803c0 1.177-.313 2.114-.937 2.811-.609.698-1.539 1.046-2.789 1.046-1.217 0-2.139-.348-2.764-1.046-.609-.712-.913-1.649-.913-2.811Zm1.106-7.867v7.932c0 .887.208 1.591.624 2.114.417.509 1.066.763 1.947.763.898 0 1.555-.254 1.971-.763.433-.523.649-1.227.649-2.114V7.292c0-.887-.216-1.584-.649-2.093-.416-.523-1.073-.784-1.971-.784-.881 0-1.53.261-1.947.784-.416.509-.624 1.206-.624 2.093Zm12.742 7.867V7.357c0-1.162.304-2.092.913-2.79.625-.712 1.546-1.067 2.764-1.067 1.25 0 2.179.348 2.788 1.046.625.697.938 1.634.938 2.81v7.803c0 1.177-.313 2.114-.938 2.811-.609.698-1.538 1.046-2.788 1.046-1.218 0-2.139-.348-2.764-1.046-.609-.712-.913-1.649-.913-2.811Zm1.105-7.867v7.932c0 .887.209 1.591.625 2.114.417.509 1.066.763 1.947.763.898 0 1.555-.254 1.971-.763.433-.523.649-1.227.649-2.114V7.292c0-.887-.216-1.584-.649-2.093-.416-.523-1.073-.784-1.971-.784-.881 0-1.53.261-1.947.784-.416.509-.625 1.206-.625 2.093Zm9.443-2.746c.593-.698 1.506-1.046 2.74-1.046 1.234 0 2.147.348 2.74 1.046.593.697.89 1.634.89 2.81v.393c0 .756-.201 1.417-.601 1.983-.401.553-.962.938-1.683 1.155.753.19 1.322.56 1.707 1.112.384.552.577 1.213.577 1.983v1.177c0 1.177-.297 2.114-.89 2.811-.593.698-1.506 1.046-2.74 1.046-1.234 0-2.147-.348-2.74-1.046-.593-.697-.889-1.634-.889-2.811v-1.264h1.057v1.33c0 .871.201 1.568.601 2.092.417.523 1.066.784 1.947.784 1.699 0 2.548-.988 2.548-2.964V13.96c0-.784-.232-1.409-.697-1.874-.465-.465-1.098-.697-1.899-.697h-.937v-.916h1.009c.737 0 1.338-.24 1.803-.719.481-.494.721-1.097.721-1.809V7.38c0-1.976-.849-2.964-2.548-2.964-.881 0-1.53.261-1.947.784-.416.509-.625 1.206-.625 2.093v.828h-1.009v-.785c0-1.177.288-2.107.865-2.79Zm15.069 7.17h-5.24v7.17h-1.106V3.63h1.106v7.17h5.24V3.63h1.13v15.256h-1.13v-7.17Zm10.374 3.792h-5.239l-.842 3.378h-1.009l3.677-15.278h1.611l3.749 15.278h-1.105l-.842-3.378Zm-2.643-10.744-2.428 9.872h4.903l-2.475-9.872Zm13.641 14.122-4.639-7.17-1.154 1.656v5.514h-1.105V3.63h1.105v8.064l5.481-8.064h1.153l-4.807 7.105 5.12 8.15h-1.154Zm3.228-3.727V7.357c0-1.162.304-2.092.913-2.79.625-.712 1.547-1.067 2.764-1.067 1.25 0 2.18.348 2.789 1.046.625.697.937 1.634.937 2.81v7.803c0 1.177-.312 2.114-.937 2.811-.609.698-1.539 1.046-2.789 1.046-1.217 0-2.139-.348-2.764-1.046-.609-.712-.913-1.649-.913-2.811Zm1.106-7.867v7.932c0 .887.208 1.591.625 2.114.416.509 1.065.763 1.946.763.898 0 1.555-.254 1.971-.763.433-.523.649-1.227.649-2.114V7.292c0-.887-.216-1.584-.649-2.093-.416-.523-1.073-.784-1.971-.784-.881 0-1.53.261-1.946.784-.417.509-.625 1.206-.625 2.093Zm17.759-1.962-3.509 13.534h-1.106l-3.557-13.49v13.512h-.986V3.63h1.586l3.534 13.49 3.509-13.49h1.586v15.256h-1.057V5.33Zm9.948.066-2.524 6.32-2.764 7.17h-1.202V3.63h1.01v13.054l2.451-6.232 2.716-6.822h1.322v15.256h-1.009V5.396Zm7.634 13.49h-1.105V4.546h-3.438V3.63h7.98v.916h-3.437v14.34Zm6.651-8.979h2.067c1.33 0 2.315.298 2.956.893.641.596.962 1.504.962 2.724v1.657c0 2.47-1.21 3.705-3.63 3.705h-3.461V3.63h1.106v6.277Zm0 8.063h2.355c1.683 0 2.524-.908 2.524-2.724V13.46c0-.93-.224-1.598-.673-2.005-.449-.421-1.162-.632-2.139-.632h-2.067v7.148Zm9.088-13.403c.593-.712 1.506-1.067 2.74-1.067 1.234 0 2.148.355 2.74 1.067.593.698.89 1.628.89 2.79V8.62h-1.058V7.29c0-.871-.208-1.569-.625-2.092-.4-.523-1.041-.784-1.923-.784-.881 0-1.53.261-1.947.784-.4.523-.6 1.22-.6 2.093v7.932c0 1.904.849 2.855 2.547 2.855 1.699 0 2.548-.951 2.548-2.855v-1.809h1.058v1.744c0 1.162-.297 2.1-.89 2.811-.592.698-1.506 1.046-2.74 1.046-1.234 0-2.147-.348-2.74-1.046-.593-.712-.889-1.649-.889-2.811V7.357c0-1.162.296-2.092.889-2.79Zm14.903 7.497h-1.755c-1.041 0-1.826.196-2.355.589-.529.377-.793 1.046-.793 2.005v2.397c0 .843-.12 1.453-.361 1.83h-1.153c.272-.377.408-.987.408-1.83V14.68c0-1.758.809-2.797 2.428-3.117-1.619-.334-2.428-1.388-2.428-3.16v-1.33c0-2.295 1.202-3.443 3.606-3.443h3.509v15.256h-1.106v-6.822Zm0-7.518h-2.379c-1.683 0-2.524.871-2.524 2.615v1.438c0 .974.256 1.642.769 2.005s1.298.545 2.355.545h1.779V4.546Z"/></g><g clip-path="url(#b)" fill="#292929" fill-opacity=".2"><path d="m-222.361 30.601-2.427 6.969-2.658 7.906h-1.156V28.654h.971V43.05l2.358-6.873 2.612-7.522h1.271v16.822h-.971V30.601Zm12.058-.072-3.375 14.923h-1.063l-3.421-14.875v14.9h-.948V28.653h1.525l3.398 14.876 3.375-14.876h1.526v16.822h-1.017V30.53Zm4.389 5.911h4.415v1.01h-4.415v7.017h5.316v1.01h-6.379V28.653h6.379v1.01h-5.316v6.777Zm14.923-7.93c1.186 0 2.072.385 2.658 1.154.601.769.901 1.802.901 3.1v8.603c0 1.298-.3 2.331-.901 3.1-.586.769-1.472 1.154-2.658 1.154-1.202 0-2.096-.385-2.682-1.154-.585-.769-.878-1.802-.878-3.1V37.57h-2.797v7.906h-1.063V28.654h1.063v7.907h2.797v-3.797c0-1.298.293-2.331.878-3.1.586-.77 1.48-1.154 2.682-1.154Zm0 1.01c-1.665 0-2.497 1.057-2.497 3.172v8.747c0 2.115.832 3.172 2.497 3.172.847 0 1.471-.28 1.872-.84.416-.578.624-1.355.624-2.332v-8.747c0-.978-.208-1.747-.624-2.307-.401-.577-1.025-.865-1.872-.865Zm9.887 15.956h-1.063V29.664h-3.305v-1.01h7.674v1.01h-3.306v15.812Zm6.119-15.788c.57-.785 1.448-1.178 2.635-1.178 1.186 0 2.065.393 2.635 1.178.57.769.855 1.794.855 3.076v1.394h-1.017v-1.466c0-.962-.2-1.73-.601-2.307-.385-.577-1.001-.865-1.849-.865-.848 0-1.472.288-1.872.865-.386.576-.578 1.345-.578 2.307v8.747c0 2.099.817 3.148 2.45 3.148 1.633 0 2.45-1.05 2.45-3.148v-1.995h1.017v1.923c0 1.282-.285 2.315-.855 3.1-.57.769-1.449 1.154-2.635 1.154-1.187 0-2.065-.385-2.635-1.154-.57-.785-.855-1.818-.855-3.1v-8.603c0-1.282.285-2.307.855-3.076Zm14.332 8.267h-1.688c-1.001 0-1.756.216-2.265.648-.509.417-.763 1.154-.763 2.211v2.644c0 .929-.115 1.602-.347 2.018h-1.109c.262-.416.393-1.09.393-2.018v-2.62c0-1.938.778-3.084 2.335-3.436-1.557-.369-2.335-1.53-2.335-3.485v-1.466c0-2.53 1.156-3.797 3.467-3.797h3.375v16.822h-1.063v-7.521Zm0-8.291h-2.289c-1.618 0-2.427.961-2.427 2.883v1.587c0 1.073.247 1.81.74 2.21.493.401 1.248.601 2.265.601h1.711v-7.281Zm13.522 0h-5.039v15.812h-1.063V28.654h7.189v16.822h-1.087V29.664Zm3.39-1.01h3.351c2.312 0 3.468 1.362 3.468 4.086v1.826c0 2.66-1.249 3.99-3.745 3.99h-2.011v6.92h-1.063V28.654Zm1.063 8.892h2.011c.94 0 1.618-.224 2.034-.673.432-.465.647-1.21.647-2.235v-1.97c0-2.003-.801-3.004-2.404-3.004h-2.288v7.882Zm7.749 3.821v-8.603c0-1.282.293-2.307.879-3.076.601-.785 1.487-1.178 2.658-1.178 1.202 0 2.096.385 2.681 1.154.601.769.902 1.802.902 3.1v8.603c0 1.298-.301 2.331-.902 3.1-.585.769-1.479 1.154-2.681 1.154-1.171 0-2.057-.385-2.658-1.154-.586-.785-.879-1.818-.879-3.1Zm1.064-8.675v8.747c0 .977.2 1.754.601 2.331.4.56 1.025.841 1.872.841.863 0 1.495-.28 1.895-.84.417-.578.625-1.355.625-2.332v-8.747c0-.978-.208-1.747-.625-2.307-.4-.577-1.032-.865-1.895-.865-.847 0-1.472.288-1.872.865-.401.56-.601 1.33-.601 2.307Zm12.363 12.784h-1.063V29.664h-3.306v-1.01h7.675v1.01h-3.306v15.812Zm11.574-14.875-2.427 6.969-2.659 7.906h-1.155V28.654h.97V43.05l2.358-6.873 2.612-7.522h1.272v16.822h-.971V30.601Zm3.25-1.947h3.398c1.187 0 2.034.297 2.543.89.508.592.763 1.49.763 2.691v.961c0 .962-.162 1.715-.486 2.26-.308.528-.855.88-1.641 1.057 1.618.336 2.427 1.538 2.427 3.604v1.466c0 2.596-1.179 3.893-3.536 3.893h-3.468V28.654Zm1.064 7.426h1.803c.986 0 1.695-.184 2.126-.553.432-.384.647-1.089.647-2.114V32.33c0-.913-.169-1.586-.508-2.018-.339-.433-.925-.65-1.757-.65h-2.311v6.417Zm0 8.387h2.404c1.648 0 2.473-.97 2.473-2.908v-1.514c0-1.073-.231-1.834-.694-2.283-.462-.448-1.186-.673-2.172-.673h-2.011v7.378Zm8.065-3.1v-8.603c0-1.282.293-2.307.879-3.076.6-.785 1.487-1.178 2.658-1.178 1.202 0 2.096.385 2.681 1.154.601.769.902 1.802.902 3.1v8.603c0 1.298-.3 2.331-.902 3.1-.585.769-1.48 1.154-2.681 1.154-1.171 0-2.058-.385-2.659-1.154-.585-.785-.878-1.818-.878-3.1Zm1.063-8.675v8.747c0 .977.2 1.754.601 2.331.401.56 1.025.841 1.873.841.863 0 1.495-.28 1.895-.84.416-.578.624-1.355.624-2.332v-8.747c0-.978-.208-1.747-.624-2.307-.4-.577-1.032-.865-1.895-.865-.848 0-1.472.288-1.873.865-.4.56-.6 1.33-.6 2.307Zm14.375-3.028h-5.04v15.812h-1.063V28.654h7.19v16.822h-1.087V29.664Zm3.32 11.703v-8.603c0-1.282.292-2.307.878-3.076.601-.785 1.487-1.178 2.658-1.178 1.202 0 2.096.385 2.682 1.154.6.769.901 1.802.901 3.1v8.603c0 1.298-.3 2.331-.901 3.1-.586.769-1.48 1.154-2.682 1.154-1.17 0-2.057-.385-2.658-1.154-.586-.785-.878-1.818-.878-3.1Zm1.063-8.675v8.747c0 .977.2 1.754.6 2.331.402.56 1.026.841 1.873.841.863 0 1.495-.28 1.896-.84.416-.578.624-1.355.624-2.332v-8.747c0-.978-.208-1.747-.624-2.307-.4-.577-1.033-.865-1.896-.865-.847 0-1.471.288-1.872.865-.4.56-.601 1.33-.601 2.307Zm14.906 12.784-4.461-7.906-1.11 1.826v6.08h-1.063V28.654h1.063v8.892l5.27-8.892h1.11l-4.623 7.835 4.923 8.987h-1.11Zm9.762-3.724h-5.04l-.809 3.724h-.97l3.536-16.846h1.549l3.606 16.846h-1.064l-.809-3.724Zm-2.543-11.848-2.335 10.886h4.716l-2.381-10.886Zm7.293-.24c.57-.77 1.45-1.154 2.636-1.154 1.186 0 2.065.385 2.635 1.154.57.769.855 1.802.855 3.1v.432c0 .833-.193 1.562-.578 2.187a3.034 3.034 0 0 1-1.618 1.274c.724.208 1.272.617 1.641 1.225.37.61.555 1.338.555 2.187v1.298c0 1.298-.285 2.331-.855 3.1-.57.769-1.449 1.154-2.635 1.154-1.187 0-2.065-.385-2.635-1.154-.57-.769-.856-1.802-.856-3.1v-1.394h1.017v1.466c0 .961.193 1.73.578 2.307.401.577 1.025.865 1.873.865 1.633 0 2.45-1.09 2.45-3.268v-1.298c0-.865-.224-1.554-.67-2.066-.447-.513-1.056-.77-1.827-.77h-.901V36.2h.97c.71 0 1.287-.264 1.734-.793.463-.544.694-1.21.694-1.994v-.625c0-2.179-.817-3.268-2.45-3.268-.848 0-1.472.288-1.873.865-.4.56-.6 1.33-.6 2.307v.913h-.971v-.865c0-1.298.277-2.323.832-3.076Zm14.978 12.088h-5.04l-.809 3.724h-.97l3.536-16.846h1.549l3.606 16.846h-1.063l-.81-3.724Zm-2.543-11.848L-38.21 40.79h4.716l-2.381-10.886Zm12.587 7.666h-5.039v7.906h-1.063V28.654h1.063v7.907h5.04v-7.907h1.086v16.822h-1.087V37.57Zm9.63-6.969-2.427 6.969-2.658 7.906h-1.155V28.654h.97V43.05l2.358-6.873 2.612-7.522h1.271v16.822h-.97V30.601Zm9.261 7.354h-1.687c-1.002 0-1.757.216-2.266.648-.508.417-.762 1.154-.762 2.211v2.644c0 .929-.116 1.602-.347 2.018h-1.11c.262-.416.393-1.09.393-2.018v-2.62c0-1.938.778-3.084 2.335-3.436-1.557-.369-2.335-1.53-2.335-3.485v-1.466c0-2.53 1.156-3.797 3.468-3.797h3.374v16.822h-1.063v-7.521Zm0-8.291h-2.288c-1.618 0-2.427.961-2.427 2.883v1.587c0 1.073.246 1.81.74 2.21.492.401 1.247.601 2.264.601h1.711v-7.281ZM9.126 37.57h-5.04v7.906H3.024V28.654h1.064v7.907h5.039v-7.907h1.086v16.822H9.126V37.57Zm4.452-1.13h4.415v1.01h-4.415v7.017h5.317v1.01h-6.38V28.653h6.38v1.01h-5.317v6.777Zm7.434 4.927v-8.603c0-1.282.293-2.307.878-3.076.601-.785 1.487-1.178 2.658-1.178 1.202 0 2.096.385 2.682 1.154.6.769.901 1.802.901 3.1v8.603c0 1.298-.3 2.331-.901 3.1-.586.769-1.48 1.154-2.682 1.154-1.17 0-2.057-.385-2.658-1.154-.585-.785-.878-1.818-.878-3.1Zm1.063-8.675v8.747c0 .977.2 1.754.601 2.331.4.56 1.025.841 1.872.841.863 0 1.495-.28 1.896-.84.416-.578.624-1.355.624-2.332v-8.747c0-.978-.208-1.747-.624-2.307-.4-.577-1.033-.865-1.896-.865-.847 0-1.471.288-1.872.865-.4.56-.601 1.33-.601 2.307Zm9.335 3.124h2.312c1.279 0 2.227.296 2.843.889.616.593.925 1.546.925 2.86v1.898c0 2.676-1.195 4.013-3.583 4.013h-3.56V28.654h6.541v1.01H31.41v6.152Zm0 8.651h2.497c1.68 0 2.52-.977 2.52-2.932v-2.042c0-.994-.216-1.683-.648-2.067-.431-.385-1.117-.577-2.057-.577H31.41v7.618Zm15.735 1.009-3.282-7.834-3.282 7.834h-1.04l3.652-8.723-3.398-8.099h1.11l3.05 7.234 3.075-7.234h1.017l-3.398 8.099 3.629 8.723h-1.133Zm3.177-4.109v-8.603c0-1.282.293-2.307.878-3.076.601-.785 1.487-1.178 2.658-1.178 1.203 0 2.096.385 2.682 1.154.6.769.901 1.802.901 3.1v8.603c0 1.298-.3 2.331-.901 3.1-.586.769-1.48 1.154-2.681 1.154-1.172 0-2.058-.385-2.659-1.154-.585-.785-.878-1.818-.878-3.1Zm1.063-8.675v8.747c0 .977.2 1.754.601 2.331.4.56 1.025.841 1.873.841.862 0 1.494-.28 1.895-.84.416-.578.624-1.355.624-2.332v-8.747c0-.978-.208-1.747-.624-2.307-.4-.577-1.032-.865-1.895-.865-.848 0-1.472.288-1.873.865-.4.56-.6 1.33-.6 2.307Zm17.888 15.115H68.21v-2.33h-7.72v2.33h-1.04v-3.34h1.109c.477-.529.747-1.426.809-2.691l.647-13.122h5.917v15.813h1.341v3.34Zm-6.264-18.143-.601 12.111c-.077 1.314-.331 2.211-.763 2.692h5.2V29.664H63.01Zm14.661.937-2.427 6.969-2.659 7.906H71.43V28.654h.97V43.05l2.358-6.873 2.612-7.522h1.272v16.822h-.971V30.601Zm12.057-.072-3.375 14.923H85.29l-3.421-14.875v14.9h-.948V28.653h1.526l3.398 14.876 3.375-14.876h1.525v16.822h-1.017V30.53Zm3.257 10.838v-8.603c0-1.282.293-2.307.878-3.076.601-.785 1.487-1.178 2.658-1.178 1.202 0 2.096.385 2.682 1.154.6.769.901 1.802.901 3.1v8.603c0 1.298-.3 2.331-.901 3.1-.586.769-1.48 1.154-2.682 1.154-1.17 0-2.057-.385-2.658-1.154-.585-.785-.878-1.818-.878-3.1Zm1.063-8.675v8.747c0 .977.2 1.754.601 2.331.4.56 1.025.841 1.872.841.863 0 1.495-.28 1.896-.84.416-.578.624-1.355.624-2.332v-8.747c0-.978-.208-1.747-.624-2.307-.4-.577-1.033-.865-1.896-.865-.847 0-1.471.288-1.872.865-.4.56-.601 1.33-.601 2.307Zm12.254 8.675v-8.603c0-1.282.293-2.307.878-3.076.601-.785 1.488-1.178 2.659-1.178 1.202 0 2.095.385 2.681 1.154.601.769.902 1.802.902 3.1v8.603c0 1.298-.301 2.331-.902 3.1-.586.769-1.479 1.154-2.681 1.154-1.171 0-2.058-.385-2.659-1.154-.585-.785-.878-1.818-.878-3.1Zm1.063-8.675v8.747c0 .977.201 1.754.601 2.331.401.56 1.025.841 1.873.841.863 0 1.494-.28 1.895-.84.416-.578.624-1.355.624-2.332v-8.747c0-.978-.208-1.747-.624-2.307-.401-.577-1.032-.865-1.895-.865-.848 0-1.472.288-1.873.865-.4.56-.601 1.33-.601 2.307Zm9.081-3.028c.571-.77 1.449-1.154 2.635-1.154 1.187 0 2.065.385 2.636 1.154.57.769.855 1.802.855 3.1v.432c0 .833-.193 1.562-.578 2.187a3.034 3.034 0 0 1-1.618 1.274c.724.208 1.271.617 1.641 1.225.37.61.555 1.338.555 2.187v1.298c0 1.298-.285 2.331-.855 3.1-.571.769-1.449 1.154-2.636 1.154-1.186 0-2.064-.385-2.635-1.154-.57-.769-.855-1.802-.855-3.1v-1.394h1.017v1.466c0 .961.193 1.73.578 2.307.401.577 1.025.865 1.872.865 1.634 0 2.451-1.09 2.451-3.268v-1.298c0-.865-.224-1.554-.671-2.066-.447-.513-1.055-.77-1.826-.77h-.901V36.2h.97c.709 0 1.287-.264 1.734-.793.462-.544.694-1.21.694-1.994v-.625c0-2.179-.817-3.268-2.451-3.268-.847 0-1.471.288-1.872.865-.401.56-.601 1.33-.601 2.307v.913h-.971v-.865c0-1.298.278-2.323.832-3.076Zm14.492 7.906h-5.039v7.906h-1.063V28.654h1.063v7.907h5.039v-7.907h1.086v16.822h-1.086V37.57Zm9.977 4.182h-5.039l-.809 3.724h-.971l3.537-16.846h1.548l3.606 16.846h-1.063l-.809-3.724Zm-2.543-11.848-2.334 10.886h4.715l-2.381-10.886Zm13.119 15.572-4.461-7.906-1.11 1.826v6.08h-1.063V28.654h1.063v8.892l5.271-8.892h1.109l-4.623 7.835 4.924 8.987h-1.11Zm3.105-4.109v-8.603c0-1.282.292-2.307.878-3.076.601-.785 1.487-1.178 2.658-1.178 1.202 0 2.096.385 2.681 1.154.601.769.902 1.802.902 3.1v8.603c0 1.298-.301 2.331-.902 3.1-.585.769-1.479 1.154-2.681 1.154-1.171 0-2.057-.385-2.658-1.154-.586-.785-.878-1.818-.878-3.1Zm1.063-8.675v8.747c0 .977.2 1.754.601 2.331.4.56 1.025.841 1.872.841.863 0 1.495-.28 1.896-.84.416-.578.624-1.355.624-2.332v-8.747c0-.978-.208-1.747-.624-2.307-.401-.577-1.033-.865-1.896-.865-.847 0-1.472.288-1.872.865-.401.56-.601 1.33-.601 2.307Zm17.079-2.163-3.375 14.923h-1.064l-3.421-14.875v14.9h-.947V28.653h1.525l3.398 14.876 3.375-14.876h1.526v16.822h-1.017V30.53Zm9.567.072-2.428 6.969-2.658 7.906h-1.156V28.654h.971V43.05l2.358-6.873 2.612-7.522h1.271v16.822h-.97V30.601Zm7.341 14.875h-1.063V29.664h-3.305v-1.01h7.674v1.01h-3.306v15.812Zm6.396-9.901h1.988c1.279 0 2.227.329 2.843.986.617.657.925 1.658.925 3.004v1.826c0 2.724-1.163 4.085-3.49 4.085h-3.329V28.654h1.063v6.921Zm0 8.892h2.266c1.618 0 2.427-1.001 2.427-3.004v-1.97c0-1.026-.216-1.763-.647-2.211-.432-.465-1.118-.697-2.058-.697h-1.988v7.882Zm8.741-14.779c.57-.785 1.448-1.178 2.635-1.178 1.186 0 2.065.393 2.635 1.178.57.769.855 1.794.855 3.076v1.394h-1.017v-1.466c0-.962-.2-1.73-.601-2.307-.385-.577-1.002-.865-1.849-.865-.848 0-1.472.288-1.873.865-.385.576-.577 1.345-.577 2.307v8.747c0 2.099.816 3.148 2.45 3.148 1.633 0 2.45-1.05 2.45-3.148v-1.995h1.017v1.923c0 1.282-.285 2.315-.855 3.1-.57.769-1.449 1.154-2.635 1.154-1.187 0-2.065-.385-2.635-1.154-.571-.785-.856-1.818-.856-3.1v-8.603c0-1.282.285-2.307.856-3.076Zm14.331 8.267h-1.687c-1.002 0-1.757.216-2.265.648-.509.417-.763 1.154-.763 2.211v2.644c0 .929-.116 1.602-.347 2.018h-1.109c.262-.416.393-1.09.393-2.018v-2.62c0-1.938.778-3.084 2.334-3.436-1.556-.369-2.334-1.53-2.334-3.485v-1.466c0-2.53 1.155-3.797 3.467-3.797h3.375v16.822h-1.064v-7.521Zm0-8.291h-2.288c-1.618 0-2.427.961-2.427 2.883v1.587c0 1.073.247 1.81.74 2.21.493.401 1.248.601 2.265.601h1.71v-7.281Zm9.773-.636c.548-.817 1.392-1.226 2.531-1.226 1.14 0 1.984.409 2.532 1.226.547.8.821 1.867.821 3.2v1.45h-.977v-1.524c0-1-.192-1.801-.577-2.401-.37-.6-.962-.9-1.776-.9-.815 0-1.414.3-1.799.9-.37.6-.555 1.4-.555 2.4v9.103c0 2.184.784 3.276 2.354 3.276 1.569 0 2.353-1.092 2.353-3.276V39.18h.977v2.001c0 1.334-.274 2.409-.821 3.226-.548.8-1.392 1.2-2.532 1.2-1.139 0-1.983-.4-2.531-1.2-.548-.817-.821-1.892-.821-3.226v-8.953c0-1.333.273-2.4.821-3.2Zm17.881.95-2.332 7.252-2.553 8.227h-1.11V27.952h.932v14.98l2.265-7.153 2.509-7.827h1.221v17.505h-.932v-15.48Zm8.984 7.252h-4.84v8.227h-1.022V27.952h1.022v8.228h4.84v-8.228h1.044v17.505h-1.044V37.23Zm4.011-8.202c.547-.817 1.391-1.226 2.531-1.226 1.14 0 1.984.409 2.531 1.226.548.8.822 1.867.822 3.2v1.45h-.977v-1.524c0-1-.193-1.801-.578-2.401-.37-.6-.962-.9-1.776-.9-.814 0-1.413.3-1.798.9-.37.6-.555 1.4-.555 2.4v9.103c0 2.184.784 3.276 2.353 3.276 1.569 0 2.354-1.092 2.354-3.276V39.18h.977v2.001c0 1.334-.274 2.409-.822 3.226-.547.8-1.391 1.2-2.531 1.2-1.14 0-1.984-.4-2.531-1.2-.548-.817-.822-1.892-.822-3.226v-8.953c0-1.333.274-2.4.822-3.2Zm11.924 16.429h-1.022V29.003h-3.175v-1.05h7.372v1.05h-3.175v16.454Zm5.122-17.505h3.22c2.22 0 3.33 1.417 3.33 4.251v1.901c0 2.767-1.199 4.151-3.597 4.151h-1.932v7.202h-1.021V27.952Zm1.021 9.253h1.932c.903 0 1.554-.233 1.954-.7.415-.484.622-1.259.622-2.326v-2.05c0-2.084-.77-3.126-2.309-3.126h-2.199v8.202Zm15.46-9.253-4.019 14.254c-.281 1.167-.658 2.017-1.132 2.551-.474.517-1.236.75-2.287.7v-1.025c.681.017 1.184-.134 1.51-.45.325-.334.592-.867.799-1.6l.644-2.126-3.73-12.304h1.043l1.821 6.177 1.354 4.676 1.244-4.701 1.687-6.152h1.066Zm8.322 17.505-4.286-8.227-1.065 1.9v6.327h-1.022V27.952h1.022v9.253l5.062-9.253h1.066l-4.441 8.153 4.73 9.352h-1.066Zm11.508 2.351h-.999v-2.35h-7.172V27.951h.999v16.455h4.841V27.952h1.043v16.455h1.288v3.4Zm8.084-17.83-2.331 7.252-2.554 8.227h-1.11V27.952h.932v14.98l2.265-7.153 2.509-7.827h1.222v17.505h-.933v-15.48Zm4.144 6.077h4.241v1.05h-4.241v7.302h5.107v1.05h-6.129V27.952h6.129v1.05h-5.107v7.053Zm12.336-11.404h.688c-.015.65-.229 1.167-.644 1.55-.414.384-.947.576-1.598.576-.652 0-1.185-.183-1.599-.55-.4-.384-.607-.909-.622-1.576h.711c.015.467.163.817.444 1.05.281.217.636.326 1.066.326.991 0 1.51-.459 1.554-1.376Zm.866 5.327-2.221 6.952-2.664 8.527h-1.11V27.952h.932v14.98l2.021-6.377 2.753-8.603h1.221v17.505h-.932v-15.48Z" opacity=".7"/></g><defs><clipPath id="a"><path fill="#fff" transform="translate(53.55)" d="M0 0h235.899v21H0z"/></clipPath><clipPath id="b"><path fill="#fff" transform="translate(0 26)" d="M0 0h343v23.279H0z"/></clipPath></defs></svg>