<svg width="1739" height="62" fill="none" xmlns="http://www.w3.org/2000/svg"><path d="m19.105 15.89-7.43 18.605-8.137 21.108H0v-44.91h2.972v38.43l7.217-18.349 7.996-20.081h3.892v44.91h-2.972V15.89Zm36.91-.193L45.684 55.54h-3.255L31.957 15.826v39.777h-2.902v-44.91h4.67l10.402 39.713 10.331-39.713h4.67v44.91h-3.113V15.697ZM69.45 31.48h13.516v2.695H69.45v18.733h16.274v2.695h-19.53v-44.91h19.53v2.695H69.451V31.48Zm45.682-21.172c3.632 0 6.345 1.027 8.137 3.08 1.84 2.053 2.76 4.811 2.76 8.276v22.968c0 3.465-.92 6.224-2.76 8.276-1.792 2.053-4.505 3.08-8.137 3.08-3.679 0-6.415-1.026-8.208-3.08-1.793-2.053-2.689-4.811-2.689-8.276V34.495h-8.562v21.108h-3.255v-44.91h3.255v21.108h8.562V21.664c0-3.465.896-6.223 2.689-8.276 1.793-2.053 4.529-3.08 8.208-3.08Zm0 2.695c-5.095 0-7.642 2.823-7.642 8.468v23.354c0 5.645 2.547 8.468 7.642 8.468 2.595 0 4.505-.748 5.732-2.245 1.273-1.54 1.91-3.614 1.91-6.223V21.47c0-2.609-.637-4.662-1.91-6.159-1.227-1.54-3.137-2.31-5.732-2.31Zm30.268 42.6h-3.255V13.388h-10.119v-2.695h23.492v2.695H145.4v42.215Zm18.73-42.151c1.745-2.096 4.434-3.144 8.066-3.144 3.632 0 6.321 1.048 8.067 3.144 1.745 2.053 2.618 4.79 2.618 8.212v3.721h-3.114v-3.914c0-2.566-.613-4.619-1.839-6.159-1.18-1.54-3.067-2.31-5.661-2.31-2.595 0-4.505.77-5.732 2.31-1.179 1.54-1.769 3.593-1.769 6.16v23.353c0 5.603 2.5 8.404 7.501 8.404 5 0 7.5-2.801 7.5-8.404V39.5h3.114v5.132c0 3.422-.873 6.18-2.618 8.276-1.746 2.053-4.435 3.08-8.067 3.08-3.632 0-6.321-1.026-8.066-3.08-1.746-2.095-2.619-4.854-2.619-8.276V21.664c0-3.422.873-6.16 2.619-8.212Zm43.872 22.07h-5.165c-3.067 0-5.378.577-6.935 1.732-1.557 1.112-2.335 3.08-2.335 5.903v7.057c0 2.48-.354 4.277-1.061 5.39h-3.397c.802-1.113 1.203-2.91 1.203-5.39V43.22c0-5.176 2.382-8.234 7.147-9.175-4.765-.983-7.147-4.084-7.147-9.302V20.83c0-6.758 3.538-10.137 10.614-10.137h10.331v44.91h-3.255V35.522Zm0-22.134h-7.005c-4.953 0-7.43 2.566-7.43 7.699v4.234c0 2.866.755 4.833 2.264 5.902 1.51 1.07 3.821 1.604 6.935 1.604h5.236v-19.44Zm41.395 0h-15.425v42.215h-3.255v-44.91h22.006v44.91h-3.326V13.388Zm10.375-2.695h10.26c7.076 0 10.614 3.636 10.614 10.907v4.876c0 7.1-3.821 10.65-11.463 10.65h-6.156v18.477h-3.255v-44.91Zm3.255 23.738h6.156c2.878 0 4.953-.599 6.227-1.796 1.321-1.24 1.981-3.23 1.981-5.967v-5.26c0-5.347-2.453-8.02-7.359-8.02h-7.005V34.43Zm23.723 10.201V21.664c0-3.422.896-6.16 2.689-8.212 1.839-2.096 4.552-3.144 8.137-3.144 3.68 0 6.416 1.027 8.208 3.08 1.84 2.053 2.76 4.811 2.76 8.276v22.968c0 3.465-.92 6.224-2.76 8.276-1.792 2.053-4.528 3.08-8.208 3.08-3.585 0-6.298-1.026-8.137-3.08-1.793-2.095-2.689-4.854-2.689-8.276Zm3.255-23.16v23.353c0 2.609.613 4.683 1.84 6.223 1.226 1.497 3.137 2.245 5.731 2.245 2.642 0 4.576-.748 5.802-2.245 1.274-1.54 1.911-3.614 1.911-6.223V21.47c0-2.609-.637-4.662-1.911-6.159-1.226-1.54-3.16-2.31-5.802-2.31-2.594 0-4.505.77-5.731 2.31-1.227 1.497-1.84 3.55-1.84 6.16Zm37.846 34.131h-3.255V13.388h-10.118v-2.695h23.492v2.695h-10.119v42.215ZM363.28 15.89l-7.43 18.605-8.137 21.108h-3.538v-44.91h2.972v38.43l7.217-18.349 7.996-20.081h3.892v44.91h-2.972V15.89Zm9.95-5.197h10.402c3.632 0 6.227.791 7.784 2.374 1.556 1.582 2.335 3.978 2.335 7.186v2.566c0 2.566-.496 4.576-1.486 6.03-.944 1.412-2.618 2.353-5.024 2.823 4.953.899 7.43 4.107 7.43 9.624v3.914c0 6.929-3.609 10.393-10.827 10.393H373.23v-44.91Zm3.255 19.825h5.52c3.019 0 5.189-.492 6.509-1.476 1.321-1.027 1.982-2.908 1.982-5.646V20.51c0-2.438-.519-4.234-1.557-5.39-1.038-1.154-2.83-1.731-5.378-1.731h-7.076v17.13Zm0 22.39h7.359c5.048 0 7.572-2.587 7.572-7.763v-4.041c0-2.866-.708-4.898-2.123-6.095-1.415-1.198-3.633-1.797-6.652-1.797h-6.156v19.696Zm24.69-8.276V21.664c0-3.422.897-6.16 2.689-8.212 1.84-2.096 4.552-3.144 8.138-3.144 3.679 0 6.415 1.027 8.208 3.08 1.839 2.053 2.759 4.811 2.759 8.276v22.968c0 3.465-.92 6.224-2.759 8.276-1.793 2.053-4.529 3.08-8.208 3.08-3.586 0-6.298-1.026-8.138-3.08-1.792-2.095-2.689-4.854-2.689-8.276Zm3.255-23.16v23.353c0 2.609.614 4.683 1.84 6.223 1.227 1.497 3.137 2.245 5.732 2.245 2.641 0 4.575-.748 5.802-2.245 1.273-1.54 1.91-3.614 1.91-6.223V21.47c0-2.609-.637-4.662-1.91-6.159-1.227-1.54-3.161-2.31-5.802-2.31-2.595 0-4.505.77-5.732 2.31-1.226 1.497-1.84 3.55-1.84 6.16Zm44.003-8.084h-15.426v42.215h-3.255v-44.91h22.006v44.91h-3.325V13.388Zm10.162 31.244V21.664c0-3.422.897-6.16 2.689-8.212 1.84-2.096 4.553-3.144 8.138-3.144 3.679 0 6.415 1.027 8.208 3.08 1.839 2.053 2.759 4.811 2.759 8.276v22.968c0 3.465-.92 6.224-2.759 8.276-1.793 2.053-4.529 3.08-8.208 3.08-3.585 0-6.298-1.026-8.138-3.08-1.792-2.095-2.689-4.854-2.689-8.276Zm3.255-23.16v23.353c0 2.609.614 4.683 1.84 6.223 1.227 1.497 3.137 2.245 5.732 2.245 2.641 0 4.575-.748 5.802-2.245 1.274-1.54 1.91-3.614 1.91-6.223V21.47c0-2.609-.636-4.662-1.91-6.159-1.227-1.54-3.161-2.31-5.802-2.31-2.595 0-4.505.77-5.732 2.31-1.226 1.497-1.84 3.55-1.84 6.16Zm45.63 34.131-13.656-21.108-3.397 4.876v16.232h-3.255v-44.91h3.255v23.738l16.133-23.738h3.397l-14.152 20.915 15.072 23.995h-3.397Zm29.882-9.944h-15.426l-2.477 9.944h-2.971l10.826-44.974h4.741l11.038 44.974h-3.255l-2.476-9.944Zm-7.784-31.63-7.147 29.063h14.435l-7.288-29.063Zm22.328-.641c1.745-2.053 4.434-3.08 8.066-3.08 3.633 0 6.322 1.027 8.067 3.08s2.618 4.811 2.618 8.276v1.155c0 2.224-.589 4.17-1.769 5.838-1.179 1.625-2.83 2.759-4.953 3.4 2.217.556 3.892 1.647 5.024 3.272 1.132 1.626 1.698 3.572 1.698 5.839v3.464c0 3.465-.873 6.224-2.618 8.276-1.745 2.053-4.434 3.08-8.067 3.08-3.632 0-6.321-1.026-8.066-3.08-1.745-2.053-2.618-4.811-2.618-8.276v-3.72h3.113v3.913c0 2.566.59 4.619 1.769 6.159 1.227 1.54 3.137 2.31 5.732 2.31 5 0 7.5-2.909 7.5-8.726v-3.464c0-2.31-.684-4.15-2.052-5.518-1.368-1.369-3.231-2.053-5.59-2.053h-2.759v-2.695h2.971c2.17 0 3.939-.705 5.307-2.117 1.416-1.454 2.123-3.229 2.123-5.325v-1.668c0-5.817-2.5-8.725-7.5-8.725-2.595 0-4.505.77-5.732 2.31-1.226 1.496-1.839 3.55-1.839 6.158v2.438h-2.972V21.6c0-3.464.849-6.201 2.547-8.211Zm45.847 32.271h-15.425l-2.477 9.944h-2.972l10.826-44.974h4.741l11.038 44.974h-3.254l-2.477-9.944Zm-7.783-31.63-7.147 29.063h14.435L589.97 14.03Zm38.531 20.466h-15.425v21.108h-3.255v-44.91h3.255v21.108h15.425V10.693h3.326v44.91h-3.326V34.495Zm29.48-18.605-7.429 18.605-8.138 21.108h-3.538v-44.91h2.972v38.43l7.218-18.349 7.996-20.081h3.891v44.91h-2.972V15.89Zm28.348 19.632h-5.165c-3.066 0-5.378.577-6.935 1.732-1.556 1.112-2.335 3.08-2.335 5.903v7.057c0 2.48-.353 4.277-1.061 5.39h-3.396c.801-1.113 1.203-2.91 1.203-5.39V43.22c0-5.176 2.382-8.234 7.146-9.175-4.764-.983-7.146-4.084-7.146-9.302V20.83c0-6.758 3.537-10.137 10.613-10.137h10.331v44.91h-3.255V35.522Zm0-22.134h-7.005c-4.953 0-7.43 2.566-7.43 7.699v4.234c0 2.866.755 4.833 2.265 5.902 1.509 1.07 3.821 1.604 6.934 1.604h5.236v-19.44Zm41.396 21.107h-15.426v21.108h-3.255v-44.91h3.255v21.108h15.426V10.693h3.325v44.91h-3.325V34.495Zm13.63-3.015h13.515v2.695h-13.515v18.733h16.274v2.695H738.1v-44.91h19.529v2.695h-16.274V31.48Zm22.755 13.152V21.664c0-3.422.896-6.16 2.689-8.212 1.839-2.096 4.552-3.144 8.137-3.144 3.679 0 6.415 1.027 8.208 3.08 1.84 2.053 2.76 4.811 2.76 8.276v22.968c0 3.465-.92 6.224-2.76 8.276-1.793 2.053-4.529 3.08-8.208 3.08-3.585 0-6.298-1.026-8.137-3.08-1.793-2.095-2.689-4.854-2.689-8.276Zm3.255-23.16v23.353c0 2.609.613 4.683 1.839 6.223 1.227 1.497 3.137 2.245 5.732 2.245 2.642 0 4.576-.748 5.802-2.245 1.274-1.54 1.911-3.614 1.911-6.223V21.47c0-2.609-.637-4.662-1.911-6.159-1.226-1.54-3.16-2.31-5.802-2.31-2.595 0-4.505.77-5.732 2.31-1.226 1.497-1.839 3.55-1.839 6.16Zm28.576 8.34h7.076c3.916 0 6.817.791 8.704 2.374 1.887 1.582 2.83 4.127 2.83 7.634v5.069c0 7.143-3.656 10.714-10.968 10.714h-10.896v-44.91h20.024v2.695h-16.77v16.424Zm0 23.096h7.642c5.142 0 7.713-2.609 7.713-7.827v-5.453c0-2.652-.66-4.491-1.981-5.518-1.321-1.026-3.42-1.54-6.298-1.54h-7.076v20.338Zm48.168 2.695-10.048-20.915-10.048 20.915h-3.184l11.18-23.289-10.402-21.621h3.397l9.34 19.311 9.411-19.311h3.113l-10.401 21.621 11.109 23.29h-3.467Zm9.724-10.971V21.664c0-3.422.896-6.16 2.689-8.212 1.84-2.096 4.552-3.144 8.137-3.144 3.68 0 6.416 1.027 8.208 3.08 1.84 2.053 2.76 4.811 2.76 8.276v22.968c0 3.465-.92 6.224-2.76 8.276-1.792 2.053-4.528 3.08-8.208 3.08-3.585 0-6.297-1.026-8.137-3.08-1.793-2.095-2.689-4.854-2.689-8.276Zm3.255-23.16v23.353c0 2.609.613 4.683 1.84 6.223 1.226 1.497 3.137 2.245 5.731 2.245 2.642 0 4.576-.748 5.803-2.245 1.273-1.54 1.91-3.614 1.91-6.223V21.47c0-2.609-.637-4.662-1.91-6.159-1.227-1.54-3.161-2.31-5.803-2.31-2.594 0-4.505.77-5.731 2.31-1.227 1.497-1.84 3.55-1.84 6.16Zm54.758 40.354h-3.255v-6.223h-23.634v6.223h-3.184v-8.918h3.397c1.462-1.411 2.287-3.806 2.476-7.185l1.981-35.03h18.115v42.215h4.104v8.918ZM892.67 13.388l-1.84 32.335c-.236 3.507-1.014 5.902-2.335 7.185h15.921v-39.52H892.67Zm44.88 2.502-7.43 18.605-8.137 21.108h-3.538v-44.91h2.972v38.43l7.217-18.349 7.996-20.081h3.892v44.91h-2.972V15.89Zm36.909-.193-10.33 39.842h-3.255l-10.473-39.713v39.777H947.5v-44.91h4.67l10.402 39.713 10.331-39.713h4.67v44.91h-3.114V15.697Zm9.969 28.935V21.664c0-3.422.897-6.16 2.689-8.212 1.84-2.096 4.552-3.144 8.137-3.144 3.68 0 6.416 1.027 8.206 3.08 1.84 2.053 2.76 4.811 2.76 8.276v22.968c0 3.465-.92 6.224-2.76 8.276-1.79 2.053-4.526 3.08-8.206 3.08-3.585 0-6.297-1.026-8.137-3.08-1.792-2.095-2.689-4.854-2.689-8.276Zm3.255-23.16v23.353c0 2.609.613 4.683 1.84 6.223 1.226 1.497 3.137 2.245 5.731 2.245 2.642 0 4.576-.748 5.806-2.245 1.27-1.54 1.91-3.614 1.91-6.223V21.47c0-2.609-.64-4.662-1.91-6.159-1.23-1.54-3.164-2.31-5.806-2.31-2.594 0-4.505.77-5.731 2.31-1.227 1.497-1.84 3.55-1.84 6.16Zm37.507 23.16V21.664c0-3.422.9-6.16 2.69-8.212 1.84-2.096 4.56-3.144 8.14-3.144 3.68 0 6.42 1.027 8.21 3.08 1.84 2.053 2.76 4.811 2.76 8.276v22.968c0 3.465-.92 6.224-2.76 8.276-1.79 2.053-4.53 3.08-8.21 3.08-3.58 0-6.3-1.026-8.14-3.08-1.79-2.095-2.69-4.854-2.69-8.276Zm3.26-23.16v23.353c0 2.609.61 4.683 1.84 6.223 1.23 1.497 3.14 2.245 5.73 2.245 2.64 0 4.58-.748 5.8-2.245 1.28-1.54 1.91-3.614 1.91-6.223V21.47c0-2.609-.63-4.662-1.91-6.159-1.22-1.54-3.16-2.31-5.8-2.31-2.59 0-4.5.77-5.73 2.31-1.23 1.497-1.84 3.55-1.84 6.16Zm27.8-8.084c1.74-2.053 4.43-3.08 8.06-3.08 3.64 0 6.33 1.027 8.07 3.08 1.75 2.053 2.62 4.811 2.62 8.276v1.155c0 2.224-.59 4.17-1.77 5.838-1.18 1.625-2.83 2.759-4.95 3.4 2.21.556 3.89 1.647 5.02 3.272 1.13 1.626 1.7 3.572 1.7 5.839v3.464c0 3.465-.87 6.224-2.62 8.276-1.74 2.053-4.43 3.08-8.07 3.08-3.63 0-6.32-1.026-8.06-3.08-1.75-2.053-2.62-4.811-2.62-8.276v-3.72h3.11v3.913c0 2.566.59 4.619 1.77 6.159 1.23 1.54 3.14 2.31 5.73 2.31 5 0 7.5-2.909 7.5-8.726v-3.464c0-2.31-.68-4.15-2.05-5.518-1.37-1.369-3.23-2.053-5.59-2.053h-2.76v-2.695h2.97c2.17 0 3.94-.705 5.31-2.117 1.42-1.454 2.12-3.229 2.12-5.325v-1.668c0-5.817-2.5-8.725-7.5-8.725-2.59 0-4.5.77-5.73 2.31-1.22 1.496-1.84 3.55-1.84 6.158v2.438h-2.97V21.6c0-3.464.85-6.201 2.55-8.211Zm44.36 21.107h-15.43v21.108h-3.25v-44.91h3.25v21.108h15.43V10.693h3.33v44.91h-3.33V34.495Zm30.54 11.164h-15.42l-2.48 9.944h-2.97l10.82-44.974h4.74l11.04 44.974h-3.25l-2.48-9.944Zm-7.78-31.63-7.15 29.063h14.44l-7.29-29.063Zm40.16 41.574-13.66-21.108-3.4 4.876v16.232h-3.25v-44.91h3.25v23.738l16.14-23.738h3.39l-14.15 20.915 15.07 23.995h-3.39Zm9.5-10.971V21.664c0-3.422.9-6.16 2.69-8.212 1.84-2.096 4.55-3.144 8.14-3.144 3.68 0 6.41 1.027 8.2 3.08 1.84 2.053 2.76 4.811 2.76 8.276v22.968c0 3.465-.92 6.224-2.76 8.276-1.79 2.053-4.52 3.08-8.2 3.08-3.59 0-6.3-1.026-8.14-3.08-1.79-2.095-2.69-4.854-2.69-8.276Zm3.25-23.16v23.353c0 2.609.62 4.683 1.84 6.223 1.23 1.497 3.14 2.245 5.74 2.245 2.64 0 4.57-.748 5.8-2.245 1.27-1.54 1.91-3.614 1.91-6.223V21.47c0-2.609-.64-4.662-1.91-6.159-1.23-1.54-3.16-2.31-5.8-2.31-2.6 0-4.51.77-5.74 2.31-1.22 1.497-1.84 3.55-1.84 6.16Zm52.29-5.775-10.34 39.842h-3.25l-10.47-39.713v39.777h-2.9v-44.91h4.67l10.4 39.713 10.33-39.713h4.67v44.91h-3.11V15.697Zm29.28.193-7.43 18.605-8.14 21.108h-3.53v-44.91h2.97v38.43l7.22-18.349 7.99-20.081h3.89v44.91h-2.97V15.89Zm22.48 39.713h-3.26V13.388h-10.12v-2.695h23.5v2.695h-10.12v42.215Zm19.58-26.433h6.08c3.92 0 6.82.877 8.7 2.63 1.89 1.754 2.83 4.428 2.83 8.02v4.876c0 7.272-3.56 10.907-10.68 10.907h-10.19v-44.91h3.26V29.17Zm0 23.738h6.93c4.95 0 7.43-2.673 7.43-8.02v-5.26c0-2.737-.66-4.705-1.98-5.903-1.32-1.24-3.42-1.86-6.3-1.86h-6.08v21.043Zm26.75-39.456c1.75-2.096 4.43-3.144 8.07-3.144 3.63 0 6.32 1.048 8.06 3.144 1.75 2.053 2.62 4.79 2.62 8.212v3.721h-3.11v-3.914c0-2.566-.61-4.619-1.84-6.159-1.18-1.54-3.07-2.31-5.66-2.31-2.6 0-4.51.77-5.73 2.31-1.18 1.54-1.77 3.593-1.77 6.16v23.353c0 5.603 2.5 8.404 7.5 8.404s7.5-2.801 7.5-8.404V39.5h3.11v5.132c0 3.422-.87 6.18-2.62 8.276-1.74 2.053-4.43 3.08-8.06 3.08-3.64 0-6.32-1.026-8.07-3.08-1.74-2.095-2.62-4.854-2.62-8.276V21.664c0-3.422.88-6.16 2.62-8.212Zm43.87 22.07h-5.16c-3.07 0-5.38.577-6.94 1.732-1.55 1.112-2.33 3.08-2.33 5.903v7.057c0 2.48-.36 4.277-1.06 5.39h-3.4c.8-1.113 1.2-2.91 1.2-5.39V43.22c0-5.176 2.39-8.234 7.15-9.175-4.76-.983-7.15-4.084-7.15-9.302V20.83c0-6.758 3.54-10.137 10.62-10.137h10.33v44.91h-3.26V35.522Zm0-22.134h-7c-4.96 0-7.43 2.566-7.43 7.699v4.234c0 2.866.75 4.833 2.26 5.902 1.51 1.07 3.82 1.604 6.94 1.604h5.23v-19.44Zm29.92-1.7c1.68-2.18 4.26-3.271 7.75-3.271s6.07 1.09 7.75 3.271c1.67 2.136 2.51 4.985 2.51 8.546v3.872h-2.99v-4.073c0-2.67-.59-4.807-1.77-6.409-1.13-1.602-2.94-2.403-5.43-2.403-2.5 0-4.33.8-5.51 2.403-1.13 1.602-1.7 3.739-1.7 6.41v24.3c0 5.831 2.4 8.747 7.21 8.747 4.8 0 7.2-2.916 7.2-8.746v-5.541h2.99v5.34c0 3.561-.84 6.432-2.51 8.613-1.68 2.136-4.26 3.204-7.75 3.204s-6.07-1.068-7.75-3.204c-1.68-2.181-2.52-5.052-2.52-8.612V20.234c0-3.561.84-6.41 2.52-8.546Zm54.73 2.537-7.13 19.361-7.82 21.965h-3.4V8.817h2.86v39.99l6.93-19.093 7.68-20.897h3.74v46.734h-2.86V14.225Zm27.51 19.361h-14.82v21.965h-3.13V8.817h3.13v21.965h14.82V8.817h3.19v46.734h-3.19V33.586Zm12.27-21.898c1.68-2.18 4.26-3.271 7.75-3.271s6.07 1.09 7.75 3.271c1.68 2.136 2.52 4.985 2.52 8.546v3.872h-2.99v-4.073c0-2.67-.59-4.807-1.77-6.409-1.13-1.602-2.95-2.403-5.44-2.403s-4.33.8-5.51 2.403c-1.13 1.602-1.69 3.739-1.69 6.41v24.3c0 5.831 2.4 8.747 7.2 8.747 4.8 0 7.21-2.916 7.21-8.746v-5.541h2.99v5.34c0 3.561-.84 6.432-2.52 8.613-1.68 2.136-4.26 3.204-7.75 3.204s-6.07-1.068-7.75-3.204c-1.67-2.181-2.51-5.052-2.51-8.612V20.234c0-3.561.84-6.41 2.51-8.546Zm36.51 43.862h-3.13V11.622h-9.72V8.817h22.57v2.804h-9.72v43.93Zm15.68-46.733h9.85c6.8 0 10.2 3.784 10.2 11.35v5.074c0 7.388-3.67 11.082-11.01 11.082h-5.92v19.228h-3.12V8.817Zm3.12 24.702h5.92c2.76 0 4.75-.623 5.98-1.869 1.27-1.29 1.9-3.36 1.9-6.209v-5.474c0-5.564-2.36-8.346-7.07-8.346h-6.73V33.52Zm47.33-24.702-12.31 38.055c-.86 3.115-2.01 5.385-3.46 6.81-1.45 1.38-3.79 2.002-7 1.869v-2.737c2.08.044 3.62-.356 4.62-1.202 1-.89 1.81-2.315 2.45-4.273l1.97-5.675-11.42-32.847h3.19l5.58 16.49 4.14 12.485 3.81-12.551 5.16-16.424h3.27Zm25.47 46.733-13.12-21.964-3.26 5.074v16.89h-3.13V8.818h3.13V33.52l15.5-24.702h3.26l-13.59 21.765 14.47 24.969h-3.26Zm35.23 6.277h-3.06V55.55h-21.95V8.817h3.06v43.93h14.81V8.817h3.2v43.93h3.94v9.08Zm24.75-47.602-7.14 19.361-7.82 21.965h-3.4V8.817h2.86v39.99l6.93-19.093 7.68-20.897h3.74v46.734h-2.85V14.225Zm12.68 16.223h12.98v2.804h-12.98v19.495h15.63v2.804h-18.76V8.817h18.76v2.804h-15.63v18.827ZM1733.49.005h2.11c-.04 1.735-.7 3.115-1.97 4.139s-2.9 1.535-4.89 1.535c-2 0-3.63-.49-4.9-1.468-1.22-1.024-1.86-2.426-1.9-4.206h2.17c.05 1.246.5 2.18 1.36 2.804.86.578 1.95.868 3.27.868 3.03 0 4.62-1.224 4.75-3.672Zm2.65 14.22-6.79 18.56-8.16 22.766h-3.4V8.817h2.86v39.99l6.18-17.024 8.43-22.966h3.74v46.734h-2.86V14.225Z" opacity=".7" fill="#292929" fill-opacity=".59"/></svg>