<svg width="48" height="48" viewBox="0 0 48 48" fill="none" xmlns="http://www.w3.org/2000/svg">
<rect x="0.75" y="0.75" width="46.5" height="46.5" rx="23.25" fill="white" stroke="#7DC9DC" stroke-width="1.5"/>
<path d="M24 24C26.7614 24 29 21.7614 29 19C29 16.2386 26.7614 14 24 14C21.2386 14 19 16.2386 19 19C19 21.7614 21.2386 24 24 24Z" fill="#7DC9DC"/>
<path d="M24.0002 26.5C18.9902 26.5 14.9102 28.86 14.9102 33C14.9102 34.5 16 34.5 16.4102 34.5H31.5902C33 34.5 33.0902 34 33.0902 33C33.0902 28.86 29.0102 26.5 24.0002 26.5Z" fill="#7DC9DC"/>
</svg>
