<svg width="33" height="33" viewBox="0 0 33 33" fill="none" xmlns="http://www.w3.org/2000/svg">
  <g clip-path="url(#clip0_638_3279)">
    <path d="M31.5996 26.3047H29.5996V12.3047C29.8648 12.3047 30.1192 12.1993 30.3067 12.0118C30.4943 11.8243 30.5996 11.5699 30.5996 11.3047C30.5996 11.0395 30.4943 10.7851 30.3067 10.5976C30.1192 10.41 29.8648 10.3047 29.5996 10.3047H23.5996V6.30469C23.8648 6.30469 24.1192 6.19933 24.3067 6.01179C24.4943 5.82426 24.5996 5.5699 24.5996 5.30469C24.5996 5.03947 24.4943 4.78512 24.3067 4.59758C24.1192 4.41004 23.8648 4.30469 23.5996 4.30469H5.59961C5.33439 4.30469 5.08004 4.41004 4.8925 4.59758C4.70497 4.78512 4.59961 5.03947 4.59961 5.30469C4.59961 5.5699 4.70497 5.82426 4.8925 6.01179C5.08004 6.19933 5.33439 6.30469 5.59961 6.30469V26.3047H3.59961C3.33439 26.3047 3.08004 26.41 2.8925 26.5976C2.70497 26.7851 2.59961 27.0395 2.59961 27.3047C2.59961 27.5699 2.70497 27.8243 2.8925 28.0118C3.08004 28.1993 3.33439 28.3047 3.59961 28.3047H31.5996C31.8648 28.3047 32.1192 28.1993 32.3067 28.0118C32.4943 27.8243 32.5996 27.5699 32.5996 27.3047C32.5996 27.0395 32.4943 26.7851 32.3067 26.5976C32.1192 26.41 31.8648 26.3047 31.5996 26.3047ZM27.5996 12.3047V26.3047H23.5996V12.3047H27.5996ZM7.59961 6.30469H21.5996V26.3047H18.5996V20.3047C18.5996 20.0395 18.4943 19.7851 18.3067 19.5976C18.1192 19.41 17.8648 19.3047 17.5996 19.3047H11.5996C11.3344 19.3047 11.08 19.41 10.8925 19.5976C10.705 19.7851 10.5996 20.0395 10.5996 20.3047V26.3047H7.59961V6.30469ZM16.5996 26.3047H12.5996V21.3047H16.5996V26.3047ZM9.59961 10.3047C9.59961 10.0395 9.70497 9.78512 9.8925 9.59758C10.08 9.41004 10.3344 9.30469 10.5996 9.30469H12.5996C12.8648 9.30469 13.1192 9.41004 13.3067 9.59758C13.4943 9.78512 13.5996 10.0395 13.5996 10.3047C13.5996 10.5699 13.4943 10.8243 13.3067 11.0118C13.1192 11.1993 12.8648 11.3047 12.5996 11.3047H10.5996C10.3344 11.3047 10.08 11.1993 9.8925 11.0118C9.70497 10.8243 9.59961 10.5699 9.59961 10.3047ZM15.5996 10.3047C15.5996 10.0395 15.705 9.78512 15.8925 9.59758C16.08 9.41004 16.3344 9.30469 16.5996 9.30469H18.5996C18.8648 9.30469 19.1192 9.41004 19.3067 9.59758C19.4943 9.78512 19.5996 10.0395 19.5996 10.3047C19.5996 10.5699 19.4943 10.8243 19.3067 11.0118C19.1192 11.1993 18.8648 11.3047 18.5996 11.3047H16.5996C16.3344 11.3047 16.08 11.1993 15.8925 11.0118C15.705 10.8243 15.5996 10.5699 15.5996 10.3047ZM9.59961 15.3047C9.59961 15.0395 9.70497 14.7851 9.8925 14.5976C10.08 14.41 10.3344 14.3047 10.5996 14.3047H12.5996C12.8648 14.3047 13.1192 14.41 13.3067 14.5976C13.4943 14.7851 13.5996 15.0395 13.5996 15.3047C13.5996 15.5699 13.4943 15.8243 13.3067 16.0118C13.1192 16.1993 12.8648 16.3047 12.5996 16.3047H10.5996C10.3344 16.3047 10.08 16.1993 9.8925 16.0118C9.70497 15.8243 9.59961 15.5699 9.59961 15.3047ZM15.5996 15.3047C15.5996 15.0395 15.705 14.7851 15.8925 14.5976C16.08 14.41 16.3344 14.3047 16.5996 14.3047H18.5996C18.8648 14.3047 19.1192 14.41 19.3067 14.5976C19.4943 14.7851 19.5996 15.0395 19.5996 15.3047C19.5996 15.5699 19.4943 15.8243 19.3067 16.0118C19.1192 16.1993 18.8648 16.3047 18.5996 16.3047H16.5996C16.3344 16.3047 16.08 16.1993 15.8925 16.0118C15.705 15.8243 15.5996 15.5699 15.5996 15.3047Z" fill="white" />
  </g>
  <defs>
    <clipPath id="clip0_638_3279">
      <rect width="32" height="32" fill="white" transform="translate(0.599609 0.703125)" />
    </clipPath>
  </defs>
</svg>