<svg width="33" height="33" viewBox="0 0 33 33" fill="none" xmlns="http://www.w3.org/2000/svg">
  <path d="M15.5996 13.4107V22.5107C15.5996 22.7759 15.705 23.0303 15.8925 23.2178C16.08 23.4053 16.3344 23.5107 16.5996 23.5107C16.8648 23.5107 17.1192 23.4053 17.3067 23.2178C17.4943 23.0303 17.5996 22.7759 17.5996 22.5107V13.4107C18.8137 13.1629 19.8924 12.4731 20.6268 11.4751C21.3612 10.4771 21.6988 9.24198 21.5743 8.00917C21.4498 6.77637 20.8719 5.63373 19.9528 4.80276C19.0336 3.9718 17.8387 3.51172 16.5996 3.51172C15.3605 3.51172 14.1656 3.9718 13.2465 4.80276C12.3273 5.63373 11.7495 6.77637 11.6249 8.00917C11.5004 9.24198 11.838 10.4771 12.5724 11.4751C13.3068 12.4731 14.3856 13.1629 15.5996 13.4107ZM16.5996 5.5107C17.193 5.5107 17.773 5.68665 18.2663 6.01629C18.7597 6.34593 19.1442 6.81447 19.3712 7.36265C19.5983 7.91083 19.6577 8.51403 19.542 9.09597C19.4262 9.67791 19.1405 10.2125 18.7209 10.632C18.3014 11.0516 17.7668 11.3373 17.1849 11.4531C16.6029 11.5688 15.9997 11.5094 15.4516 11.2823C14.9034 11.0553 14.4348 10.6708 14.1052 10.1774C13.7756 9.68406 13.5996 9.10404 13.5996 8.5107C13.5996 7.71505 13.9157 6.95199 14.4783 6.38938C15.0409 5.82677 15.804 5.5107 16.5996 5.5107ZM30.5996 22.5107C30.5996 26.4082 23.3859 28.5107 16.5996 28.5107C9.81336 28.5107 2.59961 26.4082 2.59961 22.5107C2.59961 21.5432 3.07586 20.1194 5.34961 18.8344C6.88211 17.9669 8.98961 17.3007 11.4459 16.9069C11.5758 16.8864 11.7085 16.8917 11.8364 16.9225C11.9643 16.9532 12.0848 17.0089 12.1912 17.0862C12.2976 17.1636 12.3877 17.2612 12.4564 17.3734C12.5251 17.4855 12.571 17.6101 12.5915 17.7401C12.612 17.87 12.6067 18.0027 12.576 18.1306C12.5452 18.2585 12.4896 18.3791 12.4122 18.4854C12.3348 18.5918 12.2373 18.6819 12.1251 18.7506C12.0129 18.8193 11.8883 18.8652 11.7584 18.8857C9.56586 19.2382 7.63336 19.8394 6.33086 20.5794C5.23086 21.1982 4.59961 21.9032 4.59961 22.5107C4.59961 24.1807 9.16461 26.5107 16.5996 26.5107C24.0346 26.5107 28.5996 24.1807 28.5996 22.5107C28.5996 21.9032 27.9684 21.1982 26.8684 20.5744C25.5609 19.8344 23.6334 19.2332 21.4409 18.8807C21.3082 18.8634 21.1803 18.8196 21.0649 18.7519C20.9494 18.6843 20.8487 18.5942 20.7687 18.4869C20.6887 18.3796 20.6311 18.2574 20.5992 18.1274C20.5673 17.9975 20.5618 17.8624 20.5831 17.7303C20.6043 17.5982 20.6519 17.4717 20.7229 17.3583C20.7939 17.2449 20.887 17.1469 20.9966 17.0701C21.1062 16.9933 21.2301 16.9393 21.3609 16.9113C21.4918 16.8833 21.6269 16.8818 21.7584 16.9069C24.2146 17.3007 26.3221 17.9669 27.8546 18.8344C30.1234 20.1194 30.5996 21.5432 30.5996 22.5107Z" fill="white" />
</svg>