<svg width="33" height="33" viewBox="0 0 33 33" fill="none" xmlns="http://www.w3.org/2000/svg">
  <path d="M13.5996 18.9688C13.5996 19.234 13.4943 19.4883 13.3067 19.6759C13.1192 19.8634 12.8648 19.9688 12.5996 19.9688H7.59961C7.33439 19.9688 7.08004 19.8634 6.8925 19.6759C6.70497 19.4883 6.59961 19.234 6.59961 18.9688C6.59961 18.7035 6.70497 18.4492 6.8925 18.2616C7.08004 18.0741 7.33439 17.9688 7.59961 17.9688H12.5996C12.8648 17.9688 13.1192 18.0741 13.3067 18.2616C13.4943 18.4492 13.5996 18.7035 13.5996 18.9688ZM30.5996 14.4688V21.9688C30.5996 22.4992 30.3889 23.0079 30.0138 23.383C29.6388 23.758 29.13 23.9688 28.5996 23.9688H17.5996V27.9688C17.5996 28.234 17.4943 28.4883 17.3067 28.6759C17.1192 28.8634 16.8648 28.9688 16.5996 28.9688C16.3344 28.9688 16.08 28.8634 15.8925 28.6759C15.705 28.4883 15.5996 28.234 15.5996 27.9688V23.9688H4.59961C4.06918 23.9688 3.56047 23.758 3.1854 23.383C2.81032 23.0079 2.59961 22.4992 2.59961 21.9688V14.4688C2.60193 12.4803 3.39285 10.574 4.79887 9.16801C6.20489 7.76199 8.1112 6.97107 10.0996 6.96875H19.5996V2.96875C19.5996 2.70353 19.705 2.44918 19.8925 2.26164C20.08 2.07411 20.3344 1.96875 20.5996 1.96875H24.5996C24.8648 1.96875 25.1192 2.07411 25.3067 2.26164C25.4943 2.44918 25.5996 2.70353 25.5996 2.96875C25.5996 3.23397 25.4943 3.48832 25.3067 3.67586C25.1192 3.86339 24.8648 3.96875 24.5996 3.96875H21.5996V6.96875H23.0996C25.088 6.97107 26.9943 7.76199 28.4004 9.16801C29.8064 10.574 30.5973 12.4803 30.5996 14.4688ZM15.5996 21.9688V14.4688C15.5996 13.0101 15.0201 11.6111 13.9887 10.5797C12.9572 9.54821 11.5583 8.96875 10.0996 8.96875C8.64092 8.96875 7.24197 9.54821 6.21052 10.5797C5.17907 11.6111 4.59961 13.0101 4.59961 14.4688V21.9688H15.5996ZM28.5996 14.4688C28.598 13.0106 28.018 11.6126 26.9869 10.5815C25.9558 9.5504 24.5578 8.9704 23.0996 8.96875H21.5996V17.9688C21.5996 18.234 21.4943 18.4883 21.3067 18.6759C21.1192 18.8634 20.8648 18.9688 20.5996 18.9688C20.3344 18.9688 20.08 18.8634 19.8925 18.6759C19.705 18.4883 19.5996 18.234 19.5996 17.9688V8.96875H15.1934C15.9524 9.6697 16.5581 10.5203 16.9723 11.4668C17.3864 12.4134 17.6 13.4355 17.5996 14.4688V21.9688H28.5996V14.4688Z" fill="white" />
</svg>