<svg width="33" height="33" viewBox="0 0 33 33" fill="none" xmlns="http://www.w3.org/2000/svg">
  <path d="M16.5996 3.19922C13.1518 3.19922 9.84519 4.56886 7.40722 7.00683C4.96925 9.4448 3.59961 12.7514 3.59961 16.1992C3.59961 19.647 4.96925 22.9536 7.40722 25.3916C9.84519 27.8296 13.1518 29.1992 16.5996 29.1992C19.2884 29.1992 22.1121 28.3892 24.1534 27.033C24.2628 26.9602 24.3568 26.8667 24.43 26.7576C24.5033 26.6486 24.5543 26.5262 24.5803 26.3974C24.6062 26.2686 24.6065 26.136 24.5812 26.0071C24.5559 25.8782 24.5055 25.7555 24.4327 25.6461C24.36 25.5367 24.2665 25.4427 24.1574 25.3694C24.0484 25.2962 23.9259 25.2451 23.7972 25.2192C23.6684 25.1932 23.5357 25.1929 23.4068 25.2182C23.2779 25.2435 23.1553 25.294 23.0459 25.3667C21.3496 26.4967 18.8759 27.1992 16.5996 27.1992C14.424 27.1992 12.2973 26.5541 10.4883 25.3454C8.6794 24.1367 7.2695 22.4187 6.43693 20.4087C5.60437 18.3988 5.38653 16.187 5.81097 14.0532C6.23541 11.9194 7.28306 9.95942 8.82143 8.42104C10.3598 6.88267 12.3198 5.83502 14.4536 5.41058C16.5874 4.98614 18.7991 5.20398 20.8091 6.03654C22.8191 6.86911 24.5371 8.27901 25.7458 10.0879C26.9545 11.8969 27.5996 14.0236 27.5996 16.1992C27.5996 19.5055 26.2396 20.1992 25.0996 20.1992C23.9596 20.1992 22.5996 19.5055 22.5996 16.1992V11.1992C22.5996 10.934 22.4943 10.6796 22.3067 10.4921C22.1192 10.3046 21.8648 10.1992 21.5996 10.1992C21.3344 10.1992 21.08 10.3046 20.8925 10.4921C20.705 10.6796 20.5996 10.934 20.5996 11.1992V11.7317C19.7022 10.9271 18.5833 10.4115 17.3886 10.2519C16.194 10.0923 14.9789 10.2963 13.9018 10.8371C12.8247 11.378 11.9355 12.2307 11.3499 13.2842C10.7644 14.3376 10.5097 15.5431 10.619 16.7434C10.7284 17.9437 11.1966 19.0832 11.9629 20.0136C12.7292 20.9439 13.7578 21.6219 14.9149 21.9593C16.072 22.2966 17.3039 22.2777 18.4501 21.9049C19.5963 21.5321 20.6036 20.8227 21.3409 19.8692C22.0909 21.3692 23.3846 22.1992 25.0996 22.1992C27.9171 22.1992 29.5996 19.9567 29.5996 16.1992C29.596 12.7525 28.2252 9.44803 25.788 7.01085C23.3508 4.57367 20.0463 3.20286 16.5996 3.19922ZM16.5996 20.1992C15.8085 20.1992 15.0351 19.9646 14.3773 19.5251C13.7195 19.0856 13.2068 18.4609 12.9041 17.73C12.6013 16.999 12.5221 16.1948 12.6765 15.4189C12.8308 14.6429 13.2118 13.9302 13.7712 13.3708C14.3306 12.8114 15.0433 12.4304 15.8192 12.2761C16.5952 12.1217 17.3994 12.2009 18.1303 12.5037C18.8612 12.8065 19.486 13.3191 19.9255 13.9769C20.365 14.6347 20.5996 15.4081 20.5996 16.1992C20.5996 17.2601 20.1782 18.2775 19.428 19.0276C18.6779 19.7778 17.6605 20.1992 16.5996 20.1992Z" fill="white" />
</svg>