<svg width="33" height="33" fill="none" xmlns="http://www.w3.org/2000/svg"><g clip-path="url(#a)"><path d="M31.6 26.305h-2v-14a1 1 0 0 0 0-2h-6v-4a1 1 0 1 0 0-2h-18a1 1 0 1 0 0 2v20h-2a1 1 0 1 0 0 2h28a1 1 0 0 0 0-2Zm-4-14v14h-4v-14h4Zm-20-6h14v20h-3v-6a1 1 0 0 0-1-1h-6a1 1 0 0 0-1 1v6h-3v-20Zm9 20h-4v-5h4v5Zm-7-16a1 1 0 0 1 1-1h2a1 1 0 1 1 0 2h-2a1 1 0 0 1-1-1Zm6 0a1 1 0 0 1 1-1h2a1 1 0 1 1 0 2h-2a1 1 0 0 1-1-1Zm-6 5a1 1 0 0 1 1-1h2a1 1 0 1 1 0 2h-2a1 1 0 0 1-1-1Zm6 0a1 1 0 0 1 1-1h2a1 1 0 1 1 0 2h-2a1 1 0 0 1-1-1Z" fill="#fff"/></g><defs><clipPath id="a"><path fill="#fff" transform="translate(.6 .703)" d="M0 0h32v32H0z"/></clipPath></defs></svg>