<svg width="33" height="33" fill="none" xmlns="http://www.w3.org/2000/svg"><path d="M15.6 13.41v9.1a1 1 0 0 0 2 0v-9.1a5 5 0 1 0-2 0Zm1-7.9a3 3 0 1 1 0 6 3 3 0 0 1 0-6Zm14 17c0 3.898-7.214 6-14 6-6.787 0-14-2.102-14-6 0-.967.476-2.39 2.75-3.676 1.532-.867 3.64-1.533 6.096-1.927a1.001 1.001 0 0 1 .312 1.979c-2.192.352-4.125.953-5.427 1.693-1.1.62-1.731 1.324-1.731 1.932 0 1.67 4.565 4 12 4s12-2.33 12-4c0-.608-.632-1.313-1.732-1.937-1.307-.74-3.235-1.34-5.427-1.693a.998.998 0 0 1-.718-1.523 1 1 0 0 1 1.035-.451c2.457.394 4.564 1.06 6.097 1.927 2.268 1.285 2.745 2.71 2.745 3.677Z" fill="#fff"/></svg>